G04 #@! TF.GenerationSoftware,KiCad,Pcbnew,10.0.1*
G04 #@! TF.CreationDate,2026-05-29T00:18:22+02:00*
G04 #@! TF.ProjectId,MiniPC,4d696e69-5043-42e6-9b69-6361645f7063,rev?*
G04 #@! TF.SameCoordinates,Original*
G04 #@! TF.FileFunction,Soldermask,Bot*
G04 #@! TF.FilePolarity,Negative*
%FSLAX46Y46*%
G04 Gerber Fmt 4.6, Leading zero omitted, Abs format (unit mm)*
G04 Created by KiCad (PCBNEW 10.0.1) date 2026-05-29 00:18:22*
%MOMM*%
%LPD*%
G01*
G04 APERTURE LIST*
G04 Aperture macros list*
%AMRoundRect*
0 Rectangle with rounded corners*
0 $1 Rounding radius*
0 $2 $3 $4 $5 $6 $7 $8 $9 X,Y pos of 4 corners*
0 Add a 4 corners polygon primitive as box body*
4,1,4,$2,$3,$4,$5,$6,$7,$8,$9,$2,$3,0*
0 Add four circle primitives for the rounded corners*
1,1,$1+$1,$2,$3*
1,1,$1+$1,$4,$5*
1,1,$1+$1,$6,$7*
1,1,$1+$1,$8,$9*
0 Add four rect primitives between the rounded corners*
20,1,$1+$1,$2,$3,$4,$5,0*
20,1,$1+$1,$4,$5,$6,$7,0*
20,1,$1+$1,$6,$7,$8,$9,0*
20,1,$1+$1,$8,$9,$2,$3,0*%
G04 Aperture macros list end*
%ADD10O,3.200000X1.900000*%
%ADD11C,2.700000*%
%ADD12R,2.250000X2.250000*%
%ADD13C,2.250000*%
%ADD14C,2.200000*%
%ADD15C,4.000000*%
%ADD16RoundRect,0.250000X-0.550000X-0.550000X0.550000X-0.550000X0.550000X0.550000X-0.550000X0.550000X0*%
%ADD17C,1.600000*%
%ADD18C,2.500000*%
%ADD19C,2.000000*%
%ADD20RoundRect,0.190500X-1.079500X-0.444500X1.079500X-0.444500X1.079500X0.444500X-1.079500X0.444500X0*%
%ADD21R,2.540000X1.270000*%
%ADD22R,1.700000X1.700000*%
%ADD23C,1.700000*%
%ADD24RoundRect,0.250000X0.550000X-0.550000X0.550000X0.550000X-0.550000X0.550000X-0.550000X-0.550000X0*%
%ADD25RoundRect,0.249999X-0.850001X0.850001X-0.850001X-0.850001X0.850001X-0.850001X0.850001X0.850001X0*%
%ADD26R,2.000000X2.000000*%
%ADD27RoundRect,0.249999X-0.850001X-0.850001X0.850001X-0.850001X0.850001X0.850001X-0.850001X0.850001X0*%
%ADD28RoundRect,0.250000X0.550000X0.550000X-0.550000X0.550000X-0.550000X-0.550000X0.550000X-0.550000X0*%
%ADD29RoundRect,0.250001X-0.949999X0.949999X-0.949999X-0.949999X0.949999X-0.949999X0.949999X0.949999X0*%
%ADD30C,2.400000*%
%ADD31C,1.400000*%
%ADD32R,2.000000X1.905000*%
%ADD33O,2.000000X1.905000*%
%ADD34RoundRect,0.249999X0.850001X0.850001X-0.850001X0.850001X-0.850001X-0.850001X0.850001X-0.850001X0*%
G04 APERTURE END LIST*
D10*
X246035534Y-110280000D03*
X258535534Y-110280000D03*
X246035534Y-115280000D03*
X258535534Y-115280000D03*
D11*
X216880000Y-75030000D03*
D12*
X236850000Y-96230000D03*
D13*
X243350000Y-96230000D03*
D14*
X169460000Y-95020000D03*
D12*
X249550000Y-96230000D03*
D13*
X256050000Y-96230000D03*
D15*
X159380000Y-136600000D03*
D14*
X161920000Y-131520000D03*
X155570000Y-134060000D03*
D15*
X178430000Y-136600000D03*
D14*
X180970000Y-131520000D03*
X174620000Y-134060000D03*
D16*
X133142500Y-82260000D03*
D17*
X136952500Y-82260000D03*
X140762500Y-82260000D03*
D14*
X169460000Y-87040000D03*
D15*
X197480000Y-155650000D03*
D14*
X200020000Y-150570000D03*
X193670000Y-153110000D03*
X206440000Y-87030000D03*
D18*
X202131754Y-79855076D03*
D10*
X230280000Y-126035534D03*
X242780000Y-126035534D03*
X230280000Y-131035534D03*
X242780000Y-131035534D03*
D15*
X197480000Y-117550000D03*
D14*
X200020000Y-112470000D03*
X193670000Y-115010000D03*
D19*
X142670000Y-135990000D03*
D15*
X216530000Y-155650000D03*
D14*
X219070000Y-150570000D03*
X212720000Y-153110000D03*
D11*
X158880000Y-98030000D03*
D15*
X178430000Y-117550000D03*
D14*
X180970000Y-112470000D03*
X174620000Y-115010000D03*
D15*
X159380000Y-117550000D03*
D14*
X161920000Y-112470000D03*
X155570000Y-115010000D03*
D11*
X158880000Y-75030000D03*
D18*
X202140302Y-106307132D03*
D10*
X261791068Y-126035534D03*
X274291068Y-126035534D03*
X261791068Y-131035534D03*
X274291068Y-131035534D03*
D19*
X122660000Y-136980000D03*
D15*
X216530000Y-136600000D03*
D14*
X219070000Y-131520000D03*
X212720000Y-134060000D03*
D18*
X175679698Y-79863624D03*
D19*
X174456729Y-94832925D03*
X174456729Y-92292925D03*
X174456729Y-89752925D03*
X174456729Y-87212925D03*
D14*
X206440000Y-95010000D03*
D15*
X197480000Y-136600000D03*
D14*
X200020000Y-131520000D03*
X193670000Y-134060000D03*
D11*
X216880000Y-98030000D03*
D20*
X123665199Y-124980000D03*
X123665199Y-126980000D03*
X123665199Y-128980000D03*
D21*
X123665199Y-130980000D03*
D12*
X262250000Y-96230000D03*
D13*
X268750000Y-96230000D03*
D18*
X175688246Y-106315680D03*
D15*
X159380000Y-155650000D03*
D14*
X161920000Y-150570000D03*
X155570000Y-153110000D03*
D19*
X123460000Y-141260000D03*
D15*
X216530000Y-117550000D03*
D14*
X219070000Y-112470000D03*
X212720000Y-115010000D03*
D10*
X246035534Y-141791068D03*
X258535534Y-141791068D03*
X246035534Y-146791068D03*
X258535534Y-146791068D03*
D15*
X178430000Y-155650000D03*
D14*
X180970000Y-150570000D03*
X174620000Y-153110000D03*
D19*
X123460000Y-159770000D03*
D22*
X163750000Y-76300000D03*
D23*
X163750000Y-73760000D03*
X166290000Y-76300000D03*
X166290000Y-73760000D03*
X168830000Y-76300000D03*
X168830000Y-73760000D03*
X171370000Y-76300000D03*
X171370000Y-73760000D03*
X173910000Y-76300000D03*
X173910000Y-73760000D03*
X176450000Y-76300000D03*
X176450000Y-73760000D03*
X178990000Y-76300000D03*
X178990000Y-73760000D03*
X181530000Y-76300000D03*
X181530000Y-73760000D03*
X184070000Y-76300000D03*
X184070000Y-73760000D03*
X186610000Y-76300000D03*
X186610000Y-73760000D03*
X189150000Y-76300000D03*
X189150000Y-73760000D03*
X191690000Y-76300000D03*
X191690000Y-73760000D03*
X194230000Y-76300000D03*
X194230000Y-73760000D03*
X196770000Y-76300000D03*
X196770000Y-73760000D03*
X199310000Y-76300000D03*
X199310000Y-73760000D03*
X201850000Y-76300000D03*
X201850000Y-73760000D03*
X204390000Y-76300000D03*
X204390000Y-73760000D03*
X206930000Y-76300000D03*
X206930000Y-73760000D03*
X209470000Y-76300000D03*
X209470000Y-73760000D03*
X212010000Y-76300000D03*
X212010000Y-73760000D03*
D24*
X144850000Y-114010000D03*
D17*
X142310000Y-114010000D03*
X139770000Y-114010000D03*
X137230000Y-114010000D03*
X134690000Y-114010000D03*
X132150000Y-114010000D03*
X129610000Y-114010000D03*
X127070000Y-114010000D03*
X127070000Y-106390000D03*
X129610000Y-106390000D03*
X132150000Y-106390000D03*
X134690000Y-106390000D03*
X137230000Y-106390000D03*
X139770000Y-106390000D03*
X142310000Y-106390000D03*
X144850000Y-106390000D03*
D25*
X208350000Y-129250000D03*
D14*
X208350000Y-136870000D03*
D26*
X141010000Y-87855199D03*
X141010000Y-90395199D03*
D19*
X141010000Y-99315199D03*
X141010000Y-101855199D03*
X274158309Y-78010000D03*
X274158309Y-71510000D03*
X269658309Y-78010000D03*
X269658309Y-71510000D03*
X119740000Y-71380641D03*
X119740000Y-77880641D03*
X124240000Y-71380641D03*
X124240000Y-77880641D03*
D27*
X224860000Y-157190000D03*
D14*
X232480000Y-157190000D03*
D25*
X208350000Y-110200000D03*
D14*
X208350000Y-117820000D03*
D25*
X151200000Y-129250000D03*
D14*
X151200000Y-136870000D03*
D28*
X271530000Y-163540000D03*
D17*
X263910000Y-163540000D03*
D25*
X189300000Y-110200000D03*
D14*
X189300000Y-117820000D03*
D25*
X208350000Y-148300000D03*
D14*
X208350000Y-155920000D03*
D24*
X147390000Y-83410000D03*
D17*
X147390000Y-81410000D03*
X165170000Y-92500000D03*
X165170000Y-90000000D03*
D29*
X133010000Y-165510000D03*
D30*
X133010000Y-169010000D03*
D25*
X151200000Y-148300000D03*
D14*
X151200000Y-155920000D03*
D31*
X119450000Y-107660000D03*
X119450000Y-112740000D03*
D27*
X224860000Y-144490000D03*
D14*
X232480000Y-144490000D03*
D29*
X148660000Y-88920000D03*
D30*
X148660000Y-92420000D03*
D25*
X170250000Y-110200000D03*
D14*
X170250000Y-117820000D03*
D17*
X149970000Y-103850000D03*
X152470000Y-103850000D03*
D27*
X236290000Y-89880000D03*
D14*
X243910000Y-89880000D03*
D27*
X257880000Y-73370000D03*
D14*
X265500000Y-73370000D03*
D25*
X151200000Y-110200000D03*
D14*
X151200000Y-117820000D03*
D17*
X268990000Y-168620000D03*
X266490000Y-168620000D03*
D32*
X260100000Y-158460000D03*
D33*
X260100000Y-161000000D03*
X260100000Y-163540000D03*
D25*
X189300000Y-129250000D03*
D14*
X189300000Y-136870000D03*
D27*
X224860000Y-163540000D03*
D14*
X232480000Y-163540000D03*
D31*
X255340000Y-168620000D03*
X260420000Y-168620000D03*
X121990000Y-112740000D03*
X121990000Y-107660000D03*
D25*
X170250000Y-129250000D03*
D14*
X170250000Y-136870000D03*
D25*
X189300000Y-148300000D03*
D14*
X189300000Y-155920000D03*
D27*
X248990000Y-89880000D03*
D14*
X256610000Y-89880000D03*
D34*
X136250000Y-73370000D03*
D14*
X128630000Y-73370000D03*
D17*
X119450000Y-129250000D03*
X119450000Y-126750000D03*
D27*
X261690000Y-89880000D03*
D14*
X269310000Y-89880000D03*
D27*
X224860000Y-138140000D03*
D14*
X232480000Y-138140000D03*
D25*
X170250000Y-148300000D03*
D14*
X170250000Y-155920000D03*
D22*
X266450000Y-158460000D03*
D23*
X268990000Y-158460000D03*
D19*
X122530000Y-155575269D03*
X122530000Y-153035269D03*
D26*
X122530000Y-150495269D03*
X122530000Y-147955269D03*
D19*
X122530000Y-145415269D03*
M02*
