G04 #@! TF.GenerationSoftware,KiCad,Pcbnew,10.0.1*
G04 #@! TF.CreationDate,2026-05-29T00:18:22+02:00*
G04 #@! TF.ProjectId,MiniPC,4d696e69-5043-42e6-9b69-6361645f7063,rev?*
G04 #@! TF.SameCoordinates,Original*
G04 #@! TF.FileFunction,OtherDrawing,Comment*
%FSLAX46Y46*%
G04 Gerber Fmt 4.6, Leading zero omitted, Abs format (unit mm)*
G04 Created by KiCad (PCBNEW 10.0.1) date 2026-05-29 00:18:22*
%MOMM*%
%LPD*%
G01*
G04 APERTURE LIST*
%ADD10C,0.150000*%
G04 APERTURE END LIST*
D10*
X158716779Y-69961009D02*
X159050112Y-69961009D01*
X159192969Y-70484819D02*
X158716779Y-70484819D01*
X158716779Y-70484819D02*
X158716779Y-69484819D01*
X158716779Y-69484819D02*
X159192969Y-69484819D01*
X159526303Y-70484819D02*
X160050112Y-69818152D01*
X159526303Y-69818152D02*
X160050112Y-70484819D01*
X160288208Y-69818152D02*
X160669160Y-69818152D01*
X160431065Y-69484819D02*
X160431065Y-70341961D01*
X160431065Y-70341961D02*
X160478684Y-70437200D01*
X160478684Y-70437200D02*
X160573922Y-70484819D01*
X160573922Y-70484819D02*
X160669160Y-70484819D01*
X161383446Y-70437200D02*
X161288208Y-70484819D01*
X161288208Y-70484819D02*
X161097732Y-70484819D01*
X161097732Y-70484819D02*
X161002494Y-70437200D01*
X161002494Y-70437200D02*
X160954875Y-70341961D01*
X160954875Y-70341961D02*
X160954875Y-69961009D01*
X160954875Y-69961009D02*
X161002494Y-69865771D01*
X161002494Y-69865771D02*
X161097732Y-69818152D01*
X161097732Y-69818152D02*
X161288208Y-69818152D01*
X161288208Y-69818152D02*
X161383446Y-69865771D01*
X161383446Y-69865771D02*
X161431065Y-69961009D01*
X161431065Y-69961009D02*
X161431065Y-70056247D01*
X161431065Y-70056247D02*
X160954875Y-70151485D01*
X161859637Y-69818152D02*
X161859637Y-70484819D01*
X161859637Y-69913390D02*
X161907256Y-69865771D01*
X161907256Y-69865771D02*
X162002494Y-69818152D01*
X162002494Y-69818152D02*
X162145351Y-69818152D01*
X162145351Y-69818152D02*
X162240589Y-69865771D01*
X162240589Y-69865771D02*
X162288208Y-69961009D01*
X162288208Y-69961009D02*
X162288208Y-70484819D01*
X163192970Y-70484819D02*
X163192970Y-69484819D01*
X163192970Y-70437200D02*
X163097732Y-70484819D01*
X163097732Y-70484819D02*
X162907256Y-70484819D01*
X162907256Y-70484819D02*
X162812018Y-70437200D01*
X162812018Y-70437200D02*
X162764399Y-70389580D01*
X162764399Y-70389580D02*
X162716780Y-70294342D01*
X162716780Y-70294342D02*
X162716780Y-70008628D01*
X162716780Y-70008628D02*
X162764399Y-69913390D01*
X162764399Y-69913390D02*
X162812018Y-69865771D01*
X162812018Y-69865771D02*
X162907256Y-69818152D01*
X162907256Y-69818152D02*
X163097732Y-69818152D01*
X163097732Y-69818152D02*
X163192970Y-69865771D01*
X164431066Y-70484819D02*
X164431066Y-69484819D01*
X164431066Y-69484819D02*
X164812018Y-69484819D01*
X164812018Y-69484819D02*
X164907256Y-69532438D01*
X164907256Y-69532438D02*
X164954875Y-69580057D01*
X164954875Y-69580057D02*
X165002494Y-69675295D01*
X165002494Y-69675295D02*
X165002494Y-69818152D01*
X165002494Y-69818152D02*
X164954875Y-69913390D01*
X164954875Y-69913390D02*
X164907256Y-69961009D01*
X164907256Y-69961009D02*
X164812018Y-70008628D01*
X164812018Y-70008628D02*
X164431066Y-70008628D01*
X166002494Y-70389580D02*
X165954875Y-70437200D01*
X165954875Y-70437200D02*
X165812018Y-70484819D01*
X165812018Y-70484819D02*
X165716780Y-70484819D01*
X165716780Y-70484819D02*
X165573923Y-70437200D01*
X165573923Y-70437200D02*
X165478685Y-70341961D01*
X165478685Y-70341961D02*
X165431066Y-70246723D01*
X165431066Y-70246723D02*
X165383447Y-70056247D01*
X165383447Y-70056247D02*
X165383447Y-69913390D01*
X165383447Y-69913390D02*
X165431066Y-69722914D01*
X165431066Y-69722914D02*
X165478685Y-69627676D01*
X165478685Y-69627676D02*
X165573923Y-69532438D01*
X165573923Y-69532438D02*
X165716780Y-69484819D01*
X165716780Y-69484819D02*
X165812018Y-69484819D01*
X165812018Y-69484819D02*
X165954875Y-69532438D01*
X165954875Y-69532438D02*
X166002494Y-69580057D01*
X166764399Y-69961009D02*
X166907256Y-70008628D01*
X166907256Y-70008628D02*
X166954875Y-70056247D01*
X166954875Y-70056247D02*
X167002494Y-70151485D01*
X167002494Y-70151485D02*
X167002494Y-70294342D01*
X167002494Y-70294342D02*
X166954875Y-70389580D01*
X166954875Y-70389580D02*
X166907256Y-70437200D01*
X166907256Y-70437200D02*
X166812018Y-70484819D01*
X166812018Y-70484819D02*
X166431066Y-70484819D01*
X166431066Y-70484819D02*
X166431066Y-69484819D01*
X166431066Y-69484819D02*
X166764399Y-69484819D01*
X166764399Y-69484819D02*
X166859637Y-69532438D01*
X166859637Y-69532438D02*
X166907256Y-69580057D01*
X166907256Y-69580057D02*
X166954875Y-69675295D01*
X166954875Y-69675295D02*
X166954875Y-69770533D01*
X166954875Y-69770533D02*
X166907256Y-69865771D01*
X166907256Y-69865771D02*
X166859637Y-69913390D01*
X166859637Y-69913390D02*
X166764399Y-69961009D01*
X166764399Y-69961009D02*
X166431066Y-69961009D01*
X168573923Y-70437200D02*
X168478685Y-70484819D01*
X168478685Y-70484819D02*
X168288209Y-70484819D01*
X168288209Y-70484819D02*
X168192971Y-70437200D01*
X168192971Y-70437200D02*
X168145352Y-70341961D01*
X168145352Y-70341961D02*
X168145352Y-69961009D01*
X168145352Y-69961009D02*
X168192971Y-69865771D01*
X168192971Y-69865771D02*
X168288209Y-69818152D01*
X168288209Y-69818152D02*
X168478685Y-69818152D01*
X168478685Y-69818152D02*
X168573923Y-69865771D01*
X168573923Y-69865771D02*
X168621542Y-69961009D01*
X168621542Y-69961009D02*
X168621542Y-70056247D01*
X168621542Y-70056247D02*
X168145352Y-70151485D01*
X169478685Y-70484819D02*
X169478685Y-69484819D01*
X169478685Y-70437200D02*
X169383447Y-70484819D01*
X169383447Y-70484819D02*
X169192971Y-70484819D01*
X169192971Y-70484819D02*
X169097733Y-70437200D01*
X169097733Y-70437200D02*
X169050114Y-70389580D01*
X169050114Y-70389580D02*
X169002495Y-70294342D01*
X169002495Y-70294342D02*
X169002495Y-70008628D01*
X169002495Y-70008628D02*
X169050114Y-69913390D01*
X169050114Y-69913390D02*
X169097733Y-69865771D01*
X169097733Y-69865771D02*
X169192971Y-69818152D01*
X169192971Y-69818152D02*
X169383447Y-69818152D01*
X169383447Y-69818152D02*
X169478685Y-69865771D01*
X170383447Y-69818152D02*
X170383447Y-70627676D01*
X170383447Y-70627676D02*
X170335828Y-70722914D01*
X170335828Y-70722914D02*
X170288209Y-70770533D01*
X170288209Y-70770533D02*
X170192971Y-70818152D01*
X170192971Y-70818152D02*
X170050114Y-70818152D01*
X170050114Y-70818152D02*
X169954876Y-70770533D01*
X170383447Y-70437200D02*
X170288209Y-70484819D01*
X170288209Y-70484819D02*
X170097733Y-70484819D01*
X170097733Y-70484819D02*
X170002495Y-70437200D01*
X170002495Y-70437200D02*
X169954876Y-70389580D01*
X169954876Y-70389580D02*
X169907257Y-70294342D01*
X169907257Y-70294342D02*
X169907257Y-70008628D01*
X169907257Y-70008628D02*
X169954876Y-69913390D01*
X169954876Y-69913390D02*
X170002495Y-69865771D01*
X170002495Y-69865771D02*
X170097733Y-69818152D01*
X170097733Y-69818152D02*
X170288209Y-69818152D01*
X170288209Y-69818152D02*
X170383447Y-69865771D01*
X171240590Y-70437200D02*
X171145352Y-70484819D01*
X171145352Y-70484819D02*
X170954876Y-70484819D01*
X170954876Y-70484819D02*
X170859638Y-70437200D01*
X170859638Y-70437200D02*
X170812019Y-70341961D01*
X170812019Y-70341961D02*
X170812019Y-69961009D01*
X170812019Y-69961009D02*
X170859638Y-69865771D01*
X170859638Y-69865771D02*
X170954876Y-69818152D01*
X170954876Y-69818152D02*
X171145352Y-69818152D01*
X171145352Y-69818152D02*
X171240590Y-69865771D01*
X171240590Y-69865771D02*
X171288209Y-69961009D01*
X171288209Y-69961009D02*
X171288209Y-70056247D01*
X171288209Y-70056247D02*
X170812019Y-70151485D01*
X172669162Y-69484819D02*
X172764400Y-69484819D01*
X172764400Y-69484819D02*
X172859638Y-69532438D01*
X172859638Y-69532438D02*
X172907257Y-69580057D01*
X172907257Y-69580057D02*
X172954876Y-69675295D01*
X172954876Y-69675295D02*
X173002495Y-69865771D01*
X173002495Y-69865771D02*
X173002495Y-70103866D01*
X173002495Y-70103866D02*
X172954876Y-70294342D01*
X172954876Y-70294342D02*
X172907257Y-70389580D01*
X172907257Y-70389580D02*
X172859638Y-70437200D01*
X172859638Y-70437200D02*
X172764400Y-70484819D01*
X172764400Y-70484819D02*
X172669162Y-70484819D01*
X172669162Y-70484819D02*
X172573924Y-70437200D01*
X172573924Y-70437200D02*
X172526305Y-70389580D01*
X172526305Y-70389580D02*
X172478686Y-70294342D01*
X172478686Y-70294342D02*
X172431067Y-70103866D01*
X172431067Y-70103866D02*
X172431067Y-69865771D01*
X172431067Y-69865771D02*
X172478686Y-69675295D01*
X172478686Y-69675295D02*
X172526305Y-69580057D01*
X172526305Y-69580057D02*
X172573924Y-69532438D01*
X172573924Y-69532438D02*
X172669162Y-69484819D01*
X173431067Y-70389580D02*
X173478686Y-70437200D01*
X173478686Y-70437200D02*
X173431067Y-70484819D01*
X173431067Y-70484819D02*
X173383448Y-70437200D01*
X173383448Y-70437200D02*
X173431067Y-70389580D01*
X173431067Y-70389580D02*
X173431067Y-70484819D01*
X174383447Y-69484819D02*
X173907257Y-69484819D01*
X173907257Y-69484819D02*
X173859638Y-69961009D01*
X173859638Y-69961009D02*
X173907257Y-69913390D01*
X173907257Y-69913390D02*
X174002495Y-69865771D01*
X174002495Y-69865771D02*
X174240590Y-69865771D01*
X174240590Y-69865771D02*
X174335828Y-69913390D01*
X174335828Y-69913390D02*
X174383447Y-69961009D01*
X174383447Y-69961009D02*
X174431066Y-70056247D01*
X174431066Y-70056247D02*
X174431066Y-70294342D01*
X174431066Y-70294342D02*
X174383447Y-70389580D01*
X174383447Y-70389580D02*
X174335828Y-70437200D01*
X174335828Y-70437200D02*
X174240590Y-70484819D01*
X174240590Y-70484819D02*
X174002495Y-70484819D01*
X174002495Y-70484819D02*
X173907257Y-70437200D01*
X173907257Y-70437200D02*
X173859638Y-70389580D01*
X174859638Y-70484819D02*
X174859638Y-69818152D01*
X174859638Y-69913390D02*
X174907257Y-69865771D01*
X174907257Y-69865771D02*
X175002495Y-69818152D01*
X175002495Y-69818152D02*
X175145352Y-69818152D01*
X175145352Y-69818152D02*
X175240590Y-69865771D01*
X175240590Y-69865771D02*
X175288209Y-69961009D01*
X175288209Y-69961009D02*
X175288209Y-70484819D01*
X175288209Y-69961009D02*
X175335828Y-69865771D01*
X175335828Y-69865771D02*
X175431066Y-69818152D01*
X175431066Y-69818152D02*
X175573923Y-69818152D01*
X175573923Y-69818152D02*
X175669162Y-69865771D01*
X175669162Y-69865771D02*
X175716781Y-69961009D01*
X175716781Y-69961009D02*
X175716781Y-70484819D01*
X176192971Y-70484819D02*
X176192971Y-69818152D01*
X176192971Y-69913390D02*
X176240590Y-69865771D01*
X176240590Y-69865771D02*
X176335828Y-69818152D01*
X176335828Y-69818152D02*
X176478685Y-69818152D01*
X176478685Y-69818152D02*
X176573923Y-69865771D01*
X176573923Y-69865771D02*
X176621542Y-69961009D01*
X176621542Y-69961009D02*
X176621542Y-70484819D01*
X176621542Y-69961009D02*
X176669161Y-69865771D01*
X176669161Y-69865771D02*
X176764399Y-69818152D01*
X176764399Y-69818152D02*
X176907256Y-69818152D01*
X176907256Y-69818152D02*
X177002495Y-69865771D01*
X177002495Y-69865771D02*
X177050114Y-69961009D01*
X177050114Y-69961009D02*
X177050114Y-70484819D01*
X178288209Y-70484819D02*
X178288209Y-69818152D01*
X178288209Y-69484819D02*
X178240590Y-69532438D01*
X178240590Y-69532438D02*
X178288209Y-69580057D01*
X178288209Y-69580057D02*
X178335828Y-69532438D01*
X178335828Y-69532438D02*
X178288209Y-69484819D01*
X178288209Y-69484819D02*
X178288209Y-69580057D01*
X178621542Y-69818152D02*
X179002494Y-69818152D01*
X178764399Y-70484819D02*
X178764399Y-69627676D01*
X178764399Y-69627676D02*
X178812018Y-69532438D01*
X178812018Y-69532438D02*
X178907256Y-69484819D01*
X178907256Y-69484819D02*
X179002494Y-69484819D01*
X180526304Y-69818152D02*
X180526304Y-70484819D01*
X180097733Y-69818152D02*
X180097733Y-70341961D01*
X180097733Y-70341961D02*
X180145352Y-70437200D01*
X180145352Y-70437200D02*
X180240590Y-70484819D01*
X180240590Y-70484819D02*
X180383447Y-70484819D01*
X180383447Y-70484819D02*
X180478685Y-70437200D01*
X180478685Y-70437200D02*
X180526304Y-70389580D01*
X180954876Y-70437200D02*
X181050114Y-70484819D01*
X181050114Y-70484819D02*
X181240590Y-70484819D01*
X181240590Y-70484819D02*
X181335828Y-70437200D01*
X181335828Y-70437200D02*
X181383447Y-70341961D01*
X181383447Y-70341961D02*
X181383447Y-70294342D01*
X181383447Y-70294342D02*
X181335828Y-70199104D01*
X181335828Y-70199104D02*
X181240590Y-70151485D01*
X181240590Y-70151485D02*
X181097733Y-70151485D01*
X181097733Y-70151485D02*
X181002495Y-70103866D01*
X181002495Y-70103866D02*
X180954876Y-70008628D01*
X180954876Y-70008628D02*
X180954876Y-69961009D01*
X180954876Y-69961009D02*
X181002495Y-69865771D01*
X181002495Y-69865771D02*
X181097733Y-69818152D01*
X181097733Y-69818152D02*
X181240590Y-69818152D01*
X181240590Y-69818152D02*
X181335828Y-69865771D01*
X181812019Y-70484819D02*
X181812019Y-69818152D01*
X181812019Y-69484819D02*
X181764400Y-69532438D01*
X181764400Y-69532438D02*
X181812019Y-69580057D01*
X181812019Y-69580057D02*
X181859638Y-69532438D01*
X181859638Y-69532438D02*
X181812019Y-69484819D01*
X181812019Y-69484819D02*
X181812019Y-69580057D01*
X182288209Y-69818152D02*
X182288209Y-70484819D01*
X182288209Y-69913390D02*
X182335828Y-69865771D01*
X182335828Y-69865771D02*
X182431066Y-69818152D01*
X182431066Y-69818152D02*
X182573923Y-69818152D01*
X182573923Y-69818152D02*
X182669161Y-69865771D01*
X182669161Y-69865771D02*
X182716780Y-69961009D01*
X182716780Y-69961009D02*
X182716780Y-70484819D01*
X183621542Y-69818152D02*
X183621542Y-70627676D01*
X183621542Y-70627676D02*
X183573923Y-70722914D01*
X183573923Y-70722914D02*
X183526304Y-70770533D01*
X183526304Y-70770533D02*
X183431066Y-70818152D01*
X183431066Y-70818152D02*
X183288209Y-70818152D01*
X183288209Y-70818152D02*
X183192971Y-70770533D01*
X183621542Y-70437200D02*
X183526304Y-70484819D01*
X183526304Y-70484819D02*
X183335828Y-70484819D01*
X183335828Y-70484819D02*
X183240590Y-70437200D01*
X183240590Y-70437200D02*
X183192971Y-70389580D01*
X183192971Y-70389580D02*
X183145352Y-70294342D01*
X183145352Y-70294342D02*
X183145352Y-70008628D01*
X183145352Y-70008628D02*
X183192971Y-69913390D01*
X183192971Y-69913390D02*
X183240590Y-69865771D01*
X183240590Y-69865771D02*
X183335828Y-69818152D01*
X183335828Y-69818152D02*
X183526304Y-69818152D01*
X183526304Y-69818152D02*
X183621542Y-69865771D01*
X184812019Y-70437200D02*
X184954876Y-70484819D01*
X184954876Y-70484819D02*
X185192971Y-70484819D01*
X185192971Y-70484819D02*
X185288209Y-70437200D01*
X185288209Y-70437200D02*
X185335828Y-70389580D01*
X185335828Y-70389580D02*
X185383447Y-70294342D01*
X185383447Y-70294342D02*
X185383447Y-70199104D01*
X185383447Y-70199104D02*
X185335828Y-70103866D01*
X185335828Y-70103866D02*
X185288209Y-70056247D01*
X185288209Y-70056247D02*
X185192971Y-70008628D01*
X185192971Y-70008628D02*
X185002495Y-69961009D01*
X185002495Y-69961009D02*
X184907257Y-69913390D01*
X184907257Y-69913390D02*
X184859638Y-69865771D01*
X184859638Y-69865771D02*
X184812019Y-69770533D01*
X184812019Y-69770533D02*
X184812019Y-69675295D01*
X184812019Y-69675295D02*
X184859638Y-69580057D01*
X184859638Y-69580057D02*
X184907257Y-69532438D01*
X184907257Y-69532438D02*
X185002495Y-69484819D01*
X185002495Y-69484819D02*
X185240590Y-69484819D01*
X185240590Y-69484819D02*
X185383447Y-69532438D01*
X185812019Y-70484819D02*
X185812019Y-69484819D01*
X185812019Y-69484819D02*
X186145352Y-70199104D01*
X186145352Y-70199104D02*
X186478685Y-69484819D01*
X186478685Y-69484819D02*
X186478685Y-70484819D01*
X186812019Y-69484819D02*
X187383447Y-69484819D01*
X187097733Y-70484819D02*
X187097733Y-69484819D01*
X188478686Y-70484819D02*
X188478686Y-69484819D01*
X188907257Y-70484819D02*
X188907257Y-69961009D01*
X188907257Y-69961009D02*
X188859638Y-69865771D01*
X188859638Y-69865771D02*
X188764400Y-69818152D01*
X188764400Y-69818152D02*
X188621543Y-69818152D01*
X188621543Y-69818152D02*
X188526305Y-69865771D01*
X188526305Y-69865771D02*
X188478686Y-69913390D01*
X189764400Y-70437200D02*
X189669162Y-70484819D01*
X189669162Y-70484819D02*
X189478686Y-70484819D01*
X189478686Y-70484819D02*
X189383448Y-70437200D01*
X189383448Y-70437200D02*
X189335829Y-70341961D01*
X189335829Y-70341961D02*
X189335829Y-69961009D01*
X189335829Y-69961009D02*
X189383448Y-69865771D01*
X189383448Y-69865771D02*
X189478686Y-69818152D01*
X189478686Y-69818152D02*
X189669162Y-69818152D01*
X189669162Y-69818152D02*
X189764400Y-69865771D01*
X189764400Y-69865771D02*
X189812019Y-69961009D01*
X189812019Y-69961009D02*
X189812019Y-70056247D01*
X189812019Y-70056247D02*
X189335829Y-70151485D01*
X190669162Y-70484819D02*
X190669162Y-69961009D01*
X190669162Y-69961009D02*
X190621543Y-69865771D01*
X190621543Y-69865771D02*
X190526305Y-69818152D01*
X190526305Y-69818152D02*
X190335829Y-69818152D01*
X190335829Y-69818152D02*
X190240591Y-69865771D01*
X190669162Y-70437200D02*
X190573924Y-70484819D01*
X190573924Y-70484819D02*
X190335829Y-70484819D01*
X190335829Y-70484819D02*
X190240591Y-70437200D01*
X190240591Y-70437200D02*
X190192972Y-70341961D01*
X190192972Y-70341961D02*
X190192972Y-70246723D01*
X190192972Y-70246723D02*
X190240591Y-70151485D01*
X190240591Y-70151485D02*
X190335829Y-70103866D01*
X190335829Y-70103866D02*
X190573924Y-70103866D01*
X190573924Y-70103866D02*
X190669162Y-70056247D01*
X191573924Y-70484819D02*
X191573924Y-69484819D01*
X191573924Y-70437200D02*
X191478686Y-70484819D01*
X191478686Y-70484819D02*
X191288210Y-70484819D01*
X191288210Y-70484819D02*
X191192972Y-70437200D01*
X191192972Y-70437200D02*
X191145353Y-70389580D01*
X191145353Y-70389580D02*
X191097734Y-70294342D01*
X191097734Y-70294342D02*
X191097734Y-70008628D01*
X191097734Y-70008628D02*
X191145353Y-69913390D01*
X191145353Y-69913390D02*
X191192972Y-69865771D01*
X191192972Y-69865771D02*
X191288210Y-69818152D01*
X191288210Y-69818152D02*
X191478686Y-69818152D01*
X191478686Y-69818152D02*
X191573924Y-69865771D01*
X192431067Y-70437200D02*
X192335829Y-70484819D01*
X192335829Y-70484819D02*
X192145353Y-70484819D01*
X192145353Y-70484819D02*
X192050115Y-70437200D01*
X192050115Y-70437200D02*
X192002496Y-70341961D01*
X192002496Y-70341961D02*
X192002496Y-69961009D01*
X192002496Y-69961009D02*
X192050115Y-69865771D01*
X192050115Y-69865771D02*
X192145353Y-69818152D01*
X192145353Y-69818152D02*
X192335829Y-69818152D01*
X192335829Y-69818152D02*
X192431067Y-69865771D01*
X192431067Y-69865771D02*
X192478686Y-69961009D01*
X192478686Y-69961009D02*
X192478686Y-70056247D01*
X192478686Y-70056247D02*
X192002496Y-70151485D01*
X192907258Y-70484819D02*
X192907258Y-69818152D01*
X192907258Y-70008628D02*
X192954877Y-69913390D01*
X192954877Y-69913390D02*
X193002496Y-69865771D01*
X193002496Y-69865771D02*
X193097734Y-69818152D01*
X193097734Y-69818152D02*
X193192972Y-69818152D01*
X149855000Y-127075000D02*
X168905000Y-127075000D01*
X149855000Y-146125000D02*
X149855000Y-127075000D01*
X168905000Y-127075000D02*
X168905000Y-146125000D01*
X168905000Y-146125000D02*
X149855000Y-146125000D01*
X168905000Y-127075000D02*
X187955000Y-127075000D01*
X168905000Y-146125000D02*
X168905000Y-127075000D01*
X187955000Y-127075000D02*
X187955000Y-146125000D01*
X187955000Y-146125000D02*
X168905000Y-146125000D01*
X187955000Y-146125000D02*
X207005000Y-146125000D01*
X187955000Y-165175000D02*
X187955000Y-146125000D01*
X207005000Y-146125000D02*
X207005000Y-165175000D01*
X207005000Y-165175000D02*
X187955000Y-165175000D01*
X187955000Y-108025000D02*
X207005000Y-108025000D01*
X187955000Y-127075000D02*
X187955000Y-108025000D01*
X207005000Y-108025000D02*
X207005000Y-127075000D01*
X207005000Y-127075000D02*
X187955000Y-127075000D01*
X207005000Y-146125000D02*
X226055000Y-146125000D01*
X207005000Y-165175000D02*
X207005000Y-146125000D01*
X226055000Y-146125000D02*
X226055000Y-165175000D01*
X226055000Y-165175000D02*
X207005000Y-165175000D01*
X168905000Y-108025000D02*
X187955000Y-108025000D01*
X168905000Y-127075000D02*
X168905000Y-108025000D01*
X187955000Y-108025000D02*
X187955000Y-127075000D01*
X187955000Y-127075000D02*
X168905000Y-127075000D01*
X149855000Y-108025000D02*
X168905000Y-108025000D01*
X149855000Y-127075000D02*
X149855000Y-108025000D01*
X168905000Y-108025000D02*
X168905000Y-127075000D01*
X168905000Y-127075000D02*
X149855000Y-127075000D01*
X207005000Y-127075000D02*
X226055000Y-127075000D01*
X207005000Y-146125000D02*
X207005000Y-127075000D01*
X226055000Y-127075000D02*
X226055000Y-146125000D01*
X226055000Y-146125000D02*
X207005000Y-146125000D01*
X187955000Y-127075000D02*
X207005000Y-127075000D01*
X187955000Y-146125000D02*
X187955000Y-127075000D01*
X207005000Y-127075000D02*
X207005000Y-146125000D01*
X207005000Y-146125000D02*
X187955000Y-146125000D01*
X149855000Y-146125000D02*
X168905000Y-146125000D01*
X149855000Y-165175000D02*
X149855000Y-146125000D01*
X168905000Y-146125000D02*
X168905000Y-165175000D01*
X168905000Y-165175000D02*
X149855000Y-165175000D01*
X207005000Y-108025000D02*
X226055000Y-108025000D01*
X207005000Y-127075000D02*
X207005000Y-108025000D01*
X226055000Y-108025000D02*
X226055000Y-127075000D01*
X226055000Y-127075000D02*
X207005000Y-127075000D01*
X168905000Y-146125000D02*
X187955000Y-146125000D01*
X168905000Y-165175000D02*
X168905000Y-146125000D01*
X187955000Y-146125000D02*
X187955000Y-165175000D01*
X187955000Y-165175000D02*
X168905000Y-165175000D01*
M02*
