G04 #@! TF.GenerationSoftware,KiCad,Pcbnew,10.0.1*
G04 #@! TF.CreationDate,2026-05-29T00:18:22+02:00*
G04 #@! TF.ProjectId,MiniPC,4d696e69-5043-42e6-9b69-6361645f7063,rev?*
G04 #@! TF.SameCoordinates,Original*
G04 #@! TF.FileFunction,Other,Comment*
%FSLAX46Y46*%
G04 Gerber Fmt 4.6, Leading zero omitted, Abs format (unit mm)*
G04 Created by KiCad (PCBNEW 10.0.1) date 2026-05-29 00:18:22*
%MOMM*%
%LPD*%
G01*
G04 APERTURE LIST*
%ADD10C,0.150000*%
G04 APERTURE END LIST*
D10*
X219580000Y-75030000D02*
G75*
G02*
X214180000Y-75030000I-2700000J0D01*
G01*
X214180000Y-75030000D02*
G75*
G02*
X219580000Y-75030000I2700000J0D01*
G01*
X171660000Y-95020000D02*
G75*
G02*
X167260000Y-95020000I-2200000J0D01*
G01*
X167260000Y-95020000D02*
G75*
G02*
X171660000Y-95020000I2200000J0D01*
G01*
X171660000Y-87040000D02*
G75*
G02*
X167260000Y-87040000I-2200000J0D01*
G01*
X167260000Y-87040000D02*
G75*
G02*
X171660000Y-87040000I2200000J0D01*
G01*
X208640000Y-87030000D02*
G75*
G02*
X204240000Y-87030000I-2200000J0D01*
G01*
X204240000Y-87030000D02*
G75*
G02*
X208640000Y-87030000I2200000J0D01*
G01*
X204631754Y-79855076D02*
G75*
G02*
X199631754Y-79855076I-2500000J0D01*
G01*
X199631754Y-79855076D02*
G75*
G02*
X204631754Y-79855076I2500000J0D01*
G01*
X144670000Y-135990000D02*
G75*
G02*
X140670000Y-135990000I-2000000J0D01*
G01*
X140670000Y-135990000D02*
G75*
G02*
X144670000Y-135990000I2000000J0D01*
G01*
X161580000Y-98030000D02*
G75*
G02*
X156180000Y-98030000I-2700000J0D01*
G01*
X156180000Y-98030000D02*
G75*
G02*
X161580000Y-98030000I2700000J0D01*
G01*
X161580000Y-75030000D02*
G75*
G02*
X156180000Y-75030000I-2700000J0D01*
G01*
X156180000Y-75030000D02*
G75*
G02*
X161580000Y-75030000I2700000J0D01*
G01*
X204640302Y-106307132D02*
G75*
G02*
X199640302Y-106307132I-2500000J0D01*
G01*
X199640302Y-106307132D02*
G75*
G02*
X204640302Y-106307132I2500000J0D01*
G01*
X124660000Y-136980000D02*
G75*
G02*
X120660000Y-136980000I-2000000J0D01*
G01*
X120660000Y-136980000D02*
G75*
G02*
X124660000Y-136980000I2000000J0D01*
G01*
X178179698Y-79863624D02*
G75*
G02*
X173179698Y-79863624I-2500000J0D01*
G01*
X173179698Y-79863624D02*
G75*
G02*
X178179698Y-79863624I2500000J0D01*
G01*
X208640000Y-95010000D02*
G75*
G02*
X204240000Y-95010000I-2200000J0D01*
G01*
X204240000Y-95010000D02*
G75*
G02*
X208640000Y-95010000I2200000J0D01*
G01*
X219580000Y-98030000D02*
G75*
G02*
X214180000Y-98030000I-2700000J0D01*
G01*
X214180000Y-98030000D02*
G75*
G02*
X219580000Y-98030000I2700000J0D01*
G01*
X178188246Y-106315680D02*
G75*
G02*
X173188246Y-106315680I-2500000J0D01*
G01*
X173188246Y-106315680D02*
G75*
G02*
X178188246Y-106315680I2500000J0D01*
G01*
X125460000Y-141260000D02*
G75*
G02*
X121460000Y-141260000I-2000000J0D01*
G01*
X121460000Y-141260000D02*
G75*
G02*
X125460000Y-141260000I2000000J0D01*
G01*
X125460000Y-159770000D02*
G75*
G02*
X121460000Y-159770000I-2000000J0D01*
G01*
X121460000Y-159770000D02*
G75*
G02*
X125460000Y-159770000I2000000J0D01*
G01*
M02*
