G04 #@! TF.GenerationSoftware,KiCad,Pcbnew,10.0.1*
G04 #@! TF.CreationDate,2026-05-29T00:18:22+02:00*
G04 #@! TF.ProjectId,MiniPC,4d696e69-5043-42e6-9b69-6361645f7063,rev?*
G04 #@! TF.SameCoordinates,Original*
G04 #@! TF.FileFunction,Copper,L4,Bot*
G04 #@! TF.FilePolarity,Positive*
%FSLAX46Y46*%
G04 Gerber Fmt 4.6, Leading zero omitted, Abs format (unit mm)*
G04 Created by KiCad (PCBNEW 10.0.1) date 2026-05-29 00:18:22*
%MOMM*%
%LPD*%
G01*
G04 APERTURE LIST*
G04 Aperture macros list*
%AMRoundRect*
0 Rectangle with rounded corners*
0 $1 Rounding radius*
0 $2 $3 $4 $5 $6 $7 $8 $9 X,Y pos of 4 corners*
0 Add a 4 corners polygon primitive as box body*
4,1,4,$2,$3,$4,$5,$6,$7,$8,$9,$2,$3,0*
0 Add four circle primitives for the rounded corners*
1,1,$1+$1,$2,$3*
1,1,$1+$1,$4,$5*
1,1,$1+$1,$6,$7*
1,1,$1+$1,$8,$9*
0 Add four rect primitives between the rounded corners*
20,1,$1+$1,$2,$3,$4,$5,0*
20,1,$1+$1,$4,$5,$6,$7,0*
20,1,$1+$1,$6,$7,$8,$9,0*
20,1,$1+$1,$8,$9,$2,$3,0*%
G04 Aperture macros list end*
G04 #@! TA.AperFunction,ComponentPad*
%ADD10O,3.200000X1.900000*%
G04 #@! TD*
G04 #@! TA.AperFunction,ComponentPad*
%ADD11R,2.250000X2.250000*%
G04 #@! TD*
G04 #@! TA.AperFunction,ComponentPad*
%ADD12C,2.250000*%
G04 #@! TD*
G04 #@! TA.AperFunction,ComponentPad*
%ADD13C,2.200000*%
G04 #@! TD*
G04 #@! TA.AperFunction,ComponentPad*
%ADD14RoundRect,0.250000X-0.550000X-0.550000X0.550000X-0.550000X0.550000X0.550000X-0.550000X0.550000X0*%
G04 #@! TD*
G04 #@! TA.AperFunction,ComponentPad*
%ADD15C,1.600000*%
G04 #@! TD*
G04 #@! TA.AperFunction,ComponentPad*
%ADD16C,2.000000*%
G04 #@! TD*
G04 #@! TA.AperFunction,ComponentPad*
%ADD17RoundRect,0.190500X-1.079500X-0.444500X1.079500X-0.444500X1.079500X0.444500X-1.079500X0.444500X0*%
G04 #@! TD*
G04 #@! TA.AperFunction,ComponentPad*
%ADD18R,2.540000X1.270000*%
G04 #@! TD*
G04 #@! TA.AperFunction,ComponentPad*
%ADD19R,1.700000X1.700000*%
G04 #@! TD*
G04 #@! TA.AperFunction,ComponentPad*
%ADD20C,1.700000*%
G04 #@! TD*
G04 #@! TA.AperFunction,ComponentPad*
%ADD21RoundRect,0.250000X0.550000X-0.550000X0.550000X0.550000X-0.550000X0.550000X-0.550000X-0.550000X0*%
G04 #@! TD*
G04 #@! TA.AperFunction,ComponentPad*
%ADD22RoundRect,0.249999X-0.850001X0.850001X-0.850001X-0.850001X0.850001X-0.850001X0.850001X0.850001X0*%
G04 #@! TD*
G04 #@! TA.AperFunction,ComponentPad*
%ADD23R,2.000000X2.000000*%
G04 #@! TD*
G04 #@! TA.AperFunction,ComponentPad*
%ADD24RoundRect,0.249999X-0.850001X-0.850001X0.850001X-0.850001X0.850001X0.850001X-0.850001X0.850001X0*%
G04 #@! TD*
G04 #@! TA.AperFunction,ComponentPad*
%ADD25RoundRect,0.250000X0.550000X0.550000X-0.550000X0.550000X-0.550000X-0.550000X0.550000X-0.550000X0*%
G04 #@! TD*
G04 #@! TA.AperFunction,ComponentPad*
%ADD26RoundRect,0.250001X-0.949999X0.949999X-0.949999X-0.949999X0.949999X-0.949999X0.949999X0.949999X0*%
G04 #@! TD*
G04 #@! TA.AperFunction,ComponentPad*
%ADD27C,2.400000*%
G04 #@! TD*
G04 #@! TA.AperFunction,ComponentPad*
%ADD28C,1.400000*%
G04 #@! TD*
G04 #@! TA.AperFunction,ComponentPad*
%ADD29R,2.000000X1.905000*%
G04 #@! TD*
G04 #@! TA.AperFunction,ComponentPad*
%ADD30O,2.000000X1.905000*%
G04 #@! TD*
G04 #@! TA.AperFunction,ComponentPad*
%ADD31RoundRect,0.249999X0.850001X0.850001X-0.850001X0.850001X-0.850001X-0.850001X0.850001X-0.850001X0*%
G04 #@! TD*
G04 #@! TA.AperFunction,Conductor*
%ADD32C,0.200000*%
G04 #@! TD*
G04 APERTURE END LIST*
D10*
X246035534Y-110280000D03*
X258535534Y-110280000D03*
X246035534Y-115280000D03*
X258535534Y-115280000D03*
D11*
X236850000Y-96230000D03*
D12*
X243350000Y-96230000D03*
D11*
X249550000Y-96230000D03*
D12*
X256050000Y-96230000D03*
D13*
X161920000Y-131520000D03*
X155570000Y-134060000D03*
X180970000Y-131520000D03*
X174620000Y-134060000D03*
D14*
X133142500Y-82260000D03*
D15*
X136952500Y-82260000D03*
X140762500Y-82260000D03*
D13*
X200020000Y-150570000D03*
X193670000Y-153110000D03*
D10*
X230280000Y-126035534D03*
X242780000Y-126035534D03*
X230280000Y-131035534D03*
X242780000Y-131035534D03*
D13*
X200020000Y-112470000D03*
X193670000Y-115010000D03*
X219070000Y-150570000D03*
X212720000Y-153110000D03*
X180970000Y-112470000D03*
X174620000Y-115010000D03*
X161920000Y-112470000D03*
X155570000Y-115010000D03*
D10*
X261791068Y-126035534D03*
X274291068Y-126035534D03*
X261791068Y-131035534D03*
X274291068Y-131035534D03*
D13*
X219070000Y-131520000D03*
X212720000Y-134060000D03*
D16*
X174456729Y-94832925D03*
X174456729Y-92292925D03*
X174456729Y-89752925D03*
X174456729Y-87212925D03*
D13*
X200020000Y-131520000D03*
X193670000Y-134060000D03*
D17*
X123665199Y-124980000D03*
X123665199Y-126980000D03*
X123665199Y-128980000D03*
D18*
X123665199Y-130980000D03*
D11*
X262250000Y-96230000D03*
D12*
X268750000Y-96230000D03*
D13*
X161920000Y-150570000D03*
X155570000Y-153110000D03*
X219070000Y-112470000D03*
X212720000Y-115010000D03*
D10*
X246035534Y-141791068D03*
X258535534Y-141791068D03*
X246035534Y-146791068D03*
X258535534Y-146791068D03*
D13*
X180970000Y-150570000D03*
X174620000Y-153110000D03*
D19*
X163750000Y-76300000D03*
D20*
X163750000Y-73760000D03*
X166290000Y-76300000D03*
X166290000Y-73760000D03*
X168830000Y-76300000D03*
X168830000Y-73760000D03*
X171370000Y-76300000D03*
X171370000Y-73760000D03*
X173910000Y-76300000D03*
X173910000Y-73760000D03*
X176450000Y-76300000D03*
X176450000Y-73760000D03*
X178990000Y-76300000D03*
X178990000Y-73760000D03*
X181530000Y-76300000D03*
X181530000Y-73760000D03*
X184070000Y-76300000D03*
X184070000Y-73760000D03*
X186610000Y-76300000D03*
X186610000Y-73760000D03*
X189150000Y-76300000D03*
X189150000Y-73760000D03*
X191690000Y-76300000D03*
X191690000Y-73760000D03*
X194230000Y-76300000D03*
X194230000Y-73760000D03*
X196770000Y-76300000D03*
X196770000Y-73760000D03*
X199310000Y-76300000D03*
X199310000Y-73760000D03*
X201850000Y-76300000D03*
X201850000Y-73760000D03*
X204390000Y-76300000D03*
X204390000Y-73760000D03*
X206930000Y-76300000D03*
X206930000Y-73760000D03*
X209470000Y-76300000D03*
X209470000Y-73760000D03*
X212010000Y-76300000D03*
X212010000Y-73760000D03*
D21*
X144850000Y-114010000D03*
D15*
X142310000Y-114010000D03*
X139770000Y-114010000D03*
X137230000Y-114010000D03*
X134690000Y-114010000D03*
X132150000Y-114010000D03*
X129610000Y-114010000D03*
X127070000Y-114010000D03*
X127070000Y-106390000D03*
X129610000Y-106390000D03*
X132150000Y-106390000D03*
X134690000Y-106390000D03*
X137230000Y-106390000D03*
X139770000Y-106390000D03*
X142310000Y-106390000D03*
X144850000Y-106390000D03*
D22*
X208350000Y-129250000D03*
D13*
X208350000Y-136870000D03*
D23*
X141010000Y-87855199D03*
X141010000Y-90395199D03*
D16*
X141010000Y-99315199D03*
X141010000Y-101855199D03*
X274158309Y-78010000D03*
X274158309Y-71510000D03*
X269658309Y-78010000D03*
X269658309Y-71510000D03*
X119740000Y-71380641D03*
X119740000Y-77880641D03*
X124240000Y-71380641D03*
X124240000Y-77880641D03*
D24*
X224860000Y-157190000D03*
D13*
X232480000Y-157190000D03*
D22*
X208350000Y-110200000D03*
D13*
X208350000Y-117820000D03*
D22*
X151200000Y-129250000D03*
D13*
X151200000Y-136870000D03*
D25*
X271530000Y-163540000D03*
D15*
X263910000Y-163540000D03*
D22*
X189300000Y-110200000D03*
D13*
X189300000Y-117820000D03*
D22*
X208350000Y-148300000D03*
D13*
X208350000Y-155920000D03*
D21*
X147390000Y-83410000D03*
D15*
X147390000Y-81410000D03*
X165170000Y-92500000D03*
X165170000Y-90000000D03*
D26*
X133010000Y-165510000D03*
D27*
X133010000Y-169010000D03*
D22*
X151200000Y-148300000D03*
D13*
X151200000Y-155920000D03*
D28*
X119450000Y-107660000D03*
X119450000Y-112740000D03*
D24*
X224860000Y-144490000D03*
D13*
X232480000Y-144490000D03*
D26*
X148660000Y-88920000D03*
D27*
X148660000Y-92420000D03*
D22*
X170250000Y-110200000D03*
D13*
X170250000Y-117820000D03*
D15*
X149970000Y-103850000D03*
X152470000Y-103850000D03*
D24*
X236290000Y-89880000D03*
D13*
X243910000Y-89880000D03*
D24*
X257880000Y-73370000D03*
D13*
X265500000Y-73370000D03*
D22*
X151200000Y-110200000D03*
D13*
X151200000Y-117820000D03*
D15*
X268990000Y-168620000D03*
X266490000Y-168620000D03*
D29*
X260100000Y-158460000D03*
D30*
X260100000Y-161000000D03*
X260100000Y-163540000D03*
D22*
X189300000Y-129250000D03*
D13*
X189300000Y-136870000D03*
D24*
X224860000Y-163540000D03*
D13*
X232480000Y-163540000D03*
D28*
X255340000Y-168620000D03*
X260420000Y-168620000D03*
X121990000Y-112740000D03*
X121990000Y-107660000D03*
D22*
X170250000Y-129250000D03*
D13*
X170250000Y-136870000D03*
D22*
X189300000Y-148300000D03*
D13*
X189300000Y-155920000D03*
D24*
X248990000Y-89880000D03*
D13*
X256610000Y-89880000D03*
D31*
X136250000Y-73370000D03*
D13*
X128630000Y-73370000D03*
D15*
X119450000Y-129250000D03*
X119450000Y-126750000D03*
D24*
X261690000Y-89880000D03*
D13*
X269310000Y-89880000D03*
D24*
X224860000Y-138140000D03*
D13*
X232480000Y-138140000D03*
D22*
X170250000Y-148300000D03*
D13*
X170250000Y-155920000D03*
D19*
X266450000Y-158460000D03*
D20*
X268990000Y-158460000D03*
D16*
X122530000Y-155575269D03*
X122530000Y-153035269D03*
D23*
X122530000Y-150495269D03*
X122530000Y-147955269D03*
D16*
X122530000Y-145415269D03*
D32*
X125800000Y-107660000D02*
X127070000Y-106390000D01*
X165170000Y-92500000D02*
X171709654Y-92500000D01*
X260100000Y-168300000D02*
X260420000Y-168620000D01*
X174456729Y-89752925D02*
X175756729Y-88452925D01*
X149970000Y-96815199D02*
X141010000Y-87855199D01*
X118350000Y-128150000D02*
X118350000Y-111300000D01*
X149970000Y-103850000D02*
X149970000Y-96815199D01*
X123665199Y-130980000D02*
X121180000Y-130980000D01*
X175756729Y-85226729D02*
X173910000Y-83380000D01*
X158190000Y-72610000D02*
X167680000Y-72610000D01*
X260100000Y-163540000D02*
X260100000Y-168300000D01*
X122530000Y-147955269D02*
X122530000Y-150495269D01*
X131144365Y-159109634D02*
X122530000Y-150495269D01*
X118350000Y-111300000D02*
X121990000Y-107660000D01*
X175756729Y-88452925D02*
X175756729Y-85226729D01*
X212010000Y-78672233D02*
X212010000Y-76300000D01*
X119450000Y-144875269D02*
X119450000Y-129250000D01*
X173910000Y-83380000D02*
X173910000Y-76300000D01*
X171709654Y-92500000D02*
X174456729Y-89752925D01*
X248990000Y-152430000D02*
X248990000Y-115652233D01*
X260100000Y-163540000D02*
X248990000Y-152430000D01*
X133010000Y-169010000D02*
X131144365Y-167144365D01*
X119450000Y-129250000D02*
X118350000Y-128150000D01*
X122530000Y-147955269D02*
X119450000Y-144875269D01*
X248990000Y-115652233D02*
X212010000Y-78672233D01*
X128340000Y-107660000D02*
X138500000Y-107660000D01*
X142310000Y-103850000D02*
X149970000Y-103850000D01*
X139770000Y-106390000D02*
X142310000Y-103850000D01*
X147390000Y-83410000D02*
X158190000Y-72610000D01*
X141010000Y-87855199D02*
X142944801Y-87855199D01*
X142944801Y-87855199D02*
X147390000Y-83410000D01*
X266490000Y-168620000D02*
X260420000Y-168620000D01*
X121990000Y-107660000D02*
X125800000Y-107660000D01*
X131144365Y-167144365D02*
X131144365Y-159109634D01*
X167680000Y-72610000D02*
X168830000Y-73760000D01*
X127070000Y-106390000D02*
X128340000Y-107660000D01*
X121180000Y-130980000D02*
X119450000Y-129250000D01*
X138500000Y-107660000D02*
X139770000Y-106390000D01*
X144850000Y-106390000D02*
X147390000Y-106390000D01*
X123435199Y-126750000D02*
X123665199Y-126980000D01*
X165170000Y-88610000D02*
X163750000Y-87190000D01*
X165170000Y-90000000D02*
X165170000Y-88610000D01*
X163254315Y-90000000D02*
X165170000Y-90000000D01*
X152470000Y-100784315D02*
X163254315Y-90000000D01*
X147390000Y-106390000D02*
X149930000Y-106390000D01*
X142310000Y-106390000D02*
X144850000Y-106390000D01*
X129650000Y-116550000D02*
X139770000Y-116550000D01*
X119450000Y-126750000D02*
X123435199Y-126750000D01*
X141210000Y-115110000D02*
X141210000Y-112570000D01*
X171669654Y-90000000D02*
X174456729Y-87212925D01*
X165170000Y-90000000D02*
X171669654Y-90000000D01*
X152470000Y-103850000D02*
X152470000Y-100784315D01*
X149930000Y-106390000D02*
X152470000Y-103850000D01*
X139770000Y-116550000D02*
X141210000Y-115110000D01*
X119450000Y-126750000D02*
X129650000Y-116550000D01*
X163750000Y-87190000D02*
X163750000Y-76300000D01*
X141210000Y-112570000D02*
X147390000Y-106390000D01*
X271530000Y-166080000D02*
X268990000Y-168620000D01*
X268990000Y-158460000D02*
X271530000Y-161000000D01*
X246366346Y-109030000D02*
X247203301Y-109030000D01*
X212486346Y-75150000D02*
X246366346Y-109030000D01*
X247203301Y-109030000D02*
X268990000Y-130816699D01*
X271530000Y-163540000D02*
X271530000Y-166080000D01*
X268990000Y-130816699D02*
X268990000Y-158460000D01*
X271530000Y-161000000D02*
X271530000Y-163540000D01*
X166290000Y-73760000D02*
X167680000Y-75150000D01*
X167680000Y-75150000D02*
X212486346Y-75150000D01*
M02*
