G04 #@! TF.GenerationSoftware,KiCad,Pcbnew,10.0.1*
G04 #@! TF.CreationDate,2026-06-05T23:29:57+02:00*
G04 #@! TF.ProjectId,MiniPC,4d696e69-5043-42e6-9b69-6361645f7063,rev?*
G04 #@! TF.SameCoordinates,Original*
G04 #@! TF.FileFunction,Copper,L3,Inr*
G04 #@! TF.FilePolarity,Positive*
%FSLAX46Y46*%
G04 Gerber Fmt 4.6, Leading zero omitted, Abs format (unit mm)*
G04 Created by KiCad (PCBNEW 10.0.1) date 2026-06-05 23:29:57*
%MOMM*%
%LPD*%
G01*
G04 APERTURE LIST*
G04 Aperture macros list*
%AMRoundRect*
0 Rectangle with rounded corners*
0 $1 Rounding radius*
0 $2 $3 $4 $5 $6 $7 $8 $9 X,Y pos of 4 corners*
0 Add a 4 corners polygon primitive as box body*
4,1,4,$2,$3,$4,$5,$6,$7,$8,$9,$2,$3,0*
0 Add four circle primitives for the rounded corners*
1,1,$1+$1,$2,$3*
1,1,$1+$1,$4,$5*
1,1,$1+$1,$6,$7*
1,1,$1+$1,$8,$9*
0 Add four rect primitives between the rounded corners*
20,1,$1+$1,$2,$3,$4,$5,0*
20,1,$1+$1,$4,$5,$6,$7,0*
20,1,$1+$1,$6,$7,$8,$9,0*
20,1,$1+$1,$8,$9,$2,$3,0*%
G04 Aperture macros list end*
G04 #@! TA.AperFunction,ComponentPad*
%ADD10RoundRect,0.190500X-1.079500X-0.444500X1.079500X-0.444500X1.079500X0.444500X-1.079500X0.444500X0*%
G04 #@! TD*
G04 #@! TA.AperFunction,ComponentPad*
%ADD11C,2.200000*%
G04 #@! TD*
G04 #@! TA.AperFunction,ComponentPad*
%ADD12R,2.250000X2.250000*%
G04 #@! TD*
G04 #@! TA.AperFunction,ComponentPad*
%ADD13C,2.250000*%
G04 #@! TD*
G04 #@! TA.AperFunction,ComponentPad*
%ADD14C,2.000000*%
G04 #@! TD*
G04 #@! TA.AperFunction,ComponentPad*
%ADD15O,3.200000X1.900000*%
G04 #@! TD*
G04 #@! TA.AperFunction,ComponentPad*
%ADD16R,1.700000X1.700000*%
G04 #@! TD*
G04 #@! TA.AperFunction,ComponentPad*
%ADD17C,1.700000*%
G04 #@! TD*
G04 #@! TA.AperFunction,ComponentPad*
%ADD18RoundRect,0.249999X0.850001X-0.850001X0.850001X0.850001X-0.850001X0.850001X-0.850001X-0.850001X0*%
G04 #@! TD*
G04 #@! TA.AperFunction,ComponentPad*
%ADD19RoundRect,0.249999X-0.850001X-0.850001X0.850001X-0.850001X0.850001X0.850001X-0.850001X0.850001X0*%
G04 #@! TD*
G04 #@! TA.AperFunction,ComponentPad*
%ADD20C,1.600000*%
G04 #@! TD*
G04 #@! TA.AperFunction,ComponentPad*
%ADD21RoundRect,0.250000X-0.550000X0.550000X-0.550000X-0.550000X0.550000X-0.550000X0.550000X0.550000X0*%
G04 #@! TD*
G04 #@! TA.AperFunction,ComponentPad*
%ADD22RoundRect,0.249999X0.850001X0.850001X-0.850001X0.850001X-0.850001X-0.850001X0.850001X-0.850001X0*%
G04 #@! TD*
G04 APERTURE END LIST*
D10*
X210060000Y-123150000D03*
X210060000Y-121150000D03*
X210060000Y-119150000D03*
X210060000Y-117150000D03*
X210060000Y-115150000D03*
X210060000Y-113150000D03*
D11*
X244780000Y-133020000D03*
X238430000Y-135560000D03*
X262560000Y-97460000D03*
X256210000Y-100000000D03*
X262560000Y-133020000D03*
X256210000Y-135560000D03*
X262560000Y-79680000D03*
X256210000Y-82220000D03*
X244780000Y-97460000D03*
X238430000Y-100000000D03*
X244780000Y-115240000D03*
X238430000Y-117780000D03*
D12*
X322100000Y-87300000D03*
D13*
X328600000Y-87300000D03*
D11*
X262560000Y-115240000D03*
X256210000Y-117780000D03*
D12*
X296700000Y-87300000D03*
D13*
X303200000Y-87300000D03*
D11*
X280340000Y-115240000D03*
X273990000Y-117780000D03*
D12*
X309400000Y-87300000D03*
D13*
X315900000Y-87300000D03*
D14*
X169850000Y-77290000D03*
X169850000Y-70790000D03*
X174350000Y-77290000D03*
X174350000Y-70790000D03*
D15*
X290700000Y-115240000D03*
X303200000Y-115240000D03*
X290700000Y-120240000D03*
X303200000Y-120240000D03*
D14*
X334950000Y-70790000D03*
X334950000Y-77290000D03*
X330450000Y-70790000D03*
X330450000Y-77290000D03*
D11*
X280340000Y-79680000D03*
X273990000Y-82220000D03*
D15*
X305940000Y-130480000D03*
X318440000Y-130480000D03*
X305940000Y-135480000D03*
X318440000Y-135480000D03*
X321180000Y-115240000D03*
X333680000Y-115240000D03*
X321180000Y-120240000D03*
X333680000Y-120240000D03*
D11*
X280340000Y-133020000D03*
X273990000Y-135560000D03*
D16*
X222160000Y-140600000D03*
D17*
X224700000Y-140600000D03*
X222160000Y-138060000D03*
X224700000Y-138060000D03*
X222160000Y-135520000D03*
X224700000Y-135520000D03*
X222160000Y-132980000D03*
X224700000Y-132980000D03*
X222160000Y-130440000D03*
X224700000Y-130440000D03*
X222160000Y-127900000D03*
X224700000Y-127900000D03*
X222160000Y-125360000D03*
X224700000Y-125360000D03*
X222160000Y-122820000D03*
X224700000Y-122820000D03*
X222160000Y-120280000D03*
X224700000Y-120280000D03*
X222160000Y-117740000D03*
X224700000Y-117740000D03*
X222160000Y-115200000D03*
X224700000Y-115200000D03*
X222160000Y-112660000D03*
X224700000Y-112660000D03*
X222160000Y-110120000D03*
X224700000Y-110120000D03*
X222160000Y-107580000D03*
X224700000Y-107580000D03*
X222160000Y-105040000D03*
X224700000Y-105040000D03*
X222160000Y-102500000D03*
X224700000Y-102500000D03*
X222160000Y-99960000D03*
X224700000Y-99960000D03*
X222160000Y-97420000D03*
X224700000Y-97420000D03*
X222160000Y-94880000D03*
X224700000Y-94880000D03*
X222160000Y-92340000D03*
X224700000Y-92340000D03*
D14*
X183020000Y-101270000D03*
X183020000Y-98730000D03*
X183020000Y-96190000D03*
X183020000Y-93650000D03*
D11*
X280340000Y-97460000D03*
X273990000Y-100000000D03*
D15*
X305940000Y-100000000D03*
X318440000Y-100000000D03*
X305940000Y-105000000D03*
X318440000Y-105000000D03*
D11*
X244780000Y-79680000D03*
X238430000Y-82220000D03*
D18*
X252400000Y-108890000D03*
D11*
X252400000Y-101270000D03*
D19*
X308280000Y-115240000D03*
D11*
X315900000Y-115240000D03*
D18*
X326060000Y-136830000D03*
D11*
X326060000Y-129210000D03*
D18*
X234620000Y-108890000D03*
D11*
X234620000Y-101270000D03*
D18*
X252400000Y-91110000D03*
D11*
X252400000Y-83490000D03*
D19*
X308280000Y-82220000D03*
D11*
X315900000Y-82220000D03*
D18*
X252400000Y-144450000D03*
D11*
X252400000Y-136830000D03*
D20*
X211800000Y-140640000D03*
X214300000Y-140640000D03*
D21*
X188900000Y-133020000D03*
D20*
X191440000Y-133020000D03*
X193980000Y-133020000D03*
X196520000Y-133020000D03*
X199060000Y-133020000D03*
X201600000Y-133020000D03*
X204140000Y-133020000D03*
X206680000Y-133020000D03*
X206680000Y-140640000D03*
X204140000Y-140640000D03*
X201600000Y-140640000D03*
X199060000Y-140640000D03*
X196520000Y-140640000D03*
X193980000Y-140640000D03*
X191440000Y-140640000D03*
X188900000Y-140640000D03*
X214300000Y-115440000D03*
X214300000Y-117940000D03*
D18*
X234620000Y-91110000D03*
D11*
X234620000Y-83490000D03*
D18*
X252400000Y-126670000D03*
D11*
X252400000Y-119050000D03*
D18*
X270180000Y-91110000D03*
D11*
X270180000Y-83490000D03*
D18*
X270180000Y-144450000D03*
D11*
X270180000Y-136830000D03*
D18*
X270180000Y-108890000D03*
D11*
X270180000Y-101270000D03*
D19*
X295580000Y-82220000D03*
D11*
X303200000Y-82220000D03*
D18*
X295580000Y-136830000D03*
D11*
X295580000Y-129210000D03*
D18*
X229540000Y-83490000D03*
D11*
X229540000Y-75870000D03*
D22*
X314630000Y-145720000D03*
D11*
X307010000Y-145720000D03*
D18*
X270180000Y-126670000D03*
D11*
X270180000Y-119050000D03*
D18*
X234620000Y-144450000D03*
D11*
X234620000Y-136830000D03*
D18*
X234620000Y-126670000D03*
D11*
X234620000Y-119050000D03*
D18*
X290500000Y-83490000D03*
D11*
X290500000Y-75870000D03*
D19*
X320980000Y-82220000D03*
D11*
X328600000Y-82220000D03*
D20*
X188900000Y-107580000D03*
X188900000Y-105080000D03*
M02*
