G04 #@! TF.GenerationSoftware,KiCad,Pcbnew,10.0.1*
G04 #@! TF.CreationDate,2026-05-29T00:18:22+02:00*
G04 #@! TF.ProjectId,MiniPC,4d696e69-5043-42e6-9b69-6361645f7063,rev?*
G04 #@! TF.SameCoordinates,Original*
G04 #@! TF.FileFunction,Other,User*
%FSLAX46Y46*%
G04 Gerber Fmt 4.6, Leading zero omitted, Abs format (unit mm)*
G04 Created by KiCad (PCBNEW 10.0.1) date 2026-05-29 00:18:22*
%MOMM*%
%LPD*%
G01*
G04 APERTURE LIST*
%ADD10C,0.050000*%
G04 APERTURE END LIST*
D10*
X161980000Y-71990000D02*
X161980000Y-78070000D01*
X161980000Y-78070000D02*
X213780000Y-78070000D01*
X213780000Y-71990000D02*
X161980000Y-71990000D01*
X213780000Y-78070000D02*
X213780000Y-71990000D01*
X125550000Y-105340000D02*
X146370000Y-105340000D01*
X146370000Y-115070000D01*
X125550000Y-115070000D01*
X125550000Y-105340000D01*
X206750000Y-127900000D02*
X209950000Y-127900000D01*
X209950000Y-138220000D01*
X206750000Y-138220000D01*
X206750000Y-127900000D01*
X268158309Y-70010000D02*
X268408309Y-70010000D01*
X268158309Y-70260000D02*
X268158309Y-70010000D01*
X268158309Y-70260000D02*
X268158309Y-79260000D01*
X268158309Y-79510000D02*
X268158309Y-79260000D01*
X268408309Y-79510000D02*
X268158309Y-79510000D01*
X268408309Y-79510000D02*
X275408309Y-79510000D01*
X275408309Y-70010000D02*
X268408309Y-70010000D01*
X275408309Y-79510000D02*
X275658309Y-79510000D01*
X275658309Y-70010000D02*
X275408309Y-70010000D01*
X275658309Y-70260000D02*
X275658309Y-70010000D01*
X275658309Y-79260000D02*
X275658309Y-70260000D01*
X275658309Y-79510000D02*
X275658309Y-79260000D01*
X118240000Y-69880641D02*
X118240000Y-70130641D01*
X118240000Y-70130641D02*
X118240000Y-79130641D01*
X118240000Y-79130641D02*
X118240000Y-79380641D01*
X118240000Y-79380641D02*
X118490000Y-79380641D01*
X118490000Y-69880641D02*
X118240000Y-69880641D01*
X118490000Y-79380641D02*
X125490000Y-79380641D01*
X125490000Y-69880641D02*
X118490000Y-69880641D01*
X125490000Y-69880641D02*
X125740000Y-69880641D01*
X125740000Y-69880641D02*
X125740000Y-70130641D01*
X125740000Y-79130641D02*
X125740000Y-70130641D01*
X125740000Y-79130641D02*
X125740000Y-79380641D01*
X125740000Y-79380641D02*
X125490000Y-79380641D01*
X223510000Y-155590000D02*
X233830000Y-155590000D01*
X233830000Y-158790000D01*
X223510000Y-158790000D01*
X223510000Y-155590000D01*
X206750000Y-108850000D02*
X209950000Y-108850000D01*
X209950000Y-119170000D01*
X206750000Y-119170000D01*
X206750000Y-108850000D01*
X149600000Y-127900000D02*
X152800000Y-127900000D01*
X152800000Y-138220000D01*
X149600000Y-138220000D01*
X149600000Y-127900000D01*
X262860000Y-162290000D02*
X272580000Y-162290000D01*
X272580000Y-164790000D01*
X262860000Y-164790000D01*
X262860000Y-162290000D01*
X187700000Y-108850000D02*
X190900000Y-108850000D01*
X190900000Y-119170000D01*
X187700000Y-119170000D01*
X187700000Y-108850000D01*
X206750000Y-146950000D02*
X209950000Y-146950000D01*
X209950000Y-157270000D01*
X206750000Y-157270000D01*
X206750000Y-146950000D01*
X150140000Y-82410000D02*
G75*
G02*
X144640000Y-82410000I-2750000J0D01*
G01*
X144640000Y-82410000D02*
G75*
G02*
X150140000Y-82410000I2750000J0D01*
G01*
X164120000Y-88950000D02*
X166220000Y-88950000D01*
X166220000Y-93550000D01*
X164120000Y-93550000D01*
X164120000Y-88950000D01*
X129410000Y-163260000D02*
X138010000Y-163260000D01*
X138010000Y-171260000D01*
X129410000Y-171260000D01*
X129410000Y-163260000D01*
X149600000Y-146950000D02*
X152800000Y-146950000D01*
X152800000Y-157270000D01*
X149600000Y-157270000D01*
X149600000Y-146950000D01*
X118400000Y-106710000D02*
X120500000Y-106710000D01*
X120500000Y-113690000D01*
X118400000Y-113690000D01*
X118400000Y-106710000D01*
X223510000Y-142890000D02*
X233830000Y-142890000D01*
X233830000Y-146090000D01*
X223510000Y-146090000D01*
X223510000Y-142890000D01*
X145060000Y-86670000D02*
X153660000Y-86670000D01*
X153660000Y-94670000D01*
X145060000Y-94670000D01*
X145060000Y-86670000D01*
X168650000Y-108850000D02*
X171850000Y-108850000D01*
X171850000Y-119170000D01*
X168650000Y-119170000D01*
X168650000Y-108850000D01*
X148920000Y-102800000D02*
X153520000Y-102800000D01*
X153520000Y-104900000D01*
X148920000Y-104900000D01*
X148920000Y-102800000D01*
X234940000Y-88280000D02*
X245260000Y-88280000D01*
X245260000Y-91480000D01*
X234940000Y-91480000D01*
X234940000Y-88280000D01*
X256530000Y-71770000D02*
X266850000Y-71770000D01*
X266850000Y-74970000D01*
X256530000Y-74970000D01*
X256530000Y-71770000D01*
X149600000Y-108850000D02*
X152800000Y-108850000D01*
X152800000Y-119170000D01*
X149600000Y-119170000D01*
X149600000Y-108850000D01*
X265440000Y-167570000D02*
X270040000Y-167570000D01*
X270040000Y-169670000D01*
X265440000Y-169670000D01*
X265440000Y-167570000D01*
X256700000Y-155750000D02*
X261600000Y-155750000D01*
X261600000Y-166250000D01*
X256700000Y-166250000D01*
X256700000Y-155750000D01*
X187700000Y-127900000D02*
X190900000Y-127900000D01*
X190900000Y-138220000D01*
X187700000Y-138220000D01*
X187700000Y-127900000D01*
X223510000Y-161940000D02*
X233830000Y-161940000D01*
X233830000Y-165140000D01*
X223510000Y-165140000D01*
X223510000Y-161940000D01*
X254390000Y-167570000D02*
X261370000Y-167570000D01*
X261370000Y-169670000D01*
X254390000Y-169670000D01*
X254390000Y-167570000D01*
X120940000Y-106710000D02*
X123040000Y-106710000D01*
X123040000Y-113690000D01*
X120940000Y-113690000D01*
X120940000Y-106710000D01*
X168650000Y-127900000D02*
X171850000Y-127900000D01*
X171850000Y-138220000D01*
X168650000Y-138220000D01*
X168650000Y-127900000D01*
X187700000Y-146950000D02*
X190900000Y-146950000D01*
X190900000Y-157270000D01*
X187700000Y-157270000D01*
X187700000Y-146950000D01*
X247640000Y-88280000D02*
X257960000Y-88280000D01*
X257960000Y-91480000D01*
X247640000Y-91480000D01*
X247640000Y-88280000D01*
X127280000Y-71770000D02*
X137600000Y-71770000D01*
X137600000Y-74970000D01*
X127280000Y-74970000D01*
X127280000Y-71770000D01*
X118400000Y-125700000D02*
X120500000Y-125700000D01*
X120500000Y-130300000D01*
X118400000Y-130300000D01*
X118400000Y-125700000D01*
X260340000Y-88280000D02*
X270660000Y-88280000D01*
X270660000Y-91480000D01*
X260340000Y-91480000D01*
X260340000Y-88280000D01*
X223510000Y-136540000D02*
X233830000Y-136540000D01*
X233830000Y-139740000D01*
X223510000Y-139740000D01*
X223510000Y-136540000D01*
X168650000Y-146950000D02*
X171850000Y-146950000D01*
X171850000Y-157270000D01*
X168650000Y-157270000D01*
X168650000Y-146950000D01*
X264680000Y-156690000D02*
X264680000Y-160230000D01*
X264680000Y-160230000D02*
X270760000Y-160230000D01*
X270760000Y-156690000D02*
X264680000Y-156690000D01*
X270760000Y-160230000D02*
X270760000Y-156690000D01*
M02*
