M48
INCH
T1C0.0787
T2C0.0866
T3C0.0984
T4C0.1063
T5C0.1575
%
G90
G05
T1
X4.8291Y-5.3929
X4.8606Y-5.5614
X4.8606Y-6.2902
X5.6169Y-5.3539
T2
X6.6717Y-3.4268
X6.6717Y-3.7409
X8.1276Y-3.4264
X8.1276Y-3.7406
T3
X6.9165Y-3.1442
X6.9169Y-4.1857
X7.9579Y-3.1439
X7.9583Y-4.1853
T4
X6.2551Y-2.9539
X6.2551Y-3.8594
X8.5386Y-2.9539
X8.5386Y-3.8594
T5
X6.2748Y-4.628
X6.2748Y-5.378
X6.2748Y-6.128
X7.0248Y-4.628
X7.0248Y-5.378
X7.0248Y-6.128
X7.7748Y-4.628
X7.7748Y-5.378
X7.7748Y-6.128
X8.5248Y-4.628
X8.5248Y-5.378
X8.5248Y-6.128
M30
