G04 #@! TF.GenerationSoftware,KiCad,Pcbnew,10.0.1*
G04 #@! TF.CreationDate,2026-06-05T23:29:57+02:00*
G04 #@! TF.ProjectId,MiniPC,4d696e69-5043-42e6-9b69-6361645f7063,rev?*
G04 #@! TF.SameCoordinates,Original*
G04 #@! TF.FileFunction,Copper,L1,Top*
G04 #@! TF.FilePolarity,Positive*
%FSLAX46Y46*%
G04 Gerber Fmt 4.6, Leading zero omitted, Abs format (unit mm)*
G04 Created by KiCad (PCBNEW 10.0.1) date 2026-06-05 23:29:57*
%MOMM*%
%LPD*%
G01*
G04 APERTURE LIST*
G04 Aperture macros list*
%AMRoundRect*
0 Rectangle with rounded corners*
0 $1 Rounding radius*
0 $2 $3 $4 $5 $6 $7 $8 $9 X,Y pos of 4 corners*
0 Add a 4 corners polygon primitive as box body*
4,1,4,$2,$3,$4,$5,$6,$7,$8,$9,$2,$3,0*
0 Add four circle primitives for the rounded corners*
1,1,$1+$1,$2,$3*
1,1,$1+$1,$4,$5*
1,1,$1+$1,$6,$7*
1,1,$1+$1,$8,$9*
0 Add four rect primitives between the rounded corners*
20,1,$1+$1,$2,$3,$4,$5,0*
20,1,$1+$1,$4,$5,$6,$7,0*
20,1,$1+$1,$6,$7,$8,$9,0*
20,1,$1+$1,$8,$9,$2,$3,0*%
G04 Aperture macros list end*
G04 #@! TA.AperFunction,ComponentPad*
%ADD10RoundRect,0.190500X-1.079500X-0.444500X1.079500X-0.444500X1.079500X0.444500X-1.079500X0.444500X0*%
G04 #@! TD*
G04 #@! TA.AperFunction,ComponentPad*
%ADD11C,2.200000*%
G04 #@! TD*
G04 #@! TA.AperFunction,ComponentPad*
%ADD12R,2.250000X2.250000*%
G04 #@! TD*
G04 #@! TA.AperFunction,ComponentPad*
%ADD13C,2.250000*%
G04 #@! TD*
G04 #@! TA.AperFunction,ComponentPad*
%ADD14C,2.000000*%
G04 #@! TD*
G04 #@! TA.AperFunction,ComponentPad*
%ADD15O,3.200000X1.900000*%
G04 #@! TD*
G04 #@! TA.AperFunction,ComponentPad*
%ADD16R,1.700000X1.700000*%
G04 #@! TD*
G04 #@! TA.AperFunction,ComponentPad*
%ADD17C,1.700000*%
G04 #@! TD*
G04 #@! TA.AperFunction,ComponentPad*
%ADD18RoundRect,0.249999X0.850001X-0.850001X0.850001X0.850001X-0.850001X0.850001X-0.850001X-0.850001X0*%
G04 #@! TD*
G04 #@! TA.AperFunction,ComponentPad*
%ADD19RoundRect,0.249999X-0.850001X-0.850001X0.850001X-0.850001X0.850001X0.850001X-0.850001X0.850001X0*%
G04 #@! TD*
G04 #@! TA.AperFunction,ComponentPad*
%ADD20C,1.600000*%
G04 #@! TD*
G04 #@! TA.AperFunction,ComponentPad*
%ADD21RoundRect,0.250000X-0.550000X0.550000X-0.550000X-0.550000X0.550000X-0.550000X0.550000X0.550000X0*%
G04 #@! TD*
G04 #@! TA.AperFunction,ComponentPad*
%ADD22RoundRect,0.249999X0.850001X0.850001X-0.850001X0.850001X-0.850001X-0.850001X0.850001X-0.850001X0*%
G04 #@! TD*
G04 #@! TA.AperFunction,Conductor*
%ADD23C,0.200000*%
G04 #@! TD*
G04 APERTURE END LIST*
D10*
X210060000Y-123150000D03*
X210060000Y-121150000D03*
X210060000Y-119150000D03*
X210060000Y-117150000D03*
X210060000Y-115150000D03*
X210060000Y-113150000D03*
D11*
X244780000Y-133020000D03*
X238430000Y-135560000D03*
X262560000Y-97460000D03*
X256210000Y-100000000D03*
X262560000Y-133020000D03*
X256210000Y-135560000D03*
X262560000Y-79680000D03*
X256210000Y-82220000D03*
X244780000Y-97460000D03*
X238430000Y-100000000D03*
X244780000Y-115240000D03*
X238430000Y-117780000D03*
D12*
X322100000Y-87300000D03*
D13*
X328600000Y-87300000D03*
D11*
X262560000Y-115240000D03*
X256210000Y-117780000D03*
D12*
X296700000Y-87300000D03*
D13*
X303200000Y-87300000D03*
D11*
X280340000Y-115240000D03*
X273990000Y-117780000D03*
D12*
X309400000Y-87300000D03*
D13*
X315900000Y-87300000D03*
D14*
X169850000Y-77290000D03*
X169850000Y-70790000D03*
X174350000Y-77290000D03*
X174350000Y-70790000D03*
D15*
X290700000Y-115240000D03*
X303200000Y-115240000D03*
X290700000Y-120240000D03*
X303200000Y-120240000D03*
D14*
X334950000Y-70790000D03*
X334950000Y-77290000D03*
X330450000Y-70790000D03*
X330450000Y-77290000D03*
D11*
X280340000Y-79680000D03*
X273990000Y-82220000D03*
D15*
X305940000Y-130480000D03*
X318440000Y-130480000D03*
X305940000Y-135480000D03*
X318440000Y-135480000D03*
X321180000Y-115240000D03*
X333680000Y-115240000D03*
X321180000Y-120240000D03*
X333680000Y-120240000D03*
D11*
X280340000Y-133020000D03*
X273990000Y-135560000D03*
D16*
X222160000Y-140600000D03*
D17*
X224700000Y-140600000D03*
X222160000Y-138060000D03*
X224700000Y-138060000D03*
X222160000Y-135520000D03*
X224700000Y-135520000D03*
X222160000Y-132980000D03*
X224700000Y-132980000D03*
X222160000Y-130440000D03*
X224700000Y-130440000D03*
X222160000Y-127900000D03*
X224700000Y-127900000D03*
X222160000Y-125360000D03*
X224700000Y-125360000D03*
X222160000Y-122820000D03*
X224700000Y-122820000D03*
X222160000Y-120280000D03*
X224700000Y-120280000D03*
X222160000Y-117740000D03*
X224700000Y-117740000D03*
X222160000Y-115200000D03*
X224700000Y-115200000D03*
X222160000Y-112660000D03*
X224700000Y-112660000D03*
X222160000Y-110120000D03*
X224700000Y-110120000D03*
X222160000Y-107580000D03*
X224700000Y-107580000D03*
X222160000Y-105040000D03*
X224700000Y-105040000D03*
X222160000Y-102500000D03*
X224700000Y-102500000D03*
X222160000Y-99960000D03*
X224700000Y-99960000D03*
X222160000Y-97420000D03*
X224700000Y-97420000D03*
X222160000Y-94880000D03*
X224700000Y-94880000D03*
X222160000Y-92340000D03*
X224700000Y-92340000D03*
D14*
X183020000Y-101270000D03*
X183020000Y-98730000D03*
X183020000Y-96190000D03*
X183020000Y-93650000D03*
D11*
X280340000Y-97460000D03*
X273990000Y-100000000D03*
D15*
X305940000Y-100000000D03*
X318440000Y-100000000D03*
X305940000Y-105000000D03*
X318440000Y-105000000D03*
D11*
X244780000Y-79680000D03*
X238430000Y-82220000D03*
D18*
X252400000Y-108890000D03*
D11*
X252400000Y-101270000D03*
D19*
X308280000Y-115240000D03*
D11*
X315900000Y-115240000D03*
D18*
X326060000Y-136830000D03*
D11*
X326060000Y-129210000D03*
D18*
X234620000Y-108890000D03*
D11*
X234620000Y-101270000D03*
D18*
X252400000Y-91110000D03*
D11*
X252400000Y-83490000D03*
D19*
X308280000Y-82220000D03*
D11*
X315900000Y-82220000D03*
D18*
X252400000Y-144450000D03*
D11*
X252400000Y-136830000D03*
D20*
X211800000Y-140640000D03*
X214300000Y-140640000D03*
D21*
X188900000Y-133020000D03*
D20*
X191440000Y-133020000D03*
X193980000Y-133020000D03*
X196520000Y-133020000D03*
X199060000Y-133020000D03*
X201600000Y-133020000D03*
X204140000Y-133020000D03*
X206680000Y-133020000D03*
X206680000Y-140640000D03*
X204140000Y-140640000D03*
X201600000Y-140640000D03*
X199060000Y-140640000D03*
X196520000Y-140640000D03*
X193980000Y-140640000D03*
X191440000Y-140640000D03*
X188900000Y-140640000D03*
X214300000Y-115440000D03*
X214300000Y-117940000D03*
D18*
X234620000Y-91110000D03*
D11*
X234620000Y-83490000D03*
D18*
X252400000Y-126670000D03*
D11*
X252400000Y-119050000D03*
D18*
X270180000Y-91110000D03*
D11*
X270180000Y-83490000D03*
D18*
X270180000Y-144450000D03*
D11*
X270180000Y-136830000D03*
D18*
X270180000Y-108890000D03*
D11*
X270180000Y-101270000D03*
D19*
X295580000Y-82220000D03*
D11*
X303200000Y-82220000D03*
D18*
X295580000Y-136830000D03*
D11*
X295580000Y-129210000D03*
D18*
X229540000Y-83490000D03*
D11*
X229540000Y-75870000D03*
D22*
X314630000Y-145720000D03*
D11*
X307010000Y-145720000D03*
D18*
X270180000Y-126670000D03*
D11*
X270180000Y-119050000D03*
D18*
X234620000Y-144450000D03*
D11*
X234620000Y-136830000D03*
D18*
X234620000Y-126670000D03*
D11*
X234620000Y-119050000D03*
D18*
X290500000Y-83490000D03*
D11*
X290500000Y-75870000D03*
D19*
X320980000Y-82220000D03*
D11*
X328600000Y-82220000D03*
D20*
X188900000Y-107580000D03*
X188900000Y-105080000D03*
D23*
X223423654Y-101223654D02*
X222160000Y-99960000D01*
X225050000Y-101223654D02*
X223423654Y-101223654D01*
X225850000Y-102850000D02*
X225850000Y-102023654D01*
X233290000Y-110290000D02*
X225850000Y-102850000D01*
X285750000Y-110290000D02*
X233290000Y-110290000D01*
X290700000Y-115240000D02*
X285750000Y-110290000D01*
X225850000Y-102023654D02*
X225050000Y-101223654D01*
X223310000Y-98570000D02*
X222160000Y-97420000D01*
X238979899Y-98570000D02*
X223310000Y-98570000D01*
X239269899Y-98860000D02*
X238979899Y-98570000D01*
X245359899Y-98860000D02*
X239269899Y-98860000D01*
X246109949Y-98109950D02*
X245359899Y-98860000D01*
X256299849Y-98109950D02*
X246109949Y-98109950D01*
X257049899Y-98860000D02*
X256299849Y-98109950D01*
X263139899Y-98860000D02*
X257049899Y-98860000D01*
X263399899Y-98600000D02*
X263139899Y-98860000D01*
X274569899Y-98600000D02*
X263399899Y-98600000D01*
X275969899Y-100000000D02*
X274569899Y-98600000D01*
X305940000Y-100000000D02*
X275969899Y-100000000D01*
X307975000Y-114935000D02*
X308280000Y-115240000D01*
X307975000Y-82525000D02*
X307975000Y-114935000D01*
X308280000Y-82220000D02*
X307975000Y-82525000D01*
X223310000Y-93730000D02*
X222160000Y-94880000D01*
X290270000Y-93730000D02*
X223310000Y-93730000D01*
X296700000Y-87300000D02*
X290270000Y-93730000D01*
X290165000Y-91110000D02*
X270180000Y-91110000D01*
X316000000Y-79000000D02*
X302275000Y-79000000D01*
X319220000Y-82220000D02*
X316000000Y-79000000D01*
X302275000Y-79000000D02*
X290165000Y-91110000D01*
X320980000Y-82220000D02*
X319220000Y-82220000D01*
X236030000Y-77000000D02*
X229540000Y-83490000D01*
X284010000Y-77000000D02*
X236030000Y-77000000D01*
X290500000Y-83490000D02*
X284010000Y-77000000D01*
X291920000Y-77290000D02*
X330450000Y-77290000D01*
X290500000Y-75870000D02*
X291920000Y-77290000D01*
X321180000Y-102740000D02*
X318440000Y-100000000D01*
X321180000Y-115240000D02*
X321180000Y-102740000D01*
X305940000Y-130480000D02*
X305940000Y-117980000D01*
X305940000Y-117980000D02*
X303200000Y-115240000D01*
X244780000Y-133020000D02*
X280340000Y-133020000D01*
X244780000Y-115240000D02*
X280340000Y-115240000D01*
X244780000Y-97460000D02*
X280340000Y-97460000D01*
X244780000Y-79680000D02*
X280340000Y-79680000D01*
X192520000Y-99960000D02*
X222160000Y-99960000D01*
X169850000Y-77290000D02*
X192520000Y-99960000D01*
X211800000Y-132980000D02*
X222160000Y-132980000D01*
X204140000Y-140640000D02*
X211800000Y-132980000D01*
X209000000Y-133240000D02*
X209000000Y-130900000D01*
X209000000Y-130900000D02*
X222160000Y-117740000D01*
X201600000Y-140640000D02*
X209000000Y-133240000D01*
X205580000Y-131780000D02*
X222160000Y-115200000D01*
X205580000Y-134120000D02*
X205580000Y-131780000D01*
X199060000Y-140640000D02*
X205580000Y-134120000D01*
X202700000Y-132732950D02*
X202700000Y-134460000D01*
X222160000Y-113272950D02*
X202700000Y-132732950D01*
X222160000Y-112660000D02*
X222160000Y-113272950D01*
X202700000Y-134460000D02*
X196520000Y-140640000D01*
M02*
