G04 #@! TF.GenerationSoftware,KiCad,Pcbnew,10.0.1*
G04 #@! TF.CreationDate,2026-06-05T23:29:57+02:00*
G04 #@! TF.ProjectId,MiniPC,4d696e69-5043-42e6-9b69-6361645f7063,rev?*
G04 #@! TF.SameCoordinates,Original*
G04 #@! TF.FileFunction,Other,User*
%FSLAX46Y46*%
G04 Gerber Fmt 4.6, Leading zero omitted, Abs format (unit mm)*
G04 Created by KiCad (PCBNEW 10.0.1) date 2026-06-05 23:29:57*
%MOMM*%
%LPD*%
G01*
G04 APERTURE LIST*
%ADD10C,0.050000*%
G04 APERTURE END LIST*
D10*
X235640000Y-131500000D02*
X248840000Y-131500000D01*
X235640000Y-144700000D02*
X235640000Y-131500000D01*
X248840000Y-131500000D02*
X248840000Y-144700000D01*
X248840000Y-144700000D02*
X235640000Y-144700000D01*
X253420000Y-95940000D02*
X266620000Y-95940000D01*
X253420000Y-109140000D02*
X253420000Y-95940000D01*
X266620000Y-95940000D02*
X266620000Y-109140000D01*
X266620000Y-109140000D02*
X253420000Y-109140000D01*
X253420000Y-131500000D02*
X266620000Y-131500000D01*
X253420000Y-144700000D02*
X253420000Y-131500000D01*
X266620000Y-131500000D02*
X266620000Y-144700000D01*
X266620000Y-144700000D02*
X253420000Y-144700000D01*
X180270000Y-101460000D02*
G75*
G02*
X175770000Y-101460000I-2250000J0D01*
G01*
X175770000Y-101460000D02*
G75*
G02*
X180270000Y-101460000I2250000J0D01*
G01*
X253420000Y-78160000D02*
X266620000Y-78160000D01*
X253420000Y-91360000D02*
X253420000Y-78160000D01*
X266620000Y-78160000D02*
X266620000Y-91360000D01*
X266620000Y-91360000D02*
X253420000Y-91360000D01*
X235640000Y-95940000D02*
X248840000Y-95940000D01*
X235640000Y-109140000D02*
X235640000Y-95940000D01*
X248840000Y-95940000D02*
X248840000Y-109140000D01*
X248840000Y-109140000D02*
X235640000Y-109140000D01*
X235640000Y-113720000D02*
X248840000Y-113720000D01*
X235640000Y-126920000D02*
X235640000Y-113720000D01*
X248840000Y-113720000D02*
X248840000Y-126920000D01*
X248840000Y-126920000D02*
X235640000Y-126920000D01*
X320720000Y-85920000D02*
X322100000Y-85920000D01*
X320720000Y-88680000D02*
X320720000Y-85920000D01*
X320720000Y-88680000D02*
X322100000Y-88680000D01*
X322100000Y-85300000D02*
X322100000Y-85920000D01*
X322100000Y-85300000D02*
X328600000Y-85300000D01*
X322100000Y-88680000D02*
X322100000Y-89300000D01*
X328600000Y-85300000D02*
X328600000Y-85920000D01*
X328600000Y-88680000D02*
X328600000Y-89300000D01*
X328600000Y-89300000D02*
X322100000Y-89300000D01*
X328600000Y-85920000D02*
G75*
G02*
X328600000Y-88680000I0J-1380000D01*
G01*
X180268271Y-93460000D02*
G75*
G02*
X175768271Y-93460000I-2250000J0D01*
G01*
X175768271Y-93460000D02*
G75*
G02*
X180268271Y-93460000I2250000J0D01*
G01*
X217270000Y-101460000D02*
G75*
G02*
X212770000Y-101460000I-2250000J0D01*
G01*
X212770000Y-101460000D02*
G75*
G02*
X217270000Y-101460000I2250000J0D01*
G01*
X253420000Y-113720000D02*
X266620000Y-113720000D01*
X253420000Y-126920000D02*
X253420000Y-113720000D01*
X266620000Y-113720000D02*
X266620000Y-126920000D01*
X266620000Y-126920000D02*
X253420000Y-126920000D01*
X295320000Y-85920000D02*
X296700000Y-85920000D01*
X295320000Y-88680000D02*
X295320000Y-85920000D01*
X295320000Y-88680000D02*
X296700000Y-88680000D01*
X296700000Y-85300000D02*
X296700000Y-85920000D01*
X296700000Y-85300000D02*
X303200000Y-85300000D01*
X296700000Y-88680000D02*
X296700000Y-89300000D01*
X303200000Y-85300000D02*
X303200000Y-85920000D01*
X303200000Y-88680000D02*
X303200000Y-89300000D01*
X303200000Y-89300000D02*
X296700000Y-89300000D01*
X303200000Y-85920000D02*
G75*
G02*
X303200000Y-88680000I0J-1380000D01*
G01*
X217268271Y-93460000D02*
G75*
G02*
X212768271Y-93460000I-2250000J0D01*
G01*
X212768271Y-93460000D02*
G75*
G02*
X217268271Y-93460000I2250000J0D01*
G01*
X271200000Y-113720000D02*
X284400000Y-113720000D01*
X271200000Y-126920000D02*
X271200000Y-113720000D01*
X284400000Y-113720000D02*
X284400000Y-126920000D01*
X284400000Y-126920000D02*
X271200000Y-126920000D01*
X308020000Y-85920000D02*
X309400000Y-85920000D01*
X308020000Y-88680000D02*
X308020000Y-85920000D01*
X308020000Y-88680000D02*
X309400000Y-88680000D01*
X309400000Y-85300000D02*
X309400000Y-85920000D01*
X309400000Y-85300000D02*
X315900000Y-85300000D01*
X309400000Y-88680000D02*
X309400000Y-89300000D01*
X315900000Y-85300000D02*
X315900000Y-85920000D01*
X315900000Y-88680000D02*
X315900000Y-89300000D01*
X315900000Y-89300000D02*
X309400000Y-89300000D01*
X315900000Y-85920000D02*
G75*
G02*
X315900000Y-88680000I0J-1380000D01*
G01*
X168350000Y-69290000D02*
X168600000Y-69290000D01*
X168350000Y-69540000D02*
X168350000Y-69290000D01*
X168350000Y-78540000D02*
X168350000Y-69540000D01*
X168350000Y-78790000D02*
X168350000Y-78540000D01*
X168600000Y-69290000D02*
X175600000Y-69290000D01*
X168600000Y-78790000D02*
X168350000Y-78790000D01*
X175600000Y-78790000D02*
X168600000Y-78790000D01*
X175600000Y-78790000D02*
X175850000Y-78790000D01*
X175850000Y-69290000D02*
X175600000Y-69290000D01*
X175850000Y-69540000D02*
X175850000Y-69290000D01*
X175850000Y-69540000D02*
X175850000Y-78540000D01*
X175850000Y-78790000D02*
X175850000Y-78540000D01*
X289200000Y-110490000D02*
X304700000Y-110490000D01*
X304700000Y-124990000D01*
X289200000Y-124990000D01*
X289200000Y-110490000D01*
X328950000Y-69290000D02*
X328950000Y-69540000D01*
X328950000Y-78540000D02*
X328950000Y-69540000D01*
X328950000Y-78540000D02*
X328950000Y-78790000D01*
X328950000Y-78790000D02*
X329200000Y-78790000D01*
X329200000Y-69290000D02*
X328950000Y-69290000D01*
X329200000Y-69290000D02*
X336200000Y-69290000D01*
X336200000Y-69290000D02*
X336450000Y-69290000D01*
X336200000Y-78790000D02*
X329200000Y-78790000D01*
X336450000Y-69290000D02*
X336450000Y-69540000D01*
X336450000Y-69540000D02*
X336450000Y-78540000D01*
X336450000Y-78540000D02*
X336450000Y-78790000D01*
X336450000Y-78790000D02*
X336200000Y-78790000D01*
X271200000Y-78160000D02*
X284400000Y-78160000D01*
X271200000Y-91360000D02*
X271200000Y-78160000D01*
X284400000Y-78160000D02*
X284400000Y-91360000D01*
X284400000Y-91360000D02*
X271200000Y-91360000D01*
X304440000Y-125730000D02*
X319940000Y-125730000D01*
X319940000Y-140230000D01*
X304440000Y-140230000D01*
X304440000Y-125730000D01*
X319680000Y-110490000D02*
X335180000Y-110490000D01*
X335180000Y-124990000D01*
X319680000Y-124990000D01*
X319680000Y-110490000D01*
X271200000Y-131500000D02*
X284400000Y-131500000D01*
X271200000Y-144700000D02*
X271200000Y-131500000D01*
X284400000Y-131500000D02*
X284400000Y-144700000D01*
X284400000Y-144700000D02*
X271200000Y-144700000D01*
X220390000Y-90570000D02*
X226470000Y-90570000D01*
X220390000Y-142370000D02*
X220390000Y-90570000D01*
X226470000Y-90570000D02*
X226470000Y-142370000D01*
X226470000Y-142370000D02*
X220390000Y-142370000D01*
X271200000Y-95940000D02*
X284400000Y-95940000D01*
X271200000Y-109140000D02*
X271200000Y-95940000D01*
X284400000Y-95940000D02*
X284400000Y-109140000D01*
X284400000Y-109140000D02*
X271200000Y-109140000D01*
X304440000Y-95250000D02*
X319940000Y-95250000D01*
X319940000Y-109750000D01*
X304440000Y-109750000D01*
X304440000Y-95250000D01*
X235640000Y-78160000D02*
X248840000Y-78160000D01*
X235640000Y-91360000D02*
X235640000Y-78160000D01*
X248840000Y-78160000D02*
X248840000Y-91360000D01*
X248840000Y-91360000D02*
X235640000Y-91360000D01*
M02*
