G04 #@! TF.GenerationSoftware,KiCad,Pcbnew,10.0.1*
G04 #@! TF.CreationDate,2026-05-29T00:18:22+02:00*
G04 #@! TF.ProjectId,MiniPC,4d696e69-5043-42e6-9b69-6361645f7063,rev?*
G04 #@! TF.SameCoordinates,Original*
G04 #@! TF.FileFunction,Legend,Top*
G04 #@! TF.FilePolarity,Positive*
%FSLAX46Y46*%
G04 Gerber Fmt 4.6, Leading zero omitted, Abs format (unit mm)*
G04 Created by KiCad (PCBNEW 10.0.1) date 2026-05-29 00:18:22*
%MOMM*%
%LPD*%
G01*
G04 APERTURE LIST*
%ADD10C,0.150000*%
%ADD11C,0.100000*%
%ADD12C,0.120000*%
G04 APERTURE END LIST*
D10*
X250056010Y-105277200D02*
X250198867Y-105324819D01*
X250198867Y-105324819D02*
X250436962Y-105324819D01*
X250436962Y-105324819D02*
X250532200Y-105277200D01*
X250532200Y-105277200D02*
X250579819Y-105229580D01*
X250579819Y-105229580D02*
X250627438Y-105134342D01*
X250627438Y-105134342D02*
X250627438Y-105039104D01*
X250627438Y-105039104D02*
X250579819Y-104943866D01*
X250579819Y-104943866D02*
X250532200Y-104896247D01*
X250532200Y-104896247D02*
X250436962Y-104848628D01*
X250436962Y-104848628D02*
X250246486Y-104801009D01*
X250246486Y-104801009D02*
X250151248Y-104753390D01*
X250151248Y-104753390D02*
X250103629Y-104705771D01*
X250103629Y-104705771D02*
X250056010Y-104610533D01*
X250056010Y-104610533D02*
X250056010Y-104515295D01*
X250056010Y-104515295D02*
X250103629Y-104420057D01*
X250103629Y-104420057D02*
X250151248Y-104372438D01*
X250151248Y-104372438D02*
X250246486Y-104324819D01*
X250246486Y-104324819D02*
X250484581Y-104324819D01*
X250484581Y-104324819D02*
X250627438Y-104372438D01*
X250960772Y-104324819D02*
X251198867Y-105324819D01*
X251198867Y-105324819D02*
X251389343Y-104610533D01*
X251389343Y-104610533D02*
X251579819Y-105324819D01*
X251579819Y-105324819D02*
X251817915Y-104324819D01*
X252722676Y-105324819D02*
X252151248Y-105324819D01*
X252436962Y-105324819D02*
X252436962Y-104324819D01*
X252436962Y-104324819D02*
X252341724Y-104467676D01*
X252341724Y-104467676D02*
X252246486Y-104562914D01*
X252246486Y-104562914D02*
X252151248Y-104610533D01*
X253579819Y-104658152D02*
X253579819Y-105324819D01*
X253341724Y-104277200D02*
X253103629Y-104991485D01*
X253103629Y-104991485D02*
X253722676Y-104991485D01*
X215546667Y-71834819D02*
X215546667Y-70834819D01*
X215546667Y-70834819D02*
X215880000Y-71549104D01*
X215880000Y-71549104D02*
X216213333Y-70834819D01*
X216213333Y-70834819D02*
X216213333Y-71834819D01*
X216689524Y-71834819D02*
X216689524Y-70834819D01*
X216689524Y-71311009D02*
X217260952Y-71311009D01*
X217260952Y-71834819D02*
X217260952Y-70834819D01*
X217689524Y-70930057D02*
X217737143Y-70882438D01*
X217737143Y-70882438D02*
X217832381Y-70834819D01*
X217832381Y-70834819D02*
X218070476Y-70834819D01*
X218070476Y-70834819D02*
X218165714Y-70882438D01*
X218165714Y-70882438D02*
X218213333Y-70930057D01*
X218213333Y-70930057D02*
X218260952Y-71025295D01*
X218260952Y-71025295D02*
X218260952Y-71120533D01*
X218260952Y-71120533D02*
X218213333Y-71263390D01*
X218213333Y-71263390D02*
X217641905Y-71834819D01*
X217641905Y-71834819D02*
X218260952Y-71834819D01*
X238460476Y-93937200D02*
X238603333Y-93984819D01*
X238603333Y-93984819D02*
X238841428Y-93984819D01*
X238841428Y-93984819D02*
X238936666Y-93937200D01*
X238936666Y-93937200D02*
X238984285Y-93889580D01*
X238984285Y-93889580D02*
X239031904Y-93794342D01*
X239031904Y-93794342D02*
X239031904Y-93699104D01*
X239031904Y-93699104D02*
X238984285Y-93603866D01*
X238984285Y-93603866D02*
X238936666Y-93556247D01*
X238936666Y-93556247D02*
X238841428Y-93508628D01*
X238841428Y-93508628D02*
X238650952Y-93461009D01*
X238650952Y-93461009D02*
X238555714Y-93413390D01*
X238555714Y-93413390D02*
X238508095Y-93365771D01*
X238508095Y-93365771D02*
X238460476Y-93270533D01*
X238460476Y-93270533D02*
X238460476Y-93175295D01*
X238460476Y-93175295D02*
X238508095Y-93080057D01*
X238508095Y-93080057D02*
X238555714Y-93032438D01*
X238555714Y-93032438D02*
X238650952Y-92984819D01*
X238650952Y-92984819D02*
X238889047Y-92984819D01*
X238889047Y-92984819D02*
X239031904Y-93032438D01*
X239365238Y-92984819D02*
X239603333Y-93984819D01*
X239603333Y-93984819D02*
X239793809Y-93270533D01*
X239793809Y-93270533D02*
X239984285Y-93984819D01*
X239984285Y-93984819D02*
X240222381Y-92984819D01*
X241127142Y-93984819D02*
X240555714Y-93984819D01*
X240841428Y-93984819D02*
X240841428Y-92984819D01*
X240841428Y-92984819D02*
X240746190Y-93127676D01*
X240746190Y-93127676D02*
X240650952Y-93222914D01*
X240650952Y-93222914D02*
X240555714Y-93270533D01*
X241984285Y-92984819D02*
X241793809Y-92984819D01*
X241793809Y-92984819D02*
X241698571Y-93032438D01*
X241698571Y-93032438D02*
X241650952Y-93080057D01*
X241650952Y-93080057D02*
X241555714Y-93222914D01*
X241555714Y-93222914D02*
X241508095Y-93413390D01*
X241508095Y-93413390D02*
X241508095Y-93794342D01*
X241508095Y-93794342D02*
X241555714Y-93889580D01*
X241555714Y-93889580D02*
X241603333Y-93937200D01*
X241603333Y-93937200D02*
X241698571Y-93984819D01*
X241698571Y-93984819D02*
X241889047Y-93984819D01*
X241889047Y-93984819D02*
X241984285Y-93937200D01*
X241984285Y-93937200D02*
X242031904Y-93889580D01*
X242031904Y-93889580D02*
X242079523Y-93794342D01*
X242079523Y-93794342D02*
X242079523Y-93556247D01*
X242079523Y-93556247D02*
X242031904Y-93461009D01*
X242031904Y-93461009D02*
X241984285Y-93413390D01*
X241984285Y-93413390D02*
X241889047Y-93365771D01*
X241889047Y-93365771D02*
X241698571Y-93365771D01*
X241698571Y-93365771D02*
X241603333Y-93413390D01*
X241603333Y-93413390D02*
X241555714Y-93461009D01*
X241555714Y-93461009D02*
X241508095Y-93556247D01*
X168126666Y-92324819D02*
X167793333Y-91848628D01*
X167555238Y-92324819D02*
X167555238Y-91324819D01*
X167555238Y-91324819D02*
X167936190Y-91324819D01*
X167936190Y-91324819D02*
X168031428Y-91372438D01*
X168031428Y-91372438D02*
X168079047Y-91420057D01*
X168079047Y-91420057D02*
X168126666Y-91515295D01*
X168126666Y-91515295D02*
X168126666Y-91658152D01*
X168126666Y-91658152D02*
X168079047Y-91753390D01*
X168079047Y-91753390D02*
X168031428Y-91801009D01*
X168031428Y-91801009D02*
X167936190Y-91848628D01*
X167936190Y-91848628D02*
X167555238Y-91848628D01*
X168555238Y-91801009D02*
X168888571Y-91801009D01*
X169031428Y-92324819D02*
X168555238Y-92324819D01*
X168555238Y-92324819D02*
X168555238Y-91324819D01*
X168555238Y-91324819D02*
X169031428Y-91324819D01*
X169793333Y-91801009D02*
X169460000Y-91801009D01*
X169460000Y-92324819D02*
X169460000Y-91324819D01*
X169460000Y-91324819D02*
X169936190Y-91324819D01*
X170460000Y-91324819D02*
X170460000Y-91562914D01*
X170221905Y-91467676D02*
X170460000Y-91562914D01*
X170460000Y-91562914D02*
X170698095Y-91467676D01*
X170317143Y-91753390D02*
X170460000Y-91562914D01*
X170460000Y-91562914D02*
X170602857Y-91753390D01*
X171221905Y-91324819D02*
X171221905Y-91562914D01*
X170983810Y-91467676D02*
X171221905Y-91562914D01*
X171221905Y-91562914D02*
X171460000Y-91467676D01*
X171079048Y-91753390D02*
X171221905Y-91562914D01*
X171221905Y-91562914D02*
X171364762Y-91753390D01*
X251160476Y-93937200D02*
X251303333Y-93984819D01*
X251303333Y-93984819D02*
X251541428Y-93984819D01*
X251541428Y-93984819D02*
X251636666Y-93937200D01*
X251636666Y-93937200D02*
X251684285Y-93889580D01*
X251684285Y-93889580D02*
X251731904Y-93794342D01*
X251731904Y-93794342D02*
X251731904Y-93699104D01*
X251731904Y-93699104D02*
X251684285Y-93603866D01*
X251684285Y-93603866D02*
X251636666Y-93556247D01*
X251636666Y-93556247D02*
X251541428Y-93508628D01*
X251541428Y-93508628D02*
X251350952Y-93461009D01*
X251350952Y-93461009D02*
X251255714Y-93413390D01*
X251255714Y-93413390D02*
X251208095Y-93365771D01*
X251208095Y-93365771D02*
X251160476Y-93270533D01*
X251160476Y-93270533D02*
X251160476Y-93175295D01*
X251160476Y-93175295D02*
X251208095Y-93080057D01*
X251208095Y-93080057D02*
X251255714Y-93032438D01*
X251255714Y-93032438D02*
X251350952Y-92984819D01*
X251350952Y-92984819D02*
X251589047Y-92984819D01*
X251589047Y-92984819D02*
X251731904Y-93032438D01*
X252065238Y-92984819D02*
X252303333Y-93984819D01*
X252303333Y-93984819D02*
X252493809Y-93270533D01*
X252493809Y-93270533D02*
X252684285Y-93984819D01*
X252684285Y-93984819D02*
X252922381Y-92984819D01*
X253827142Y-93984819D02*
X253255714Y-93984819D01*
X253541428Y-93984819D02*
X253541428Y-92984819D01*
X253541428Y-92984819D02*
X253446190Y-93127676D01*
X253446190Y-93127676D02*
X253350952Y-93222914D01*
X253350952Y-93222914D02*
X253255714Y-93270533D01*
X254160476Y-92984819D02*
X254827142Y-92984819D01*
X254827142Y-92984819D02*
X254398571Y-93984819D01*
X157570476Y-129133200D02*
X157713333Y-129180819D01*
X157713333Y-129180819D02*
X157951428Y-129180819D01*
X157951428Y-129180819D02*
X158046666Y-129133200D01*
X158046666Y-129133200D02*
X158094285Y-129085580D01*
X158094285Y-129085580D02*
X158141904Y-128990342D01*
X158141904Y-128990342D02*
X158141904Y-128895104D01*
X158141904Y-128895104D02*
X158094285Y-128799866D01*
X158094285Y-128799866D02*
X158046666Y-128752247D01*
X158046666Y-128752247D02*
X157951428Y-128704628D01*
X157951428Y-128704628D02*
X157760952Y-128657009D01*
X157760952Y-128657009D02*
X157665714Y-128609390D01*
X157665714Y-128609390D02*
X157618095Y-128561771D01*
X157618095Y-128561771D02*
X157570476Y-128466533D01*
X157570476Y-128466533D02*
X157570476Y-128371295D01*
X157570476Y-128371295D02*
X157618095Y-128276057D01*
X157618095Y-128276057D02*
X157665714Y-128228438D01*
X157665714Y-128228438D02*
X157760952Y-128180819D01*
X157760952Y-128180819D02*
X157999047Y-128180819D01*
X157999047Y-128180819D02*
X158141904Y-128228438D01*
X158475238Y-128180819D02*
X158713333Y-129180819D01*
X158713333Y-129180819D02*
X158903809Y-128466533D01*
X158903809Y-128466533D02*
X159094285Y-129180819D01*
X159094285Y-129180819D02*
X159332381Y-128180819D01*
X159665714Y-128276057D02*
X159713333Y-128228438D01*
X159713333Y-128228438D02*
X159808571Y-128180819D01*
X159808571Y-128180819D02*
X160046666Y-128180819D01*
X160046666Y-128180819D02*
X160141904Y-128228438D01*
X160141904Y-128228438D02*
X160189523Y-128276057D01*
X160189523Y-128276057D02*
X160237142Y-128371295D01*
X160237142Y-128371295D02*
X160237142Y-128466533D01*
X160237142Y-128466533D02*
X160189523Y-128609390D01*
X160189523Y-128609390D02*
X159618095Y-129180819D01*
X159618095Y-129180819D02*
X160237142Y-129180819D01*
X161189523Y-129180819D02*
X160618095Y-129180819D01*
X160903809Y-129180819D02*
X160903809Y-128180819D01*
X160903809Y-128180819D02*
X160808571Y-128323676D01*
X160808571Y-128323676D02*
X160713333Y-128418914D01*
X160713333Y-128418914D02*
X160618095Y-128466533D01*
X177096667Y-129133200D02*
X177239524Y-129180819D01*
X177239524Y-129180819D02*
X177477619Y-129180819D01*
X177477619Y-129180819D02*
X177572857Y-129133200D01*
X177572857Y-129133200D02*
X177620476Y-129085580D01*
X177620476Y-129085580D02*
X177668095Y-128990342D01*
X177668095Y-128990342D02*
X177668095Y-128895104D01*
X177668095Y-128895104D02*
X177620476Y-128799866D01*
X177620476Y-128799866D02*
X177572857Y-128752247D01*
X177572857Y-128752247D02*
X177477619Y-128704628D01*
X177477619Y-128704628D02*
X177287143Y-128657009D01*
X177287143Y-128657009D02*
X177191905Y-128609390D01*
X177191905Y-128609390D02*
X177144286Y-128561771D01*
X177144286Y-128561771D02*
X177096667Y-128466533D01*
X177096667Y-128466533D02*
X177096667Y-128371295D01*
X177096667Y-128371295D02*
X177144286Y-128276057D01*
X177144286Y-128276057D02*
X177191905Y-128228438D01*
X177191905Y-128228438D02*
X177287143Y-128180819D01*
X177287143Y-128180819D02*
X177525238Y-128180819D01*
X177525238Y-128180819D02*
X177668095Y-128228438D01*
X178001429Y-128180819D02*
X178239524Y-129180819D01*
X178239524Y-129180819D02*
X178430000Y-128466533D01*
X178430000Y-128466533D02*
X178620476Y-129180819D01*
X178620476Y-129180819D02*
X178858572Y-128180819D01*
X179668095Y-128514152D02*
X179668095Y-129180819D01*
X179430000Y-128133200D02*
X179191905Y-128847485D01*
X179191905Y-128847485D02*
X179810952Y-128847485D01*
X135142976Y-79247200D02*
X135285833Y-79294819D01*
X135285833Y-79294819D02*
X135523928Y-79294819D01*
X135523928Y-79294819D02*
X135619166Y-79247200D01*
X135619166Y-79247200D02*
X135666785Y-79199580D01*
X135666785Y-79199580D02*
X135714404Y-79104342D01*
X135714404Y-79104342D02*
X135714404Y-79009104D01*
X135714404Y-79009104D02*
X135666785Y-78913866D01*
X135666785Y-78913866D02*
X135619166Y-78866247D01*
X135619166Y-78866247D02*
X135523928Y-78818628D01*
X135523928Y-78818628D02*
X135333452Y-78771009D01*
X135333452Y-78771009D02*
X135238214Y-78723390D01*
X135238214Y-78723390D02*
X135190595Y-78675771D01*
X135190595Y-78675771D02*
X135142976Y-78580533D01*
X135142976Y-78580533D02*
X135142976Y-78485295D01*
X135142976Y-78485295D02*
X135190595Y-78390057D01*
X135190595Y-78390057D02*
X135238214Y-78342438D01*
X135238214Y-78342438D02*
X135333452Y-78294819D01*
X135333452Y-78294819D02*
X135571547Y-78294819D01*
X135571547Y-78294819D02*
X135714404Y-78342438D01*
X136047738Y-78294819D02*
X136285833Y-79294819D01*
X136285833Y-79294819D02*
X136476309Y-78580533D01*
X136476309Y-78580533D02*
X136666785Y-79294819D01*
X136666785Y-79294819D02*
X136904881Y-78294819D01*
X137809642Y-79294819D02*
X137238214Y-79294819D01*
X137523928Y-79294819D02*
X137523928Y-78294819D01*
X137523928Y-78294819D02*
X137428690Y-78437676D01*
X137428690Y-78437676D02*
X137333452Y-78532914D01*
X137333452Y-78532914D02*
X137238214Y-78580533D01*
X138285833Y-79294819D02*
X138476309Y-79294819D01*
X138476309Y-79294819D02*
X138571547Y-79247200D01*
X138571547Y-79247200D02*
X138619166Y-79199580D01*
X138619166Y-79199580D02*
X138714404Y-79056723D01*
X138714404Y-79056723D02*
X138762023Y-78866247D01*
X138762023Y-78866247D02*
X138762023Y-78485295D01*
X138762023Y-78485295D02*
X138714404Y-78390057D01*
X138714404Y-78390057D02*
X138666785Y-78342438D01*
X138666785Y-78342438D02*
X138571547Y-78294819D01*
X138571547Y-78294819D02*
X138381071Y-78294819D01*
X138381071Y-78294819D02*
X138285833Y-78342438D01*
X138285833Y-78342438D02*
X138238214Y-78390057D01*
X138238214Y-78390057D02*
X138190595Y-78485295D01*
X138190595Y-78485295D02*
X138190595Y-78723390D01*
X138190595Y-78723390D02*
X138238214Y-78818628D01*
X138238214Y-78818628D02*
X138285833Y-78866247D01*
X138285833Y-78866247D02*
X138381071Y-78913866D01*
X138381071Y-78913866D02*
X138571547Y-78913866D01*
X138571547Y-78913866D02*
X138666785Y-78866247D01*
X138666785Y-78866247D02*
X138714404Y-78818628D01*
X138714404Y-78818628D02*
X138762023Y-78723390D01*
X168126666Y-84344819D02*
X167793333Y-83868628D01*
X167555238Y-84344819D02*
X167555238Y-83344819D01*
X167555238Y-83344819D02*
X167936190Y-83344819D01*
X167936190Y-83344819D02*
X168031428Y-83392438D01*
X168031428Y-83392438D02*
X168079047Y-83440057D01*
X168079047Y-83440057D02*
X168126666Y-83535295D01*
X168126666Y-83535295D02*
X168126666Y-83678152D01*
X168126666Y-83678152D02*
X168079047Y-83773390D01*
X168079047Y-83773390D02*
X168031428Y-83821009D01*
X168031428Y-83821009D02*
X167936190Y-83868628D01*
X167936190Y-83868628D02*
X167555238Y-83868628D01*
X168555238Y-83821009D02*
X168888571Y-83821009D01*
X169031428Y-84344819D02*
X168555238Y-84344819D01*
X168555238Y-84344819D02*
X168555238Y-83344819D01*
X168555238Y-83344819D02*
X169031428Y-83344819D01*
X169793333Y-83821009D02*
X169460000Y-83821009D01*
X169460000Y-84344819D02*
X169460000Y-83344819D01*
X169460000Y-83344819D02*
X169936190Y-83344819D01*
X170460000Y-83344819D02*
X170460000Y-83582914D01*
X170221905Y-83487676D02*
X170460000Y-83582914D01*
X170460000Y-83582914D02*
X170698095Y-83487676D01*
X170317143Y-83773390D02*
X170460000Y-83582914D01*
X170460000Y-83582914D02*
X170602857Y-83773390D01*
X171221905Y-83344819D02*
X171221905Y-83582914D01*
X170983810Y-83487676D02*
X171221905Y-83582914D01*
X171221905Y-83582914D02*
X171460000Y-83487676D01*
X171079048Y-83773390D02*
X171221905Y-83582914D01*
X171221905Y-83582914D02*
X171364762Y-83773390D01*
X196146667Y-148183200D02*
X196289524Y-148230819D01*
X196289524Y-148230819D02*
X196527619Y-148230819D01*
X196527619Y-148230819D02*
X196622857Y-148183200D01*
X196622857Y-148183200D02*
X196670476Y-148135580D01*
X196670476Y-148135580D02*
X196718095Y-148040342D01*
X196718095Y-148040342D02*
X196718095Y-147945104D01*
X196718095Y-147945104D02*
X196670476Y-147849866D01*
X196670476Y-147849866D02*
X196622857Y-147802247D01*
X196622857Y-147802247D02*
X196527619Y-147754628D01*
X196527619Y-147754628D02*
X196337143Y-147707009D01*
X196337143Y-147707009D02*
X196241905Y-147659390D01*
X196241905Y-147659390D02*
X196194286Y-147611771D01*
X196194286Y-147611771D02*
X196146667Y-147516533D01*
X196146667Y-147516533D02*
X196146667Y-147421295D01*
X196146667Y-147421295D02*
X196194286Y-147326057D01*
X196194286Y-147326057D02*
X196241905Y-147278438D01*
X196241905Y-147278438D02*
X196337143Y-147230819D01*
X196337143Y-147230819D02*
X196575238Y-147230819D01*
X196575238Y-147230819D02*
X196718095Y-147278438D01*
X197051429Y-147230819D02*
X197289524Y-148230819D01*
X197289524Y-148230819D02*
X197480000Y-147516533D01*
X197480000Y-147516533D02*
X197670476Y-148230819D01*
X197670476Y-148230819D02*
X197908572Y-147230819D01*
X198432381Y-147659390D02*
X198337143Y-147611771D01*
X198337143Y-147611771D02*
X198289524Y-147564152D01*
X198289524Y-147564152D02*
X198241905Y-147468914D01*
X198241905Y-147468914D02*
X198241905Y-147421295D01*
X198241905Y-147421295D02*
X198289524Y-147326057D01*
X198289524Y-147326057D02*
X198337143Y-147278438D01*
X198337143Y-147278438D02*
X198432381Y-147230819D01*
X198432381Y-147230819D02*
X198622857Y-147230819D01*
X198622857Y-147230819D02*
X198718095Y-147278438D01*
X198718095Y-147278438D02*
X198765714Y-147326057D01*
X198765714Y-147326057D02*
X198813333Y-147421295D01*
X198813333Y-147421295D02*
X198813333Y-147468914D01*
X198813333Y-147468914D02*
X198765714Y-147564152D01*
X198765714Y-147564152D02*
X198718095Y-147611771D01*
X198718095Y-147611771D02*
X198622857Y-147659390D01*
X198622857Y-147659390D02*
X198432381Y-147659390D01*
X198432381Y-147659390D02*
X198337143Y-147707009D01*
X198337143Y-147707009D02*
X198289524Y-147754628D01*
X198289524Y-147754628D02*
X198241905Y-147849866D01*
X198241905Y-147849866D02*
X198241905Y-148040342D01*
X198241905Y-148040342D02*
X198289524Y-148135580D01*
X198289524Y-148135580D02*
X198337143Y-148183200D01*
X198337143Y-148183200D02*
X198432381Y-148230819D01*
X198432381Y-148230819D02*
X198622857Y-148230819D01*
X198622857Y-148230819D02*
X198718095Y-148183200D01*
X198718095Y-148183200D02*
X198765714Y-148135580D01*
X198765714Y-148135580D02*
X198813333Y-148040342D01*
X198813333Y-148040342D02*
X198813333Y-147849866D01*
X198813333Y-147849866D02*
X198765714Y-147754628D01*
X198765714Y-147754628D02*
X198718095Y-147707009D01*
X198718095Y-147707009D02*
X198622857Y-147659390D01*
X205106666Y-84334819D02*
X204773333Y-83858628D01*
X204535238Y-84334819D02*
X204535238Y-83334819D01*
X204535238Y-83334819D02*
X204916190Y-83334819D01*
X204916190Y-83334819D02*
X205011428Y-83382438D01*
X205011428Y-83382438D02*
X205059047Y-83430057D01*
X205059047Y-83430057D02*
X205106666Y-83525295D01*
X205106666Y-83525295D02*
X205106666Y-83668152D01*
X205106666Y-83668152D02*
X205059047Y-83763390D01*
X205059047Y-83763390D02*
X205011428Y-83811009D01*
X205011428Y-83811009D02*
X204916190Y-83858628D01*
X204916190Y-83858628D02*
X204535238Y-83858628D01*
X205535238Y-83811009D02*
X205868571Y-83811009D01*
X206011428Y-84334819D02*
X205535238Y-84334819D01*
X205535238Y-84334819D02*
X205535238Y-83334819D01*
X205535238Y-83334819D02*
X206011428Y-83334819D01*
X206773333Y-83811009D02*
X206440000Y-83811009D01*
X206440000Y-84334819D02*
X206440000Y-83334819D01*
X206440000Y-83334819D02*
X206916190Y-83334819D01*
X207440000Y-83334819D02*
X207440000Y-83572914D01*
X207201905Y-83477676D02*
X207440000Y-83572914D01*
X207440000Y-83572914D02*
X207678095Y-83477676D01*
X207297143Y-83763390D02*
X207440000Y-83572914D01*
X207440000Y-83572914D02*
X207582857Y-83763390D01*
X208201905Y-83334819D02*
X208201905Y-83572914D01*
X207963810Y-83477676D02*
X208201905Y-83572914D01*
X208201905Y-83572914D02*
X208440000Y-83477676D01*
X208059048Y-83763390D02*
X208201905Y-83572914D01*
X208201905Y-83572914D02*
X208344762Y-83763390D01*
X200798420Y-76859895D02*
X200465087Y-76383704D01*
X200226992Y-76859895D02*
X200226992Y-75859895D01*
X200226992Y-75859895D02*
X200607944Y-75859895D01*
X200607944Y-75859895D02*
X200703182Y-75907514D01*
X200703182Y-75907514D02*
X200750801Y-75955133D01*
X200750801Y-75955133D02*
X200798420Y-76050371D01*
X200798420Y-76050371D02*
X200798420Y-76193228D01*
X200798420Y-76193228D02*
X200750801Y-76288466D01*
X200750801Y-76288466D02*
X200703182Y-76336085D01*
X200703182Y-76336085D02*
X200607944Y-76383704D01*
X200607944Y-76383704D02*
X200226992Y-76383704D01*
X201226992Y-76336085D02*
X201560325Y-76336085D01*
X201703182Y-76859895D02*
X201226992Y-76859895D01*
X201226992Y-76859895D02*
X201226992Y-75859895D01*
X201226992Y-75859895D02*
X201703182Y-75859895D01*
X202465087Y-76336085D02*
X202131754Y-76336085D01*
X202131754Y-76859895D02*
X202131754Y-75859895D01*
X202131754Y-75859895D02*
X202607944Y-75859895D01*
X203131754Y-75859895D02*
X203131754Y-76097990D01*
X202893659Y-76002752D02*
X203131754Y-76097990D01*
X203131754Y-76097990D02*
X203369849Y-76002752D01*
X202988897Y-76288466D02*
X203131754Y-76097990D01*
X203131754Y-76097990D02*
X203274611Y-76288466D01*
X203893659Y-75859895D02*
X203893659Y-76097990D01*
X203655564Y-76002752D02*
X203893659Y-76097990D01*
X203893659Y-76097990D02*
X204131754Y-76002752D01*
X203750802Y-76288466D02*
X203893659Y-76097990D01*
X203893659Y-76097990D02*
X204036516Y-76288466D01*
X234300476Y-121032734D02*
X234443333Y-121080353D01*
X234443333Y-121080353D02*
X234681428Y-121080353D01*
X234681428Y-121080353D02*
X234776666Y-121032734D01*
X234776666Y-121032734D02*
X234824285Y-120985114D01*
X234824285Y-120985114D02*
X234871904Y-120889876D01*
X234871904Y-120889876D02*
X234871904Y-120794638D01*
X234871904Y-120794638D02*
X234824285Y-120699400D01*
X234824285Y-120699400D02*
X234776666Y-120651781D01*
X234776666Y-120651781D02*
X234681428Y-120604162D01*
X234681428Y-120604162D02*
X234490952Y-120556543D01*
X234490952Y-120556543D02*
X234395714Y-120508924D01*
X234395714Y-120508924D02*
X234348095Y-120461305D01*
X234348095Y-120461305D02*
X234300476Y-120366067D01*
X234300476Y-120366067D02*
X234300476Y-120270829D01*
X234300476Y-120270829D02*
X234348095Y-120175591D01*
X234348095Y-120175591D02*
X234395714Y-120127972D01*
X234395714Y-120127972D02*
X234490952Y-120080353D01*
X234490952Y-120080353D02*
X234729047Y-120080353D01*
X234729047Y-120080353D02*
X234871904Y-120127972D01*
X235205238Y-120080353D02*
X235443333Y-121080353D01*
X235443333Y-121080353D02*
X235633809Y-120366067D01*
X235633809Y-120366067D02*
X235824285Y-121080353D01*
X235824285Y-121080353D02*
X236062381Y-120080353D01*
X236967142Y-121080353D02*
X236395714Y-121080353D01*
X236681428Y-121080353D02*
X236681428Y-120080353D01*
X236681428Y-120080353D02*
X236586190Y-120223210D01*
X236586190Y-120223210D02*
X236490952Y-120318448D01*
X236490952Y-120318448D02*
X236395714Y-120366067D01*
X237919523Y-121080353D02*
X237348095Y-121080353D01*
X237633809Y-121080353D02*
X237633809Y-120080353D01*
X237633809Y-120080353D02*
X237538571Y-120223210D01*
X237538571Y-120223210D02*
X237443333Y-120318448D01*
X237443333Y-120318448D02*
X237348095Y-120366067D01*
X196146667Y-110083200D02*
X196289524Y-110130819D01*
X196289524Y-110130819D02*
X196527619Y-110130819D01*
X196527619Y-110130819D02*
X196622857Y-110083200D01*
X196622857Y-110083200D02*
X196670476Y-110035580D01*
X196670476Y-110035580D02*
X196718095Y-109940342D01*
X196718095Y-109940342D02*
X196718095Y-109845104D01*
X196718095Y-109845104D02*
X196670476Y-109749866D01*
X196670476Y-109749866D02*
X196622857Y-109702247D01*
X196622857Y-109702247D02*
X196527619Y-109654628D01*
X196527619Y-109654628D02*
X196337143Y-109607009D01*
X196337143Y-109607009D02*
X196241905Y-109559390D01*
X196241905Y-109559390D02*
X196194286Y-109511771D01*
X196194286Y-109511771D02*
X196146667Y-109416533D01*
X196146667Y-109416533D02*
X196146667Y-109321295D01*
X196146667Y-109321295D02*
X196194286Y-109226057D01*
X196194286Y-109226057D02*
X196241905Y-109178438D01*
X196241905Y-109178438D02*
X196337143Y-109130819D01*
X196337143Y-109130819D02*
X196575238Y-109130819D01*
X196575238Y-109130819D02*
X196718095Y-109178438D01*
X197051429Y-109130819D02*
X197289524Y-110130819D01*
X197289524Y-110130819D02*
X197480000Y-109416533D01*
X197480000Y-109416533D02*
X197670476Y-110130819D01*
X197670476Y-110130819D02*
X197908572Y-109130819D01*
X198241905Y-109226057D02*
X198289524Y-109178438D01*
X198289524Y-109178438D02*
X198384762Y-109130819D01*
X198384762Y-109130819D02*
X198622857Y-109130819D01*
X198622857Y-109130819D02*
X198718095Y-109178438D01*
X198718095Y-109178438D02*
X198765714Y-109226057D01*
X198765714Y-109226057D02*
X198813333Y-109321295D01*
X198813333Y-109321295D02*
X198813333Y-109416533D01*
X198813333Y-109416533D02*
X198765714Y-109559390D01*
X198765714Y-109559390D02*
X198194286Y-110130819D01*
X198194286Y-110130819D02*
X198813333Y-110130819D01*
X141336666Y-133494819D02*
X141003333Y-133018628D01*
X140765238Y-133494819D02*
X140765238Y-132494819D01*
X140765238Y-132494819D02*
X141146190Y-132494819D01*
X141146190Y-132494819D02*
X141241428Y-132542438D01*
X141241428Y-132542438D02*
X141289047Y-132590057D01*
X141289047Y-132590057D02*
X141336666Y-132685295D01*
X141336666Y-132685295D02*
X141336666Y-132828152D01*
X141336666Y-132828152D02*
X141289047Y-132923390D01*
X141289047Y-132923390D02*
X141241428Y-132971009D01*
X141241428Y-132971009D02*
X141146190Y-133018628D01*
X141146190Y-133018628D02*
X140765238Y-133018628D01*
X141765238Y-132971009D02*
X142098571Y-132971009D01*
X142241428Y-133494819D02*
X141765238Y-133494819D01*
X141765238Y-133494819D02*
X141765238Y-132494819D01*
X141765238Y-132494819D02*
X142241428Y-132494819D01*
X143003333Y-132971009D02*
X142670000Y-132971009D01*
X142670000Y-133494819D02*
X142670000Y-132494819D01*
X142670000Y-132494819D02*
X143146190Y-132494819D01*
X143670000Y-132494819D02*
X143670000Y-132732914D01*
X143431905Y-132637676D02*
X143670000Y-132732914D01*
X143670000Y-132732914D02*
X143908095Y-132637676D01*
X143527143Y-132923390D02*
X143670000Y-132732914D01*
X143670000Y-132732914D02*
X143812857Y-132923390D01*
X144431905Y-132494819D02*
X144431905Y-132732914D01*
X144193810Y-132637676D02*
X144431905Y-132732914D01*
X144431905Y-132732914D02*
X144670000Y-132637676D01*
X144289048Y-132923390D02*
X144431905Y-132732914D01*
X144431905Y-132732914D02*
X144574762Y-132923390D01*
X215196667Y-148183200D02*
X215339524Y-148230819D01*
X215339524Y-148230819D02*
X215577619Y-148230819D01*
X215577619Y-148230819D02*
X215672857Y-148183200D01*
X215672857Y-148183200D02*
X215720476Y-148135580D01*
X215720476Y-148135580D02*
X215768095Y-148040342D01*
X215768095Y-148040342D02*
X215768095Y-147945104D01*
X215768095Y-147945104D02*
X215720476Y-147849866D01*
X215720476Y-147849866D02*
X215672857Y-147802247D01*
X215672857Y-147802247D02*
X215577619Y-147754628D01*
X215577619Y-147754628D02*
X215387143Y-147707009D01*
X215387143Y-147707009D02*
X215291905Y-147659390D01*
X215291905Y-147659390D02*
X215244286Y-147611771D01*
X215244286Y-147611771D02*
X215196667Y-147516533D01*
X215196667Y-147516533D02*
X215196667Y-147421295D01*
X215196667Y-147421295D02*
X215244286Y-147326057D01*
X215244286Y-147326057D02*
X215291905Y-147278438D01*
X215291905Y-147278438D02*
X215387143Y-147230819D01*
X215387143Y-147230819D02*
X215625238Y-147230819D01*
X215625238Y-147230819D02*
X215768095Y-147278438D01*
X216101429Y-147230819D02*
X216339524Y-148230819D01*
X216339524Y-148230819D02*
X216530000Y-147516533D01*
X216530000Y-147516533D02*
X216720476Y-148230819D01*
X216720476Y-148230819D02*
X216958572Y-147230819D01*
X217387143Y-148230819D02*
X217577619Y-148230819D01*
X217577619Y-148230819D02*
X217672857Y-148183200D01*
X217672857Y-148183200D02*
X217720476Y-148135580D01*
X217720476Y-148135580D02*
X217815714Y-147992723D01*
X217815714Y-147992723D02*
X217863333Y-147802247D01*
X217863333Y-147802247D02*
X217863333Y-147421295D01*
X217863333Y-147421295D02*
X217815714Y-147326057D01*
X217815714Y-147326057D02*
X217768095Y-147278438D01*
X217768095Y-147278438D02*
X217672857Y-147230819D01*
X217672857Y-147230819D02*
X217482381Y-147230819D01*
X217482381Y-147230819D02*
X217387143Y-147278438D01*
X217387143Y-147278438D02*
X217339524Y-147326057D01*
X217339524Y-147326057D02*
X217291905Y-147421295D01*
X217291905Y-147421295D02*
X217291905Y-147659390D01*
X217291905Y-147659390D02*
X217339524Y-147754628D01*
X217339524Y-147754628D02*
X217387143Y-147802247D01*
X217387143Y-147802247D02*
X217482381Y-147849866D01*
X217482381Y-147849866D02*
X217672857Y-147849866D01*
X217672857Y-147849866D02*
X217768095Y-147802247D01*
X217768095Y-147802247D02*
X217815714Y-147754628D01*
X217815714Y-147754628D02*
X217863333Y-147659390D01*
X157546667Y-94834819D02*
X157546667Y-93834819D01*
X157546667Y-93834819D02*
X157880000Y-94549104D01*
X157880000Y-94549104D02*
X158213333Y-93834819D01*
X158213333Y-93834819D02*
X158213333Y-94834819D01*
X158689524Y-94834819D02*
X158689524Y-93834819D01*
X158689524Y-94311009D02*
X159260952Y-94311009D01*
X159260952Y-94834819D02*
X159260952Y-93834819D01*
X159641905Y-93834819D02*
X160260952Y-93834819D01*
X160260952Y-93834819D02*
X159927619Y-94215771D01*
X159927619Y-94215771D02*
X160070476Y-94215771D01*
X160070476Y-94215771D02*
X160165714Y-94263390D01*
X160165714Y-94263390D02*
X160213333Y-94311009D01*
X160213333Y-94311009D02*
X160260952Y-94406247D01*
X160260952Y-94406247D02*
X160260952Y-94644342D01*
X160260952Y-94644342D02*
X160213333Y-94739580D01*
X160213333Y-94739580D02*
X160165714Y-94787200D01*
X160165714Y-94787200D02*
X160070476Y-94834819D01*
X160070476Y-94834819D02*
X159784762Y-94834819D01*
X159784762Y-94834819D02*
X159689524Y-94787200D01*
X159689524Y-94787200D02*
X159641905Y-94739580D01*
X177096667Y-110083200D02*
X177239524Y-110130819D01*
X177239524Y-110130819D02*
X177477619Y-110130819D01*
X177477619Y-110130819D02*
X177572857Y-110083200D01*
X177572857Y-110083200D02*
X177620476Y-110035580D01*
X177620476Y-110035580D02*
X177668095Y-109940342D01*
X177668095Y-109940342D02*
X177668095Y-109845104D01*
X177668095Y-109845104D02*
X177620476Y-109749866D01*
X177620476Y-109749866D02*
X177572857Y-109702247D01*
X177572857Y-109702247D02*
X177477619Y-109654628D01*
X177477619Y-109654628D02*
X177287143Y-109607009D01*
X177287143Y-109607009D02*
X177191905Y-109559390D01*
X177191905Y-109559390D02*
X177144286Y-109511771D01*
X177144286Y-109511771D02*
X177096667Y-109416533D01*
X177096667Y-109416533D02*
X177096667Y-109321295D01*
X177096667Y-109321295D02*
X177144286Y-109226057D01*
X177144286Y-109226057D02*
X177191905Y-109178438D01*
X177191905Y-109178438D02*
X177287143Y-109130819D01*
X177287143Y-109130819D02*
X177525238Y-109130819D01*
X177525238Y-109130819D02*
X177668095Y-109178438D01*
X178001429Y-109130819D02*
X178239524Y-110130819D01*
X178239524Y-110130819D02*
X178430000Y-109416533D01*
X178430000Y-109416533D02*
X178620476Y-110130819D01*
X178620476Y-110130819D02*
X178858572Y-109130819D01*
X179763333Y-110130819D02*
X179191905Y-110130819D01*
X179477619Y-110130819D02*
X179477619Y-109130819D01*
X179477619Y-109130819D02*
X179382381Y-109273676D01*
X179382381Y-109273676D02*
X179287143Y-109368914D01*
X179287143Y-109368914D02*
X179191905Y-109416533D01*
X157570476Y-110083200D02*
X157713333Y-110130819D01*
X157713333Y-110130819D02*
X157951428Y-110130819D01*
X157951428Y-110130819D02*
X158046666Y-110083200D01*
X158046666Y-110083200D02*
X158094285Y-110035580D01*
X158094285Y-110035580D02*
X158141904Y-109940342D01*
X158141904Y-109940342D02*
X158141904Y-109845104D01*
X158141904Y-109845104D02*
X158094285Y-109749866D01*
X158094285Y-109749866D02*
X158046666Y-109702247D01*
X158046666Y-109702247D02*
X157951428Y-109654628D01*
X157951428Y-109654628D02*
X157760952Y-109607009D01*
X157760952Y-109607009D02*
X157665714Y-109559390D01*
X157665714Y-109559390D02*
X157618095Y-109511771D01*
X157618095Y-109511771D02*
X157570476Y-109416533D01*
X157570476Y-109416533D02*
X157570476Y-109321295D01*
X157570476Y-109321295D02*
X157618095Y-109226057D01*
X157618095Y-109226057D02*
X157665714Y-109178438D01*
X157665714Y-109178438D02*
X157760952Y-109130819D01*
X157760952Y-109130819D02*
X157999047Y-109130819D01*
X157999047Y-109130819D02*
X158141904Y-109178438D01*
X158475238Y-109130819D02*
X158713333Y-110130819D01*
X158713333Y-110130819D02*
X158903809Y-109416533D01*
X158903809Y-109416533D02*
X159094285Y-110130819D01*
X159094285Y-110130819D02*
X159332381Y-109130819D01*
X159665714Y-109226057D02*
X159713333Y-109178438D01*
X159713333Y-109178438D02*
X159808571Y-109130819D01*
X159808571Y-109130819D02*
X160046666Y-109130819D01*
X160046666Y-109130819D02*
X160141904Y-109178438D01*
X160141904Y-109178438D02*
X160189523Y-109226057D01*
X160189523Y-109226057D02*
X160237142Y-109321295D01*
X160237142Y-109321295D02*
X160237142Y-109416533D01*
X160237142Y-109416533D02*
X160189523Y-109559390D01*
X160189523Y-109559390D02*
X159618095Y-110130819D01*
X159618095Y-110130819D02*
X160237142Y-110130819D01*
X160856190Y-109130819D02*
X160951428Y-109130819D01*
X160951428Y-109130819D02*
X161046666Y-109178438D01*
X161046666Y-109178438D02*
X161094285Y-109226057D01*
X161094285Y-109226057D02*
X161141904Y-109321295D01*
X161141904Y-109321295D02*
X161189523Y-109511771D01*
X161189523Y-109511771D02*
X161189523Y-109749866D01*
X161189523Y-109749866D02*
X161141904Y-109940342D01*
X161141904Y-109940342D02*
X161094285Y-110035580D01*
X161094285Y-110035580D02*
X161046666Y-110083200D01*
X161046666Y-110083200D02*
X160951428Y-110130819D01*
X160951428Y-110130819D02*
X160856190Y-110130819D01*
X160856190Y-110130819D02*
X160760952Y-110083200D01*
X160760952Y-110083200D02*
X160713333Y-110035580D01*
X160713333Y-110035580D02*
X160665714Y-109940342D01*
X160665714Y-109940342D02*
X160618095Y-109749866D01*
X160618095Y-109749866D02*
X160618095Y-109511771D01*
X160618095Y-109511771D02*
X160665714Y-109321295D01*
X160665714Y-109321295D02*
X160713333Y-109226057D01*
X160713333Y-109226057D02*
X160760952Y-109178438D01*
X160760952Y-109178438D02*
X160856190Y-109130819D01*
X157546667Y-71834819D02*
X157546667Y-70834819D01*
X157546667Y-70834819D02*
X157880000Y-71549104D01*
X157880000Y-71549104D02*
X158213333Y-70834819D01*
X158213333Y-70834819D02*
X158213333Y-71834819D01*
X158689524Y-71834819D02*
X158689524Y-70834819D01*
X158689524Y-71311009D02*
X159260952Y-71311009D01*
X159260952Y-71834819D02*
X159260952Y-70834819D01*
X160260952Y-71834819D02*
X159689524Y-71834819D01*
X159975238Y-71834819D02*
X159975238Y-70834819D01*
X159975238Y-70834819D02*
X159880000Y-70977676D01*
X159880000Y-70977676D02*
X159784762Y-71072914D01*
X159784762Y-71072914D02*
X159689524Y-71120533D01*
X200806968Y-110211951D02*
X200473635Y-109735760D01*
X200235540Y-110211951D02*
X200235540Y-109211951D01*
X200235540Y-109211951D02*
X200616492Y-109211951D01*
X200616492Y-109211951D02*
X200711730Y-109259570D01*
X200711730Y-109259570D02*
X200759349Y-109307189D01*
X200759349Y-109307189D02*
X200806968Y-109402427D01*
X200806968Y-109402427D02*
X200806968Y-109545284D01*
X200806968Y-109545284D02*
X200759349Y-109640522D01*
X200759349Y-109640522D02*
X200711730Y-109688141D01*
X200711730Y-109688141D02*
X200616492Y-109735760D01*
X200616492Y-109735760D02*
X200235540Y-109735760D01*
X201235540Y-109688141D02*
X201568873Y-109688141D01*
X201711730Y-110211951D02*
X201235540Y-110211951D01*
X201235540Y-110211951D02*
X201235540Y-109211951D01*
X201235540Y-109211951D02*
X201711730Y-109211951D01*
X202473635Y-109688141D02*
X202140302Y-109688141D01*
X202140302Y-110211951D02*
X202140302Y-109211951D01*
X202140302Y-109211951D02*
X202616492Y-109211951D01*
X203140302Y-109211951D02*
X203140302Y-109450046D01*
X202902207Y-109354808D02*
X203140302Y-109450046D01*
X203140302Y-109450046D02*
X203378397Y-109354808D01*
X202997445Y-109640522D02*
X203140302Y-109450046D01*
X203140302Y-109450046D02*
X203283159Y-109640522D01*
X203902207Y-109211951D02*
X203902207Y-109450046D01*
X203664112Y-109354808D02*
X203902207Y-109450046D01*
X203902207Y-109450046D02*
X204140302Y-109354808D01*
X203759350Y-109640522D02*
X203902207Y-109450046D01*
X203902207Y-109450046D02*
X204045064Y-109640522D01*
X265811544Y-121032734D02*
X265954401Y-121080353D01*
X265954401Y-121080353D02*
X266192496Y-121080353D01*
X266192496Y-121080353D02*
X266287734Y-121032734D01*
X266287734Y-121032734D02*
X266335353Y-120985114D01*
X266335353Y-120985114D02*
X266382972Y-120889876D01*
X266382972Y-120889876D02*
X266382972Y-120794638D01*
X266382972Y-120794638D02*
X266335353Y-120699400D01*
X266335353Y-120699400D02*
X266287734Y-120651781D01*
X266287734Y-120651781D02*
X266192496Y-120604162D01*
X266192496Y-120604162D02*
X266002020Y-120556543D01*
X266002020Y-120556543D02*
X265906782Y-120508924D01*
X265906782Y-120508924D02*
X265859163Y-120461305D01*
X265859163Y-120461305D02*
X265811544Y-120366067D01*
X265811544Y-120366067D02*
X265811544Y-120270829D01*
X265811544Y-120270829D02*
X265859163Y-120175591D01*
X265859163Y-120175591D02*
X265906782Y-120127972D01*
X265906782Y-120127972D02*
X266002020Y-120080353D01*
X266002020Y-120080353D02*
X266240115Y-120080353D01*
X266240115Y-120080353D02*
X266382972Y-120127972D01*
X266716306Y-120080353D02*
X266954401Y-121080353D01*
X266954401Y-121080353D02*
X267144877Y-120366067D01*
X267144877Y-120366067D02*
X267335353Y-121080353D01*
X267335353Y-121080353D02*
X267573449Y-120080353D01*
X268478210Y-121080353D02*
X267906782Y-121080353D01*
X268192496Y-121080353D02*
X268192496Y-120080353D01*
X268192496Y-120080353D02*
X268097258Y-120223210D01*
X268097258Y-120223210D02*
X268002020Y-120318448D01*
X268002020Y-120318448D02*
X267906782Y-120366067D01*
X269382972Y-120080353D02*
X268906782Y-120080353D01*
X268906782Y-120080353D02*
X268859163Y-120556543D01*
X268859163Y-120556543D02*
X268906782Y-120508924D01*
X268906782Y-120508924D02*
X269002020Y-120461305D01*
X269002020Y-120461305D02*
X269240115Y-120461305D01*
X269240115Y-120461305D02*
X269335353Y-120508924D01*
X269335353Y-120508924D02*
X269382972Y-120556543D01*
X269382972Y-120556543D02*
X269430591Y-120651781D01*
X269430591Y-120651781D02*
X269430591Y-120889876D01*
X269430591Y-120889876D02*
X269382972Y-120985114D01*
X269382972Y-120985114D02*
X269335353Y-121032734D01*
X269335353Y-121032734D02*
X269240115Y-121080353D01*
X269240115Y-121080353D02*
X269002020Y-121080353D01*
X269002020Y-121080353D02*
X268906782Y-121032734D01*
X268906782Y-121032734D02*
X268859163Y-120985114D01*
X121326666Y-134484819D02*
X120993333Y-134008628D01*
X120755238Y-134484819D02*
X120755238Y-133484819D01*
X120755238Y-133484819D02*
X121136190Y-133484819D01*
X121136190Y-133484819D02*
X121231428Y-133532438D01*
X121231428Y-133532438D02*
X121279047Y-133580057D01*
X121279047Y-133580057D02*
X121326666Y-133675295D01*
X121326666Y-133675295D02*
X121326666Y-133818152D01*
X121326666Y-133818152D02*
X121279047Y-133913390D01*
X121279047Y-133913390D02*
X121231428Y-133961009D01*
X121231428Y-133961009D02*
X121136190Y-134008628D01*
X121136190Y-134008628D02*
X120755238Y-134008628D01*
X121755238Y-133961009D02*
X122088571Y-133961009D01*
X122231428Y-134484819D02*
X121755238Y-134484819D01*
X121755238Y-134484819D02*
X121755238Y-133484819D01*
X121755238Y-133484819D02*
X122231428Y-133484819D01*
X122993333Y-133961009D02*
X122660000Y-133961009D01*
X122660000Y-134484819D02*
X122660000Y-133484819D01*
X122660000Y-133484819D02*
X123136190Y-133484819D01*
X123660000Y-133484819D02*
X123660000Y-133722914D01*
X123421905Y-133627676D02*
X123660000Y-133722914D01*
X123660000Y-133722914D02*
X123898095Y-133627676D01*
X123517143Y-133913390D02*
X123660000Y-133722914D01*
X123660000Y-133722914D02*
X123802857Y-133913390D01*
X124421905Y-133484819D02*
X124421905Y-133722914D01*
X124183810Y-133627676D02*
X124421905Y-133722914D01*
X124421905Y-133722914D02*
X124660000Y-133627676D01*
X124279048Y-133913390D02*
X124421905Y-133722914D01*
X124421905Y-133722914D02*
X124564762Y-133913390D01*
X215196667Y-129133200D02*
X215339524Y-129180819D01*
X215339524Y-129180819D02*
X215577619Y-129180819D01*
X215577619Y-129180819D02*
X215672857Y-129133200D01*
X215672857Y-129133200D02*
X215720476Y-129085580D01*
X215720476Y-129085580D02*
X215768095Y-128990342D01*
X215768095Y-128990342D02*
X215768095Y-128895104D01*
X215768095Y-128895104D02*
X215720476Y-128799866D01*
X215720476Y-128799866D02*
X215672857Y-128752247D01*
X215672857Y-128752247D02*
X215577619Y-128704628D01*
X215577619Y-128704628D02*
X215387143Y-128657009D01*
X215387143Y-128657009D02*
X215291905Y-128609390D01*
X215291905Y-128609390D02*
X215244286Y-128561771D01*
X215244286Y-128561771D02*
X215196667Y-128466533D01*
X215196667Y-128466533D02*
X215196667Y-128371295D01*
X215196667Y-128371295D02*
X215244286Y-128276057D01*
X215244286Y-128276057D02*
X215291905Y-128228438D01*
X215291905Y-128228438D02*
X215387143Y-128180819D01*
X215387143Y-128180819D02*
X215625238Y-128180819D01*
X215625238Y-128180819D02*
X215768095Y-128228438D01*
X216101429Y-128180819D02*
X216339524Y-129180819D01*
X216339524Y-129180819D02*
X216530000Y-128466533D01*
X216530000Y-128466533D02*
X216720476Y-129180819D01*
X216720476Y-129180819D02*
X216958572Y-128180819D01*
X217768095Y-128180819D02*
X217577619Y-128180819D01*
X217577619Y-128180819D02*
X217482381Y-128228438D01*
X217482381Y-128228438D02*
X217434762Y-128276057D01*
X217434762Y-128276057D02*
X217339524Y-128418914D01*
X217339524Y-128418914D02*
X217291905Y-128609390D01*
X217291905Y-128609390D02*
X217291905Y-128990342D01*
X217291905Y-128990342D02*
X217339524Y-129085580D01*
X217339524Y-129085580D02*
X217387143Y-129133200D01*
X217387143Y-129133200D02*
X217482381Y-129180819D01*
X217482381Y-129180819D02*
X217672857Y-129180819D01*
X217672857Y-129180819D02*
X217768095Y-129133200D01*
X217768095Y-129133200D02*
X217815714Y-129085580D01*
X217815714Y-129085580D02*
X217863333Y-128990342D01*
X217863333Y-128990342D02*
X217863333Y-128752247D01*
X217863333Y-128752247D02*
X217815714Y-128657009D01*
X217815714Y-128657009D02*
X217768095Y-128609390D01*
X217768095Y-128609390D02*
X217672857Y-128561771D01*
X217672857Y-128561771D02*
X217482381Y-128561771D01*
X217482381Y-128561771D02*
X217387143Y-128609390D01*
X217387143Y-128609390D02*
X217339524Y-128657009D01*
X217339524Y-128657009D02*
X217291905Y-128752247D01*
X174346364Y-76868443D02*
X174013031Y-76392252D01*
X173774936Y-76868443D02*
X173774936Y-75868443D01*
X173774936Y-75868443D02*
X174155888Y-75868443D01*
X174155888Y-75868443D02*
X174251126Y-75916062D01*
X174251126Y-75916062D02*
X174298745Y-75963681D01*
X174298745Y-75963681D02*
X174346364Y-76058919D01*
X174346364Y-76058919D02*
X174346364Y-76201776D01*
X174346364Y-76201776D02*
X174298745Y-76297014D01*
X174298745Y-76297014D02*
X174251126Y-76344633D01*
X174251126Y-76344633D02*
X174155888Y-76392252D01*
X174155888Y-76392252D02*
X173774936Y-76392252D01*
X174774936Y-76344633D02*
X175108269Y-76344633D01*
X175251126Y-76868443D02*
X174774936Y-76868443D01*
X174774936Y-76868443D02*
X174774936Y-75868443D01*
X174774936Y-75868443D02*
X175251126Y-75868443D01*
X176013031Y-76344633D02*
X175679698Y-76344633D01*
X175679698Y-76868443D02*
X175679698Y-75868443D01*
X175679698Y-75868443D02*
X176155888Y-75868443D01*
X176679698Y-75868443D02*
X176679698Y-76106538D01*
X176441603Y-76011300D02*
X176679698Y-76106538D01*
X176679698Y-76106538D02*
X176917793Y-76011300D01*
X176536841Y-76297014D02*
X176679698Y-76106538D01*
X176679698Y-76106538D02*
X176822555Y-76297014D01*
X177441603Y-75868443D02*
X177441603Y-76106538D01*
X177203508Y-76011300D02*
X177441603Y-76106538D01*
X177441603Y-76106538D02*
X177679698Y-76011300D01*
X177298746Y-76297014D02*
X177441603Y-76106538D01*
X177441603Y-76106538D02*
X177584460Y-76297014D01*
D11*
X187194824Y-90980344D02*
X187194824Y-91789867D01*
X187194824Y-91789867D02*
X187242443Y-91885105D01*
X187242443Y-91885105D02*
X187290062Y-91932725D01*
X187290062Y-91932725D02*
X187385300Y-91980344D01*
X187385300Y-91980344D02*
X187575776Y-91980344D01*
X187575776Y-91980344D02*
X187671014Y-91932725D01*
X187671014Y-91932725D02*
X187718633Y-91885105D01*
X187718633Y-91885105D02*
X187766252Y-91789867D01*
X187766252Y-91789867D02*
X187766252Y-90980344D01*
X188766252Y-91980344D02*
X188194824Y-91980344D01*
X188480538Y-91980344D02*
X188480538Y-90980344D01*
X188480538Y-90980344D02*
X188385300Y-91123201D01*
X188385300Y-91123201D02*
X188290062Y-91218439D01*
X188290062Y-91218439D02*
X188194824Y-91266058D01*
X176187756Y-86795344D02*
X176521089Y-87795344D01*
X176521089Y-87795344D02*
X176854422Y-86795344D01*
X177759184Y-87700105D02*
X177711565Y-87747725D01*
X177711565Y-87747725D02*
X177568708Y-87795344D01*
X177568708Y-87795344D02*
X177473470Y-87795344D01*
X177473470Y-87795344D02*
X177330613Y-87747725D01*
X177330613Y-87747725D02*
X177235375Y-87652486D01*
X177235375Y-87652486D02*
X177187756Y-87557248D01*
X177187756Y-87557248D02*
X177140137Y-87366772D01*
X177140137Y-87366772D02*
X177140137Y-87223915D01*
X177140137Y-87223915D02*
X177187756Y-87033439D01*
X177187756Y-87033439D02*
X177235375Y-86938201D01*
X177235375Y-86938201D02*
X177330613Y-86842963D01*
X177330613Y-86842963D02*
X177473470Y-86795344D01*
X177473470Y-86795344D02*
X177568708Y-86795344D01*
X177568708Y-86795344D02*
X177711565Y-86842963D01*
X177711565Y-86842963D02*
X177759184Y-86890582D01*
X178759184Y-87700105D02*
X178711565Y-87747725D01*
X178711565Y-87747725D02*
X178568708Y-87795344D01*
X178568708Y-87795344D02*
X178473470Y-87795344D01*
X178473470Y-87795344D02*
X178330613Y-87747725D01*
X178330613Y-87747725D02*
X178235375Y-87652486D01*
X178235375Y-87652486D02*
X178187756Y-87557248D01*
X178187756Y-87557248D02*
X178140137Y-87366772D01*
X178140137Y-87366772D02*
X178140137Y-87223915D01*
X178140137Y-87223915D02*
X178187756Y-87033439D01*
X178187756Y-87033439D02*
X178235375Y-86938201D01*
X178235375Y-86938201D02*
X178330613Y-86842963D01*
X178330613Y-86842963D02*
X178473470Y-86795344D01*
X178473470Y-86795344D02*
X178568708Y-86795344D01*
X178568708Y-86795344D02*
X178711565Y-86842963D01*
X178711565Y-86842963D02*
X178759184Y-86890582D01*
X176854422Y-89382963D02*
X176759184Y-89335344D01*
X176759184Y-89335344D02*
X176616327Y-89335344D01*
X176616327Y-89335344D02*
X176473470Y-89382963D01*
X176473470Y-89382963D02*
X176378232Y-89478201D01*
X176378232Y-89478201D02*
X176330613Y-89573439D01*
X176330613Y-89573439D02*
X176282994Y-89763915D01*
X176282994Y-89763915D02*
X176282994Y-89906772D01*
X176282994Y-89906772D02*
X176330613Y-90097248D01*
X176330613Y-90097248D02*
X176378232Y-90192486D01*
X176378232Y-90192486D02*
X176473470Y-90287725D01*
X176473470Y-90287725D02*
X176616327Y-90335344D01*
X176616327Y-90335344D02*
X176711565Y-90335344D01*
X176711565Y-90335344D02*
X176854422Y-90287725D01*
X176854422Y-90287725D02*
X176902041Y-90240105D01*
X176902041Y-90240105D02*
X176902041Y-89906772D01*
X176902041Y-89906772D02*
X176711565Y-89906772D01*
X177330613Y-90335344D02*
X177330613Y-89335344D01*
X177330613Y-89335344D02*
X177902041Y-90335344D01*
X177902041Y-90335344D02*
X177902041Y-89335344D01*
X178378232Y-90335344D02*
X178378232Y-89335344D01*
X178378232Y-89335344D02*
X178616327Y-89335344D01*
X178616327Y-89335344D02*
X178759184Y-89382963D01*
X178759184Y-89382963D02*
X178854422Y-89478201D01*
X178854422Y-89478201D02*
X178902041Y-89573439D01*
X178902041Y-89573439D02*
X178949660Y-89763915D01*
X178949660Y-89763915D02*
X178949660Y-89906772D01*
X178949660Y-89906772D02*
X178902041Y-90097248D01*
X178902041Y-90097248D02*
X178854422Y-90192486D01*
X178854422Y-90192486D02*
X178759184Y-90287725D01*
X178759184Y-90287725D02*
X178616327Y-90335344D01*
X178616327Y-90335344D02*
X178378232Y-90335344D01*
X176282994Y-92827725D02*
X176425851Y-92875344D01*
X176425851Y-92875344D02*
X176663946Y-92875344D01*
X176663946Y-92875344D02*
X176759184Y-92827725D01*
X176759184Y-92827725D02*
X176806803Y-92780105D01*
X176806803Y-92780105D02*
X176854422Y-92684867D01*
X176854422Y-92684867D02*
X176854422Y-92589629D01*
X176854422Y-92589629D02*
X176806803Y-92494391D01*
X176806803Y-92494391D02*
X176759184Y-92446772D01*
X176759184Y-92446772D02*
X176663946Y-92399153D01*
X176663946Y-92399153D02*
X176473470Y-92351534D01*
X176473470Y-92351534D02*
X176378232Y-92303915D01*
X176378232Y-92303915D02*
X176330613Y-92256296D01*
X176330613Y-92256296D02*
X176282994Y-92161058D01*
X176282994Y-92161058D02*
X176282994Y-92065820D01*
X176282994Y-92065820D02*
X176330613Y-91970582D01*
X176330613Y-91970582D02*
X176378232Y-91922963D01*
X176378232Y-91922963D02*
X176473470Y-91875344D01*
X176473470Y-91875344D02*
X176711565Y-91875344D01*
X176711565Y-91875344D02*
X176854422Y-91922963D01*
X177854422Y-92780105D02*
X177806803Y-92827725D01*
X177806803Y-92827725D02*
X177663946Y-92875344D01*
X177663946Y-92875344D02*
X177568708Y-92875344D01*
X177568708Y-92875344D02*
X177425851Y-92827725D01*
X177425851Y-92827725D02*
X177330613Y-92732486D01*
X177330613Y-92732486D02*
X177282994Y-92637248D01*
X177282994Y-92637248D02*
X177235375Y-92446772D01*
X177235375Y-92446772D02*
X177235375Y-92303915D01*
X177235375Y-92303915D02*
X177282994Y-92113439D01*
X177282994Y-92113439D02*
X177330613Y-92018201D01*
X177330613Y-92018201D02*
X177425851Y-91922963D01*
X177425851Y-91922963D02*
X177568708Y-91875344D01*
X177568708Y-91875344D02*
X177663946Y-91875344D01*
X177663946Y-91875344D02*
X177806803Y-91922963D01*
X177806803Y-91922963D02*
X177854422Y-91970582D01*
X178759184Y-92875344D02*
X178282994Y-92875344D01*
X178282994Y-92875344D02*
X178282994Y-91875344D01*
X176282994Y-95367725D02*
X176425851Y-95415344D01*
X176425851Y-95415344D02*
X176663946Y-95415344D01*
X176663946Y-95415344D02*
X176759184Y-95367725D01*
X176759184Y-95367725D02*
X176806803Y-95320105D01*
X176806803Y-95320105D02*
X176854422Y-95224867D01*
X176854422Y-95224867D02*
X176854422Y-95129629D01*
X176854422Y-95129629D02*
X176806803Y-95034391D01*
X176806803Y-95034391D02*
X176759184Y-94986772D01*
X176759184Y-94986772D02*
X176663946Y-94939153D01*
X176663946Y-94939153D02*
X176473470Y-94891534D01*
X176473470Y-94891534D02*
X176378232Y-94843915D01*
X176378232Y-94843915D02*
X176330613Y-94796296D01*
X176330613Y-94796296D02*
X176282994Y-94701058D01*
X176282994Y-94701058D02*
X176282994Y-94605820D01*
X176282994Y-94605820D02*
X176330613Y-94510582D01*
X176330613Y-94510582D02*
X176378232Y-94462963D01*
X176378232Y-94462963D02*
X176473470Y-94415344D01*
X176473470Y-94415344D02*
X176711565Y-94415344D01*
X176711565Y-94415344D02*
X176854422Y-94462963D01*
X177282994Y-95415344D02*
X177282994Y-94415344D01*
X177282994Y-94415344D02*
X177521089Y-94415344D01*
X177521089Y-94415344D02*
X177663946Y-94462963D01*
X177663946Y-94462963D02*
X177759184Y-94558201D01*
X177759184Y-94558201D02*
X177806803Y-94653439D01*
X177806803Y-94653439D02*
X177854422Y-94843915D01*
X177854422Y-94843915D02*
X177854422Y-94986772D01*
X177854422Y-94986772D02*
X177806803Y-95177248D01*
X177806803Y-95177248D02*
X177759184Y-95272486D01*
X177759184Y-95272486D02*
X177663946Y-95367725D01*
X177663946Y-95367725D02*
X177521089Y-95415344D01*
X177521089Y-95415344D02*
X177282994Y-95415344D01*
X178235375Y-95129629D02*
X178711565Y-95129629D01*
X178140137Y-95415344D02*
X178473470Y-94415344D01*
X178473470Y-94415344D02*
X178806803Y-95415344D01*
D10*
X205106666Y-92314819D02*
X204773333Y-91838628D01*
X204535238Y-92314819D02*
X204535238Y-91314819D01*
X204535238Y-91314819D02*
X204916190Y-91314819D01*
X204916190Y-91314819D02*
X205011428Y-91362438D01*
X205011428Y-91362438D02*
X205059047Y-91410057D01*
X205059047Y-91410057D02*
X205106666Y-91505295D01*
X205106666Y-91505295D02*
X205106666Y-91648152D01*
X205106666Y-91648152D02*
X205059047Y-91743390D01*
X205059047Y-91743390D02*
X205011428Y-91791009D01*
X205011428Y-91791009D02*
X204916190Y-91838628D01*
X204916190Y-91838628D02*
X204535238Y-91838628D01*
X205535238Y-91791009D02*
X205868571Y-91791009D01*
X206011428Y-92314819D02*
X205535238Y-92314819D01*
X205535238Y-92314819D02*
X205535238Y-91314819D01*
X205535238Y-91314819D02*
X206011428Y-91314819D01*
X206773333Y-91791009D02*
X206440000Y-91791009D01*
X206440000Y-92314819D02*
X206440000Y-91314819D01*
X206440000Y-91314819D02*
X206916190Y-91314819D01*
X207440000Y-91314819D02*
X207440000Y-91552914D01*
X207201905Y-91457676D02*
X207440000Y-91552914D01*
X207440000Y-91552914D02*
X207678095Y-91457676D01*
X207297143Y-91743390D02*
X207440000Y-91552914D01*
X207440000Y-91552914D02*
X207582857Y-91743390D01*
X208201905Y-91314819D02*
X208201905Y-91552914D01*
X207963810Y-91457676D02*
X208201905Y-91552914D01*
X208201905Y-91552914D02*
X208440000Y-91457676D01*
X208059048Y-91743390D02*
X208201905Y-91552914D01*
X208201905Y-91552914D02*
X208344762Y-91743390D01*
X196146667Y-129133200D02*
X196289524Y-129180819D01*
X196289524Y-129180819D02*
X196527619Y-129180819D01*
X196527619Y-129180819D02*
X196622857Y-129133200D01*
X196622857Y-129133200D02*
X196670476Y-129085580D01*
X196670476Y-129085580D02*
X196718095Y-128990342D01*
X196718095Y-128990342D02*
X196718095Y-128895104D01*
X196718095Y-128895104D02*
X196670476Y-128799866D01*
X196670476Y-128799866D02*
X196622857Y-128752247D01*
X196622857Y-128752247D02*
X196527619Y-128704628D01*
X196527619Y-128704628D02*
X196337143Y-128657009D01*
X196337143Y-128657009D02*
X196241905Y-128609390D01*
X196241905Y-128609390D02*
X196194286Y-128561771D01*
X196194286Y-128561771D02*
X196146667Y-128466533D01*
X196146667Y-128466533D02*
X196146667Y-128371295D01*
X196146667Y-128371295D02*
X196194286Y-128276057D01*
X196194286Y-128276057D02*
X196241905Y-128228438D01*
X196241905Y-128228438D02*
X196337143Y-128180819D01*
X196337143Y-128180819D02*
X196575238Y-128180819D01*
X196575238Y-128180819D02*
X196718095Y-128228438D01*
X197051429Y-128180819D02*
X197289524Y-129180819D01*
X197289524Y-129180819D02*
X197480000Y-128466533D01*
X197480000Y-128466533D02*
X197670476Y-129180819D01*
X197670476Y-129180819D02*
X197908572Y-128180819D01*
X198765714Y-128180819D02*
X198289524Y-128180819D01*
X198289524Y-128180819D02*
X198241905Y-128657009D01*
X198241905Y-128657009D02*
X198289524Y-128609390D01*
X198289524Y-128609390D02*
X198384762Y-128561771D01*
X198384762Y-128561771D02*
X198622857Y-128561771D01*
X198622857Y-128561771D02*
X198718095Y-128609390D01*
X198718095Y-128609390D02*
X198765714Y-128657009D01*
X198765714Y-128657009D02*
X198813333Y-128752247D01*
X198813333Y-128752247D02*
X198813333Y-128990342D01*
X198813333Y-128990342D02*
X198765714Y-129085580D01*
X198765714Y-129085580D02*
X198718095Y-129133200D01*
X198718095Y-129133200D02*
X198622857Y-129180819D01*
X198622857Y-129180819D02*
X198384762Y-129180819D01*
X198384762Y-129180819D02*
X198289524Y-129133200D01*
X198289524Y-129133200D02*
X198241905Y-129085580D01*
X215546667Y-94834819D02*
X215546667Y-93834819D01*
X215546667Y-93834819D02*
X215880000Y-94549104D01*
X215880000Y-94549104D02*
X216213333Y-93834819D01*
X216213333Y-93834819D02*
X216213333Y-94834819D01*
X216689524Y-94834819D02*
X216689524Y-93834819D01*
X216689524Y-94311009D02*
X217260952Y-94311009D01*
X217260952Y-94834819D02*
X217260952Y-93834819D01*
X218165714Y-94168152D02*
X218165714Y-94834819D01*
X217927619Y-93787200D02*
X217689524Y-94501485D01*
X217689524Y-94501485D02*
X218308571Y-94501485D01*
D11*
X131903294Y-126937419D02*
X131903294Y-127746942D01*
X131903294Y-127746942D02*
X131950913Y-127842180D01*
X131950913Y-127842180D02*
X131998532Y-127889800D01*
X131998532Y-127889800D02*
X132093770Y-127937419D01*
X132093770Y-127937419D02*
X132284246Y-127937419D01*
X132284246Y-127937419D02*
X132379484Y-127889800D01*
X132379484Y-127889800D02*
X132427103Y-127842180D01*
X132427103Y-127842180D02*
X132474722Y-127746942D01*
X132474722Y-127746942D02*
X132474722Y-126937419D01*
X132903294Y-127032657D02*
X132950913Y-126985038D01*
X132950913Y-126985038D02*
X133046151Y-126937419D01*
X133046151Y-126937419D02*
X133284246Y-126937419D01*
X133284246Y-126937419D02*
X133379484Y-126985038D01*
X133379484Y-126985038D02*
X133427103Y-127032657D01*
X133427103Y-127032657D02*
X133474722Y-127127895D01*
X133474722Y-127127895D02*
X133474722Y-127223133D01*
X133474722Y-127223133D02*
X133427103Y-127365990D01*
X133427103Y-127365990D02*
X132855675Y-127937419D01*
X132855675Y-127937419D02*
X133474722Y-127937419D01*
X125302416Y-124913609D02*
X125635749Y-125413609D01*
X125635749Y-124913609D02*
X125302416Y-125413609D01*
X125588130Y-126913609D02*
X125350035Y-126913609D01*
X125350035Y-126913609D02*
X125326226Y-127151704D01*
X125326226Y-127151704D02*
X125350035Y-127127895D01*
X125350035Y-127127895D02*
X125397654Y-127104085D01*
X125397654Y-127104085D02*
X125516702Y-127104085D01*
X125516702Y-127104085D02*
X125564321Y-127127895D01*
X125564321Y-127127895D02*
X125588130Y-127151704D01*
X125588130Y-127151704D02*
X125611940Y-127199323D01*
X125611940Y-127199323D02*
X125611940Y-127318371D01*
X125611940Y-127318371D02*
X125588130Y-127365990D01*
X125588130Y-127365990D02*
X125564321Y-127389800D01*
X125564321Y-127389800D02*
X125516702Y-127413609D01*
X125516702Y-127413609D02*
X125397654Y-127413609D01*
X125397654Y-127413609D02*
X125350035Y-127389800D01*
X125350035Y-127389800D02*
X125326226Y-127365990D01*
X125754797Y-126913609D02*
X125921463Y-127413609D01*
X125921463Y-127413609D02*
X126088130Y-126913609D01*
X125445273Y-129175514D02*
X125445273Y-129413609D01*
X125278607Y-128913609D02*
X125445273Y-129175514D01*
X125445273Y-129175514D02*
X125611940Y-128913609D01*
X125611940Y-130937419D02*
X125564321Y-130913609D01*
X125564321Y-130913609D02*
X125492892Y-130913609D01*
X125492892Y-130913609D02*
X125421464Y-130937419D01*
X125421464Y-130937419D02*
X125373845Y-130985038D01*
X125373845Y-130985038D02*
X125350035Y-131032657D01*
X125350035Y-131032657D02*
X125326226Y-131127895D01*
X125326226Y-131127895D02*
X125326226Y-131199323D01*
X125326226Y-131199323D02*
X125350035Y-131294561D01*
X125350035Y-131294561D02*
X125373845Y-131342180D01*
X125373845Y-131342180D02*
X125421464Y-131389800D01*
X125421464Y-131389800D02*
X125492892Y-131413609D01*
X125492892Y-131413609D02*
X125540511Y-131413609D01*
X125540511Y-131413609D02*
X125611940Y-131389800D01*
X125611940Y-131389800D02*
X125635749Y-131365990D01*
X125635749Y-131365990D02*
X125635749Y-131199323D01*
X125635749Y-131199323D02*
X125540511Y-131199323D01*
X125850035Y-131413609D02*
X125850035Y-130913609D01*
X125850035Y-130913609D02*
X126135749Y-131413609D01*
X126135749Y-131413609D02*
X126135749Y-130913609D01*
X126373845Y-131413609D02*
X126373845Y-130913609D01*
X126373845Y-130913609D02*
X126492893Y-130913609D01*
X126492893Y-130913609D02*
X126564321Y-130937419D01*
X126564321Y-130937419D02*
X126611940Y-130985038D01*
X126611940Y-130985038D02*
X126635750Y-131032657D01*
X126635750Y-131032657D02*
X126659559Y-131127895D01*
X126659559Y-131127895D02*
X126659559Y-131199323D01*
X126659559Y-131199323D02*
X126635750Y-131294561D01*
X126635750Y-131294561D02*
X126611940Y-131342180D01*
X126611940Y-131342180D02*
X126564321Y-131389800D01*
X126564321Y-131389800D02*
X126492893Y-131413609D01*
X126492893Y-131413609D02*
X126373845Y-131413609D01*
D10*
X263860476Y-93937200D02*
X264003333Y-93984819D01*
X264003333Y-93984819D02*
X264241428Y-93984819D01*
X264241428Y-93984819D02*
X264336666Y-93937200D01*
X264336666Y-93937200D02*
X264384285Y-93889580D01*
X264384285Y-93889580D02*
X264431904Y-93794342D01*
X264431904Y-93794342D02*
X264431904Y-93699104D01*
X264431904Y-93699104D02*
X264384285Y-93603866D01*
X264384285Y-93603866D02*
X264336666Y-93556247D01*
X264336666Y-93556247D02*
X264241428Y-93508628D01*
X264241428Y-93508628D02*
X264050952Y-93461009D01*
X264050952Y-93461009D02*
X263955714Y-93413390D01*
X263955714Y-93413390D02*
X263908095Y-93365771D01*
X263908095Y-93365771D02*
X263860476Y-93270533D01*
X263860476Y-93270533D02*
X263860476Y-93175295D01*
X263860476Y-93175295D02*
X263908095Y-93080057D01*
X263908095Y-93080057D02*
X263955714Y-93032438D01*
X263955714Y-93032438D02*
X264050952Y-92984819D01*
X264050952Y-92984819D02*
X264289047Y-92984819D01*
X264289047Y-92984819D02*
X264431904Y-93032438D01*
X264765238Y-92984819D02*
X265003333Y-93984819D01*
X265003333Y-93984819D02*
X265193809Y-93270533D01*
X265193809Y-93270533D02*
X265384285Y-93984819D01*
X265384285Y-93984819D02*
X265622381Y-92984819D01*
X266527142Y-93984819D02*
X265955714Y-93984819D01*
X266241428Y-93984819D02*
X266241428Y-92984819D01*
X266241428Y-92984819D02*
X266146190Y-93127676D01*
X266146190Y-93127676D02*
X266050952Y-93222914D01*
X266050952Y-93222914D02*
X265955714Y-93270533D01*
X267098571Y-93413390D02*
X267003333Y-93365771D01*
X267003333Y-93365771D02*
X266955714Y-93318152D01*
X266955714Y-93318152D02*
X266908095Y-93222914D01*
X266908095Y-93222914D02*
X266908095Y-93175295D01*
X266908095Y-93175295D02*
X266955714Y-93080057D01*
X266955714Y-93080057D02*
X267003333Y-93032438D01*
X267003333Y-93032438D02*
X267098571Y-92984819D01*
X267098571Y-92984819D02*
X267289047Y-92984819D01*
X267289047Y-92984819D02*
X267384285Y-93032438D01*
X267384285Y-93032438D02*
X267431904Y-93080057D01*
X267431904Y-93080057D02*
X267479523Y-93175295D01*
X267479523Y-93175295D02*
X267479523Y-93222914D01*
X267479523Y-93222914D02*
X267431904Y-93318152D01*
X267431904Y-93318152D02*
X267384285Y-93365771D01*
X267384285Y-93365771D02*
X267289047Y-93413390D01*
X267289047Y-93413390D02*
X267098571Y-93413390D01*
X267098571Y-93413390D02*
X267003333Y-93461009D01*
X267003333Y-93461009D02*
X266955714Y-93508628D01*
X266955714Y-93508628D02*
X266908095Y-93603866D01*
X266908095Y-93603866D02*
X266908095Y-93794342D01*
X266908095Y-93794342D02*
X266955714Y-93889580D01*
X266955714Y-93889580D02*
X267003333Y-93937200D01*
X267003333Y-93937200D02*
X267098571Y-93984819D01*
X267098571Y-93984819D02*
X267289047Y-93984819D01*
X267289047Y-93984819D02*
X267384285Y-93937200D01*
X267384285Y-93937200D02*
X267431904Y-93889580D01*
X267431904Y-93889580D02*
X267479523Y-93794342D01*
X267479523Y-93794342D02*
X267479523Y-93603866D01*
X267479523Y-93603866D02*
X267431904Y-93508628D01*
X267431904Y-93508628D02*
X267384285Y-93461009D01*
X267384285Y-93461009D02*
X267289047Y-93413390D01*
X174354912Y-110220499D02*
X174021579Y-109744308D01*
X173783484Y-110220499D02*
X173783484Y-109220499D01*
X173783484Y-109220499D02*
X174164436Y-109220499D01*
X174164436Y-109220499D02*
X174259674Y-109268118D01*
X174259674Y-109268118D02*
X174307293Y-109315737D01*
X174307293Y-109315737D02*
X174354912Y-109410975D01*
X174354912Y-109410975D02*
X174354912Y-109553832D01*
X174354912Y-109553832D02*
X174307293Y-109649070D01*
X174307293Y-109649070D02*
X174259674Y-109696689D01*
X174259674Y-109696689D02*
X174164436Y-109744308D01*
X174164436Y-109744308D02*
X173783484Y-109744308D01*
X174783484Y-109696689D02*
X175116817Y-109696689D01*
X175259674Y-110220499D02*
X174783484Y-110220499D01*
X174783484Y-110220499D02*
X174783484Y-109220499D01*
X174783484Y-109220499D02*
X175259674Y-109220499D01*
X176021579Y-109696689D02*
X175688246Y-109696689D01*
X175688246Y-110220499D02*
X175688246Y-109220499D01*
X175688246Y-109220499D02*
X176164436Y-109220499D01*
X176688246Y-109220499D02*
X176688246Y-109458594D01*
X176450151Y-109363356D02*
X176688246Y-109458594D01*
X176688246Y-109458594D02*
X176926341Y-109363356D01*
X176545389Y-109649070D02*
X176688246Y-109458594D01*
X176688246Y-109458594D02*
X176831103Y-109649070D01*
X177450151Y-109220499D02*
X177450151Y-109458594D01*
X177212056Y-109363356D02*
X177450151Y-109458594D01*
X177450151Y-109458594D02*
X177688246Y-109363356D01*
X177307294Y-109649070D02*
X177450151Y-109458594D01*
X177450151Y-109458594D02*
X177593008Y-109649070D01*
X157570476Y-148183200D02*
X157713333Y-148230819D01*
X157713333Y-148230819D02*
X157951428Y-148230819D01*
X157951428Y-148230819D02*
X158046666Y-148183200D01*
X158046666Y-148183200D02*
X158094285Y-148135580D01*
X158094285Y-148135580D02*
X158141904Y-148040342D01*
X158141904Y-148040342D02*
X158141904Y-147945104D01*
X158141904Y-147945104D02*
X158094285Y-147849866D01*
X158094285Y-147849866D02*
X158046666Y-147802247D01*
X158046666Y-147802247D02*
X157951428Y-147754628D01*
X157951428Y-147754628D02*
X157760952Y-147707009D01*
X157760952Y-147707009D02*
X157665714Y-147659390D01*
X157665714Y-147659390D02*
X157618095Y-147611771D01*
X157618095Y-147611771D02*
X157570476Y-147516533D01*
X157570476Y-147516533D02*
X157570476Y-147421295D01*
X157570476Y-147421295D02*
X157618095Y-147326057D01*
X157618095Y-147326057D02*
X157665714Y-147278438D01*
X157665714Y-147278438D02*
X157760952Y-147230819D01*
X157760952Y-147230819D02*
X157999047Y-147230819D01*
X157999047Y-147230819D02*
X158141904Y-147278438D01*
X158475238Y-147230819D02*
X158713333Y-148230819D01*
X158713333Y-148230819D02*
X158903809Y-147516533D01*
X158903809Y-147516533D02*
X159094285Y-148230819D01*
X159094285Y-148230819D02*
X159332381Y-147230819D01*
X159665714Y-147326057D02*
X159713333Y-147278438D01*
X159713333Y-147278438D02*
X159808571Y-147230819D01*
X159808571Y-147230819D02*
X160046666Y-147230819D01*
X160046666Y-147230819D02*
X160141904Y-147278438D01*
X160141904Y-147278438D02*
X160189523Y-147326057D01*
X160189523Y-147326057D02*
X160237142Y-147421295D01*
X160237142Y-147421295D02*
X160237142Y-147516533D01*
X160237142Y-147516533D02*
X160189523Y-147659390D01*
X160189523Y-147659390D02*
X159618095Y-148230819D01*
X159618095Y-148230819D02*
X160237142Y-148230819D01*
X160618095Y-147326057D02*
X160665714Y-147278438D01*
X160665714Y-147278438D02*
X160760952Y-147230819D01*
X160760952Y-147230819D02*
X160999047Y-147230819D01*
X160999047Y-147230819D02*
X161094285Y-147278438D01*
X161094285Y-147278438D02*
X161141904Y-147326057D01*
X161141904Y-147326057D02*
X161189523Y-147421295D01*
X161189523Y-147421295D02*
X161189523Y-147516533D01*
X161189523Y-147516533D02*
X161141904Y-147659390D01*
X161141904Y-147659390D02*
X160570476Y-148230819D01*
X160570476Y-148230819D02*
X161189523Y-148230819D01*
X122126666Y-138764819D02*
X121793333Y-138288628D01*
X121555238Y-138764819D02*
X121555238Y-137764819D01*
X121555238Y-137764819D02*
X121936190Y-137764819D01*
X121936190Y-137764819D02*
X122031428Y-137812438D01*
X122031428Y-137812438D02*
X122079047Y-137860057D01*
X122079047Y-137860057D02*
X122126666Y-137955295D01*
X122126666Y-137955295D02*
X122126666Y-138098152D01*
X122126666Y-138098152D02*
X122079047Y-138193390D01*
X122079047Y-138193390D02*
X122031428Y-138241009D01*
X122031428Y-138241009D02*
X121936190Y-138288628D01*
X121936190Y-138288628D02*
X121555238Y-138288628D01*
X122555238Y-138241009D02*
X122888571Y-138241009D01*
X123031428Y-138764819D02*
X122555238Y-138764819D01*
X122555238Y-138764819D02*
X122555238Y-137764819D01*
X122555238Y-137764819D02*
X123031428Y-137764819D01*
X123793333Y-138241009D02*
X123460000Y-138241009D01*
X123460000Y-138764819D02*
X123460000Y-137764819D01*
X123460000Y-137764819D02*
X123936190Y-137764819D01*
X124460000Y-137764819D02*
X124460000Y-138002914D01*
X124221905Y-137907676D02*
X124460000Y-138002914D01*
X124460000Y-138002914D02*
X124698095Y-137907676D01*
X124317143Y-138193390D02*
X124460000Y-138002914D01*
X124460000Y-138002914D02*
X124602857Y-138193390D01*
X125221905Y-137764819D02*
X125221905Y-138002914D01*
X124983810Y-137907676D02*
X125221905Y-138002914D01*
X125221905Y-138002914D02*
X125460000Y-137907676D01*
X125079048Y-138193390D02*
X125221905Y-138002914D01*
X125221905Y-138002914D02*
X125364762Y-138193390D01*
X215196667Y-110083200D02*
X215339524Y-110130819D01*
X215339524Y-110130819D02*
X215577619Y-110130819D01*
X215577619Y-110130819D02*
X215672857Y-110083200D01*
X215672857Y-110083200D02*
X215720476Y-110035580D01*
X215720476Y-110035580D02*
X215768095Y-109940342D01*
X215768095Y-109940342D02*
X215768095Y-109845104D01*
X215768095Y-109845104D02*
X215720476Y-109749866D01*
X215720476Y-109749866D02*
X215672857Y-109702247D01*
X215672857Y-109702247D02*
X215577619Y-109654628D01*
X215577619Y-109654628D02*
X215387143Y-109607009D01*
X215387143Y-109607009D02*
X215291905Y-109559390D01*
X215291905Y-109559390D02*
X215244286Y-109511771D01*
X215244286Y-109511771D02*
X215196667Y-109416533D01*
X215196667Y-109416533D02*
X215196667Y-109321295D01*
X215196667Y-109321295D02*
X215244286Y-109226057D01*
X215244286Y-109226057D02*
X215291905Y-109178438D01*
X215291905Y-109178438D02*
X215387143Y-109130819D01*
X215387143Y-109130819D02*
X215625238Y-109130819D01*
X215625238Y-109130819D02*
X215768095Y-109178438D01*
X216101429Y-109130819D02*
X216339524Y-110130819D01*
X216339524Y-110130819D02*
X216530000Y-109416533D01*
X216530000Y-109416533D02*
X216720476Y-110130819D01*
X216720476Y-110130819D02*
X216958572Y-109130819D01*
X217244286Y-109130819D02*
X217863333Y-109130819D01*
X217863333Y-109130819D02*
X217530000Y-109511771D01*
X217530000Y-109511771D02*
X217672857Y-109511771D01*
X217672857Y-109511771D02*
X217768095Y-109559390D01*
X217768095Y-109559390D02*
X217815714Y-109607009D01*
X217815714Y-109607009D02*
X217863333Y-109702247D01*
X217863333Y-109702247D02*
X217863333Y-109940342D01*
X217863333Y-109940342D02*
X217815714Y-110035580D01*
X217815714Y-110035580D02*
X217768095Y-110083200D01*
X217768095Y-110083200D02*
X217672857Y-110130819D01*
X217672857Y-110130819D02*
X217387143Y-110130819D01*
X217387143Y-110130819D02*
X217291905Y-110083200D01*
X217291905Y-110083200D02*
X217244286Y-110035580D01*
X250056010Y-136788268D02*
X250198867Y-136835887D01*
X250198867Y-136835887D02*
X250436962Y-136835887D01*
X250436962Y-136835887D02*
X250532200Y-136788268D01*
X250532200Y-136788268D02*
X250579819Y-136740648D01*
X250579819Y-136740648D02*
X250627438Y-136645410D01*
X250627438Y-136645410D02*
X250627438Y-136550172D01*
X250627438Y-136550172D02*
X250579819Y-136454934D01*
X250579819Y-136454934D02*
X250532200Y-136407315D01*
X250532200Y-136407315D02*
X250436962Y-136359696D01*
X250436962Y-136359696D02*
X250246486Y-136312077D01*
X250246486Y-136312077D02*
X250151248Y-136264458D01*
X250151248Y-136264458D02*
X250103629Y-136216839D01*
X250103629Y-136216839D02*
X250056010Y-136121601D01*
X250056010Y-136121601D02*
X250056010Y-136026363D01*
X250056010Y-136026363D02*
X250103629Y-135931125D01*
X250103629Y-135931125D02*
X250151248Y-135883506D01*
X250151248Y-135883506D02*
X250246486Y-135835887D01*
X250246486Y-135835887D02*
X250484581Y-135835887D01*
X250484581Y-135835887D02*
X250627438Y-135883506D01*
X250960772Y-135835887D02*
X251198867Y-136835887D01*
X251198867Y-136835887D02*
X251389343Y-136121601D01*
X251389343Y-136121601D02*
X251579819Y-136835887D01*
X251579819Y-136835887D02*
X251817915Y-135835887D01*
X252722676Y-136835887D02*
X252151248Y-136835887D01*
X252436962Y-136835887D02*
X252436962Y-135835887D01*
X252436962Y-135835887D02*
X252341724Y-135978744D01*
X252341724Y-135978744D02*
X252246486Y-136073982D01*
X252246486Y-136073982D02*
X252151248Y-136121601D01*
X253103629Y-135931125D02*
X253151248Y-135883506D01*
X253151248Y-135883506D02*
X253246486Y-135835887D01*
X253246486Y-135835887D02*
X253484581Y-135835887D01*
X253484581Y-135835887D02*
X253579819Y-135883506D01*
X253579819Y-135883506D02*
X253627438Y-135931125D01*
X253627438Y-135931125D02*
X253675057Y-136026363D01*
X253675057Y-136026363D02*
X253675057Y-136121601D01*
X253675057Y-136121601D02*
X253627438Y-136264458D01*
X253627438Y-136264458D02*
X253056010Y-136835887D01*
X253056010Y-136835887D02*
X253675057Y-136835887D01*
X177096667Y-148183200D02*
X177239524Y-148230819D01*
X177239524Y-148230819D02*
X177477619Y-148230819D01*
X177477619Y-148230819D02*
X177572857Y-148183200D01*
X177572857Y-148183200D02*
X177620476Y-148135580D01*
X177620476Y-148135580D02*
X177668095Y-148040342D01*
X177668095Y-148040342D02*
X177668095Y-147945104D01*
X177668095Y-147945104D02*
X177620476Y-147849866D01*
X177620476Y-147849866D02*
X177572857Y-147802247D01*
X177572857Y-147802247D02*
X177477619Y-147754628D01*
X177477619Y-147754628D02*
X177287143Y-147707009D01*
X177287143Y-147707009D02*
X177191905Y-147659390D01*
X177191905Y-147659390D02*
X177144286Y-147611771D01*
X177144286Y-147611771D02*
X177096667Y-147516533D01*
X177096667Y-147516533D02*
X177096667Y-147421295D01*
X177096667Y-147421295D02*
X177144286Y-147326057D01*
X177144286Y-147326057D02*
X177191905Y-147278438D01*
X177191905Y-147278438D02*
X177287143Y-147230819D01*
X177287143Y-147230819D02*
X177525238Y-147230819D01*
X177525238Y-147230819D02*
X177668095Y-147278438D01*
X178001429Y-147230819D02*
X178239524Y-148230819D01*
X178239524Y-148230819D02*
X178430000Y-147516533D01*
X178430000Y-147516533D02*
X178620476Y-148230819D01*
X178620476Y-148230819D02*
X178858572Y-147230819D01*
X179144286Y-147230819D02*
X179810952Y-147230819D01*
X179810952Y-147230819D02*
X179382381Y-148230819D01*
X122126666Y-157274819D02*
X121793333Y-156798628D01*
X121555238Y-157274819D02*
X121555238Y-156274819D01*
X121555238Y-156274819D02*
X121936190Y-156274819D01*
X121936190Y-156274819D02*
X122031428Y-156322438D01*
X122031428Y-156322438D02*
X122079047Y-156370057D01*
X122079047Y-156370057D02*
X122126666Y-156465295D01*
X122126666Y-156465295D02*
X122126666Y-156608152D01*
X122126666Y-156608152D02*
X122079047Y-156703390D01*
X122079047Y-156703390D02*
X122031428Y-156751009D01*
X122031428Y-156751009D02*
X121936190Y-156798628D01*
X121936190Y-156798628D02*
X121555238Y-156798628D01*
X122555238Y-156751009D02*
X122888571Y-156751009D01*
X123031428Y-157274819D02*
X122555238Y-157274819D01*
X122555238Y-157274819D02*
X122555238Y-156274819D01*
X122555238Y-156274819D02*
X123031428Y-156274819D01*
X123793333Y-156751009D02*
X123460000Y-156751009D01*
X123460000Y-157274819D02*
X123460000Y-156274819D01*
X123460000Y-156274819D02*
X123936190Y-156274819D01*
X124460000Y-156274819D02*
X124460000Y-156512914D01*
X124221905Y-156417676D02*
X124460000Y-156512914D01*
X124460000Y-156512914D02*
X124698095Y-156417676D01*
X124317143Y-156703390D02*
X124460000Y-156512914D01*
X124460000Y-156512914D02*
X124602857Y-156703390D01*
X125221905Y-156274819D02*
X125221905Y-156512914D01*
X124983810Y-156417676D02*
X125221905Y-156512914D01*
X125221905Y-156512914D02*
X125460000Y-156417676D01*
X125079048Y-156703390D02*
X125221905Y-156512914D01*
X125221905Y-156512914D02*
X125364762Y-156703390D01*
D12*
X246175534Y-106670000D02*
X246175534Y-109180000D01*
X246175534Y-106670000D02*
X258395534Y-106670000D01*
X246175534Y-111480000D02*
X246175534Y-114080000D01*
X246175534Y-116380000D02*
X246175534Y-118890000D01*
X258395534Y-106670000D02*
X258395534Y-109180000D01*
X258395534Y-111480000D02*
X258395534Y-114080000D01*
X258395534Y-116380000D02*
X258395534Y-118890000D01*
X258395534Y-118890000D02*
X246175534Y-118890000D01*
X255835534Y-112780000D02*
G75*
G02*
X248735534Y-112780000I-3550000J0D01*
G01*
X248735534Y-112780000D02*
G75*
G02*
X255835534Y-112780000I3550000J0D01*
G01*
X237000000Y-94380000D02*
X237000000Y-94840000D01*
X237000000Y-94840000D02*
X236000000Y-94840000D01*
X237000000Y-97620000D02*
X237000000Y-98080000D01*
X237000000Y-98080000D02*
X243200000Y-98080000D01*
X243200000Y-94380000D02*
X237000000Y-94380000D01*
X243200000Y-94380000D02*
X243200000Y-94840000D01*
X243200000Y-97620000D02*
X243200000Y-98080000D01*
X238600000Y-95680000D02*
X241450000Y-95680000D01*
X241450000Y-96730000D01*
X238600000Y-96730000D01*
X238600000Y-95680000D01*
X249700000Y-94380000D02*
X249700000Y-94840000D01*
X249700000Y-94840000D02*
X248700000Y-94840000D01*
X249700000Y-97620000D02*
X249700000Y-98080000D01*
X249700000Y-98080000D02*
X255900000Y-98080000D01*
X255900000Y-94380000D02*
X249700000Y-94380000D01*
X255900000Y-94380000D02*
X255900000Y-94840000D01*
X255900000Y-97620000D02*
X255900000Y-98080000D01*
X251300000Y-95680000D02*
X254150000Y-95680000D01*
X254150000Y-96730000D01*
X251300000Y-96730000D01*
X251300000Y-95680000D01*
X152395000Y-129615000D02*
X166365000Y-129615000D01*
X152395000Y-143585000D02*
X152395000Y-129615000D01*
X166365000Y-129615000D02*
X166365000Y-143585000D01*
X166365000Y-143585000D02*
X152395000Y-143585000D01*
X171445000Y-129615000D02*
X185415000Y-129615000D01*
X171445000Y-143585000D02*
X171445000Y-129615000D01*
X185415000Y-129615000D02*
X185415000Y-143585000D01*
X185415000Y-143585000D02*
X171445000Y-143585000D01*
X131762500Y-79600000D02*
X131762500Y-80983000D01*
X131762500Y-79600000D02*
X133145500Y-79600000D01*
X132002500Y-79840000D02*
X132002500Y-84680000D01*
X132002500Y-79840000D02*
X141902500Y-79840000D01*
X132002500Y-84680000D02*
X141902500Y-84680000D01*
X136275833Y-81625000D02*
X136275833Y-82895000D01*
X141902500Y-79840000D02*
X141902500Y-84680000D01*
X134922500Y-81625000D02*
X136275833Y-81625000D01*
X136275833Y-82895000D01*
X134922500Y-82895000D01*
X134922500Y-81625000D01*
G36*
X134922500Y-81625000D02*
G01*
X136275833Y-81625000D01*
X136275833Y-82895000D01*
X134922500Y-82895000D01*
X134922500Y-81625000D01*
G37*
X134922500Y-81625000D02*
X138982500Y-81625000D01*
X138982500Y-82895000D01*
X134922500Y-82895000D01*
X134922500Y-81625000D01*
X190495000Y-148665000D02*
X204465000Y-148665000D01*
X190495000Y-162635000D02*
X190495000Y-148665000D01*
X204465000Y-148665000D02*
X204465000Y-162635000D01*
X204465000Y-162635000D02*
X190495000Y-162635000D01*
X230420000Y-122425534D02*
X230420000Y-124935534D01*
X230420000Y-122425534D02*
X242640000Y-122425534D01*
X230420000Y-127235534D02*
X230420000Y-129835534D01*
X230420000Y-132135534D02*
X230420000Y-134645534D01*
X242640000Y-122425534D02*
X242640000Y-124935534D01*
X242640000Y-127235534D02*
X242640000Y-129835534D01*
X242640000Y-132135534D02*
X242640000Y-134645534D01*
X242640000Y-134645534D02*
X230420000Y-134645534D01*
X240080000Y-128535534D02*
G75*
G02*
X232980000Y-128535534I-3550000J0D01*
G01*
X232980000Y-128535534D02*
G75*
G02*
X240080000Y-128535534I3550000J0D01*
G01*
X190495000Y-110565000D02*
X204465000Y-110565000D01*
X190495000Y-124535000D02*
X190495000Y-110565000D01*
X204465000Y-110565000D02*
X204465000Y-124535000D01*
X204465000Y-124535000D02*
X190495000Y-124535000D01*
X209545000Y-148665000D02*
X223515000Y-148665000D01*
X209545000Y-162635000D02*
X209545000Y-148665000D01*
X223515000Y-148665000D02*
X223515000Y-162635000D01*
X223515000Y-162635000D02*
X209545000Y-162635000D01*
X171445000Y-110565000D02*
X185415000Y-110565000D01*
X171445000Y-124535000D02*
X171445000Y-110565000D01*
X185415000Y-110565000D02*
X185415000Y-124535000D01*
X185415000Y-124535000D02*
X171445000Y-124535000D01*
X152395000Y-110565000D02*
X166365000Y-110565000D01*
X152395000Y-124535000D02*
X152395000Y-110565000D01*
X166365000Y-110565000D02*
X166365000Y-124535000D01*
X166365000Y-124535000D02*
X152395000Y-124535000D01*
X261931068Y-122425534D02*
X261931068Y-124935534D01*
X261931068Y-122425534D02*
X274151068Y-122425534D01*
X261931068Y-127235534D02*
X261931068Y-129835534D01*
X261931068Y-132135534D02*
X261931068Y-134645534D01*
X274151068Y-122425534D02*
X274151068Y-124935534D01*
X274151068Y-127235534D02*
X274151068Y-129835534D01*
X274151068Y-132135534D02*
X274151068Y-134645534D01*
X274151068Y-134645534D02*
X261931068Y-134645534D01*
X271591068Y-128535534D02*
G75*
G02*
X264491068Y-128535534I-3550000J0D01*
G01*
X264491068Y-128535534D02*
G75*
G02*
X271591068Y-128535534I3550000J0D01*
G01*
X209545000Y-129615000D02*
X223515000Y-129615000D01*
X209545000Y-143585000D02*
X209545000Y-129615000D01*
X223515000Y-129615000D02*
X223515000Y-143585000D01*
X223515000Y-143585000D02*
X209545000Y-143585000D01*
D11*
X167455000Y-85025000D02*
X167455000Y-97025000D01*
X167455000Y-97025000D02*
X208455000Y-97025000D01*
X208455000Y-85025000D02*
X167455000Y-85025000D01*
X208455000Y-97025000D02*
X208455000Y-85025000D01*
X171455000Y-87022925D02*
G75*
G02*
X167455000Y-87022925I-2000000J0D01*
G01*
X167455000Y-87022925D02*
G75*
G02*
X171455000Y-87022925I2000000J0D01*
G01*
X171456729Y-95022925D02*
G75*
G02*
X167456729Y-95022925I-2000000J0D01*
G01*
X167456729Y-95022925D02*
G75*
G02*
X171456729Y-95022925I2000000J0D01*
G01*
X208455000Y-87022925D02*
G75*
G02*
X204455000Y-87022925I-2000000J0D01*
G01*
X204455000Y-87022925D02*
G75*
G02*
X208455000Y-87022925I2000000J0D01*
G01*
X208456729Y-95022925D02*
G75*
G02*
X204456729Y-95022925I-2000000J0D01*
G01*
X204456729Y-95022925D02*
G75*
G02*
X208456729Y-95022925I2000000J0D01*
G01*
D12*
X190495000Y-129615000D02*
X204465000Y-129615000D01*
X190495000Y-143585000D02*
X190495000Y-129615000D01*
X204465000Y-129615000D02*
X204465000Y-143585000D01*
X204465000Y-143585000D02*
X190495000Y-143585000D01*
D11*
X121415199Y-117980000D02*
X143915199Y-117980000D01*
X121415199Y-137980000D02*
X121415199Y-117980000D01*
X143915199Y-117980000D02*
X143915199Y-137980000D01*
X143915199Y-137980000D02*
X121415199Y-137980000D01*
X123665199Y-136980000D02*
G75*
G02*
X121665199Y-136980000I-1000000J0D01*
G01*
X121665199Y-136980000D02*
G75*
G02*
X123665199Y-136980000I1000000J0D01*
G01*
X143665199Y-135980000D02*
G75*
G02*
X141665199Y-135980000I-1000000J0D01*
G01*
X141665199Y-135980000D02*
G75*
G02*
X143665199Y-135980000I1000000J0D01*
G01*
D12*
X262400000Y-94380000D02*
X262400000Y-94840000D01*
X262400000Y-94840000D02*
X261400000Y-94840000D01*
X262400000Y-97620000D02*
X262400000Y-98080000D01*
X262400000Y-98080000D02*
X268600000Y-98080000D01*
X268600000Y-94380000D02*
X262400000Y-94380000D01*
X268600000Y-94380000D02*
X268600000Y-94840000D01*
X268600000Y-97620000D02*
X268600000Y-98080000D01*
X264000000Y-95680000D02*
X266850000Y-95680000D01*
X266850000Y-96730000D01*
X264000000Y-96730000D01*
X264000000Y-95680000D01*
X152395000Y-148665000D02*
X166365000Y-148665000D01*
X152395000Y-162635000D02*
X152395000Y-148665000D01*
X166365000Y-148665000D02*
X166365000Y-162635000D01*
X166365000Y-162635000D02*
X152395000Y-162635000D01*
X209545000Y-110565000D02*
X223515000Y-110565000D01*
X209545000Y-124535000D02*
X209545000Y-110565000D01*
X223515000Y-110565000D02*
X223515000Y-124535000D01*
X223515000Y-124535000D02*
X209545000Y-124535000D01*
X246175534Y-138181068D02*
X246175534Y-140691068D01*
X246175534Y-138181068D02*
X258395534Y-138181068D01*
X246175534Y-142991068D02*
X246175534Y-145591068D01*
X246175534Y-147891068D02*
X246175534Y-150401068D01*
X258395534Y-138181068D02*
X258395534Y-140691068D01*
X258395534Y-142991068D02*
X258395534Y-145591068D01*
X258395534Y-147891068D02*
X258395534Y-150401068D01*
X258395534Y-150401068D02*
X246175534Y-150401068D01*
X255835534Y-144291068D02*
G75*
G02*
X248735534Y-144291068I-3550000J0D01*
G01*
X248735534Y-144291068D02*
G75*
G02*
X255835534Y-144291068I3550000J0D01*
G01*
X171445000Y-148665000D02*
X185415000Y-148665000D01*
X171445000Y-162635000D02*
X171445000Y-148665000D01*
X185415000Y-148665000D02*
X185415000Y-162635000D01*
X185415000Y-162635000D02*
X171445000Y-162635000D01*
M02*
