M48
INCH
T1C0.0787
T2C0.1063
T3C0.1575
%
G90
G05
T1
X7.0086Y-3.6795
X7.0087Y-3.9945
X7.4138Y-5.0768
X8.0516Y-4.3661
X8.4653Y-3.6795
X8.4654Y-3.9945
T2
X6.8673Y-3.4437
X6.8673Y-5.7272
X8.7965Y-3.4437
X8.7965Y-5.7272
T3
X9.537Y-3.337
X9.537Y-4.037
X9.537Y-4.737
X9.537Y-5.437
X10.237Y-3.337
X10.237Y-4.037
X10.237Y-4.737
X10.237Y-5.437
X10.937Y-3.337
X10.937Y-4.037
X10.937Y-4.737
X10.937Y-5.437
M30
