M48
INCH
T1C0.0315
T2C0.0394
T3C0.0402
T4C0.0433
T5C0.0512
T6C0.0591
%
G90
G05
T1
X7.437Y-4.137
X7.437Y-4.2354
X7.437Y-5.237
X7.437Y-5.537
X7.537Y-5.237
X7.537Y-5.537
X7.637Y-5.237
X7.637Y-5.537
X7.737Y-5.237
X7.737Y-5.537
X7.837Y-5.237
X7.837Y-5.537
X7.937Y-5.237
X7.937Y-5.537
X8.037Y-5.237
X8.037Y-5.537
X8.137Y-5.237
X8.137Y-5.537
X8.3386Y-5.537
X8.437Y-4.5449
X8.437Y-4.6433
X8.437Y-5.537
T2
X8.2701Y-4.4547
X8.2701Y-4.5335
X8.2701Y-4.6122
X8.2701Y-4.6909
X8.2701Y-4.7697
X8.2701Y-4.8484
X8.7465Y-3.6354
X8.7465Y-3.7354
X8.7465Y-3.8354
X8.7465Y-3.9354
X8.7465Y-4.0354
X8.7465Y-4.1354
X8.7465Y-4.2354
X8.7465Y-4.3354
X8.7465Y-4.4354
X8.7465Y-4.5354
X8.7465Y-4.6354
X8.7465Y-4.7354
X8.7465Y-4.8354
X8.7465Y-4.9354
X8.7465Y-5.0354
X8.7465Y-5.1354
X8.7465Y-5.2354
X8.7465Y-5.3354
X8.7465Y-5.4354
X8.7465Y-5.5354
X8.8465Y-3.6354
X8.8465Y-3.7354
X8.8465Y-3.8354
X8.8465Y-3.9354
X8.8465Y-4.0354
X8.8465Y-4.1354
X8.8465Y-4.2354
X8.8465Y-4.3354
X8.8465Y-4.4354
X8.8465Y-4.5354
X8.8465Y-4.6354
X8.8465Y-4.7354
X8.8465Y-4.8354
X8.8465Y-4.9354
X8.8465Y-5.0354
X8.8465Y-5.1354
X8.8465Y-5.2354
X8.8465Y-5.3354
X8.8465Y-5.4354
X8.8465Y-5.5354
T3
X7.2055Y-3.687
X7.2055Y-3.787
X7.2055Y-3.887
X7.2055Y-3.987
T4
X6.687Y-2.787
X6.687Y-3.0429
X6.8642Y-2.787
X6.8642Y-3.0429
X9.037Y-2.987
X9.037Y-3.287
X9.237Y-3.287
X9.237Y-3.587
X9.237Y-3.987
X9.237Y-4.287
X9.237Y-4.687
X9.237Y-4.987
X9.237Y-5.387
X9.237Y-5.687
X9.937Y-3.287
X9.937Y-3.587
X9.937Y-3.987
X9.937Y-4.287
X9.937Y-4.687
X9.937Y-4.987
X9.937Y-5.387
X9.937Y-5.687
X10.637Y-3.287
X10.637Y-3.587
X10.637Y-3.987
X10.637Y-4.287
X10.637Y-4.687
X10.637Y-4.987
X10.637Y-5.387
X10.637Y-5.687
X11.437Y-2.987
X11.437Y-3.287
X11.637Y-3.237
X11.637Y-5.087
X11.637Y-5.387
X11.937Y-3.237
X12.087Y-5.737
X12.137Y-3.237
X12.137Y-4.537
X12.387Y-5.737
X12.437Y-3.237
X12.437Y-4.537
X12.637Y-3.237
X12.837Y-5.087
X12.837Y-5.387
X12.937Y-3.237
X13.0098Y-2.787
X13.0098Y-3.0429
X13.187Y-2.787
X13.187Y-3.0429
T5
X11.4449Y-4.537
X11.4449Y-4.7339
X11.6811Y-3.437
X11.937Y-3.437
X11.937Y-4.537
X11.937Y-4.7339
X12.0449Y-3.937
X12.0449Y-4.1339
X12.0449Y-5.137
X12.0449Y-5.3339
X12.1811Y-3.437
X12.437Y-3.437
X12.537Y-3.937
X12.537Y-4.1339
X12.537Y-5.137
X12.537Y-5.3339
X12.6449Y-4.537
X12.6449Y-4.7339
X12.6811Y-3.437
X12.937Y-3.437
X13.137Y-4.537
X13.137Y-4.7339
T6
X9.387Y-3.237
X9.387Y-3.937
X9.387Y-4.637
X9.387Y-5.337
X9.637Y-3.137
X9.637Y-3.837
X9.637Y-4.537
X9.637Y-5.237
X10.087Y-3.237
X10.087Y-3.937
X10.087Y-4.637
X10.087Y-5.337
X10.337Y-3.137
X10.337Y-3.837
X10.337Y-4.537
X10.337Y-5.237
X10.787Y-3.237
X10.787Y-3.937
X10.787Y-4.637
X10.787Y-5.337
X11.037Y-3.137
X11.037Y-3.837
X11.037Y-4.537
X11.037Y-5.237
M30
