M48
INCH
T1C0.0276
T2C0.0315
T3C0.0394
T4C0.0402
T5C0.0433
T6C0.0472
T7C0.0512
T8C0.0591
%
G90
G05
T1
X4.7028Y-4.2386
X4.7028Y-4.4386
X4.8028Y-4.2386
X4.8028Y-4.4386
X10.0528Y-6.6386
X10.2528Y-6.6386
T2
X4.7028Y-4.9902
X4.7028Y-5.0886
X4.8687Y-4.9205
X4.8687Y-4.9992
X4.8687Y-5.078
X4.8687Y-5.1567
X5.0028Y-4.1886
X5.0028Y-4.4886
X5.1028Y-4.1886
X5.1028Y-4.4886
X5.2028Y-4.1886
X5.2028Y-4.4886
X5.2418Y-3.2386
X5.3028Y-4.1886
X5.3028Y-4.4886
X5.3918Y-3.2386
X5.4028Y-4.1886
X5.4028Y-4.4886
X5.5028Y-4.1886
X5.5028Y-4.4886
X5.5418Y-3.2386
X5.5516Y-3.4589
X5.5516Y-3.5589
X5.5516Y-3.91
X5.5516Y-4.01
X5.6028Y-4.1886
X5.6028Y-4.4886
X5.7028Y-4.1886
X5.7028Y-4.4886
X5.8028Y-3.2051
X5.8028Y-3.2839
X5.9043Y-4.0886
X6.0028Y-4.0886
X6.5028Y-3.5433
X6.5028Y-3.6417
X10.3902Y-6.4386
X10.4917Y-6.6386
X10.5902Y-6.6386
X10.6902Y-6.4386
T3
X6.4469Y-2.9039
X6.4469Y-3.0039
X6.5469Y-2.9039
X6.5469Y-3.0039
X6.6469Y-2.9039
X6.6469Y-3.0039
X6.7469Y-2.9039
X6.7469Y-3.0039
X6.8469Y-2.9039
X6.8469Y-3.0039
X6.9469Y-2.9039
X6.9469Y-3.0039
X7.0469Y-2.9039
X7.0469Y-3.0039
X7.1469Y-2.9039
X7.1469Y-3.0039
X7.2469Y-2.9039
X7.2469Y-3.0039
X7.3469Y-2.9039
X7.3469Y-3.0039
X7.4469Y-2.9039
X7.4469Y-3.0039
X7.5469Y-2.9039
X7.5469Y-3.0039
X7.6469Y-2.9039
X7.6469Y-3.0039
X7.7469Y-2.9039
X7.7469Y-3.0039
X7.8469Y-2.9039
X7.8469Y-3.0039
X7.9469Y-2.9039
X7.9469Y-3.0039
X8.0469Y-2.9039
X8.0469Y-3.0039
X8.1469Y-2.9039
X8.1469Y-3.0039
X8.2469Y-2.9039
X8.2469Y-3.0039
X8.3469Y-2.9039
X8.3469Y-3.0039
X10.4902Y-6.2386
X10.5902Y-6.2386
T4
X4.824Y-5.725
X4.824Y-5.825
X4.824Y-5.925
X4.824Y-6.025
X4.824Y-6.125
X6.8684Y-3.4336
X6.8684Y-3.5336
X6.8684Y-3.6336
X6.8684Y-3.7336
T5
X4.7142Y-2.8103
X4.7142Y-3.0662
X4.8913Y-2.8103
X4.8913Y-3.0662
X5.0642Y-2.8886
X5.3642Y-2.8886
X5.9528Y-4.3386
X5.9528Y-4.6386
X5.9528Y-5.0886
X5.9528Y-5.3886
X5.9528Y-5.8386
X5.9528Y-6.1386
X6.7028Y-4.3386
X6.7028Y-4.6386
X6.7028Y-5.0886
X6.7028Y-5.3886
X6.7028Y-5.8386
X6.7028Y-6.1386
X7.4528Y-4.3386
X7.4528Y-4.6386
X7.4528Y-5.0886
X7.4528Y-5.3886
X7.4528Y-5.8386
X7.4528Y-6.1386
X8.2028Y-4.3386
X8.2028Y-4.6386
X8.2028Y-5.0886
X8.2028Y-5.3886
X8.2028Y-5.8386
X8.2028Y-6.1386
X8.8528Y-5.4386
X8.8528Y-5.6886
X8.8528Y-6.1886
X8.8528Y-6.4386
X9.1528Y-5.4386
X9.1528Y-5.6886
X9.1528Y-6.1886
X9.1528Y-6.4386
X9.3028Y-3.5386
X9.6028Y-3.5386
X9.8028Y-3.5386
X10.1028Y-3.5386
X10.1528Y-2.8886
X10.2402Y-6.2386
X10.2402Y-6.3386
X10.2402Y-6.4386
X10.3028Y-3.5386
X10.4528Y-2.8886
X10.6028Y-3.5386
X10.6165Y-2.8154
X10.6165Y-3.0713
X10.7936Y-2.8154
X10.7936Y-3.0713
T6
X5.2366Y-6.5161
X5.2366Y-6.6539
X5.8528Y-3.5008
X5.8528Y-3.6386
T7
X9.0661Y-4.962
X9.0661Y-5.1589
X9.3248Y-3.7886
X9.5583Y-4.962
X9.5583Y-5.1589
X9.5807Y-3.7886
X9.6864Y-4.3417
X9.6864Y-4.5386
X9.6864Y-5.5823
X9.6864Y-5.7792
X9.8248Y-3.7886
X10.0807Y-3.7886
X10.1786Y-4.3417
X10.1786Y-4.5386
X10.1786Y-5.5823
X10.1786Y-5.7792
X10.3067Y-4.962
X10.3067Y-5.1589
X10.3248Y-3.7886
X10.5807Y-3.7886
X10.7989Y-4.962
X10.7989Y-5.1589
T8
X6.1248Y-4.528
X6.1248Y-5.278
X6.1248Y-6.028
X6.3748Y-4.428
X6.3748Y-5.178
X6.3748Y-5.928
X6.8748Y-4.528
X6.8748Y-5.278
X6.8748Y-6.028
X7.1248Y-4.428
X7.1248Y-5.178
X7.1248Y-5.928
X7.6248Y-4.528
X7.6248Y-5.278
X7.6248Y-6.028
X7.8748Y-4.428
X7.8748Y-5.178
X7.8748Y-5.928
X8.3748Y-4.528
X8.3748Y-5.278
X8.3748Y-6.028
X8.6248Y-4.428
X8.6248Y-5.178
X8.6248Y-5.928
M30
