G04 #@! TF.GenerationSoftware,KiCad,Pcbnew,10.0.1*
G04 #@! TF.CreationDate,2026-05-29T00:18:22+02:00*
G04 #@! TF.ProjectId,MiniPC,4d696e69-5043-42e6-9b69-6361645f7063,rev?*
G04 #@! TF.SameCoordinates,Original*
G04 #@! TF.FileFunction,Other,User*
%FSLAX46Y46*%
G04 Gerber Fmt 4.6, Leading zero omitted, Abs format (unit mm)*
G04 Created by KiCad (PCBNEW 10.0.1) date 2026-05-29 00:18:22*
%MOMM*%
%LPD*%
G01*
G04 APERTURE LIST*
%ADD10C,0.050000*%
G04 APERTURE END LIST*
D10*
X244535534Y-105530000D02*
X260035534Y-105530000D01*
X260035534Y-120030000D01*
X244535534Y-120030000D01*
X244535534Y-105530000D01*
X219830000Y-75030000D02*
G75*
G02*
X213930000Y-75030000I-2950000J0D01*
G01*
X213930000Y-75030000D02*
G75*
G02*
X219830000Y-75030000I2950000J0D01*
G01*
X235470000Y-94850000D02*
X236850000Y-94850000D01*
X235470000Y-97610000D02*
X235470000Y-94850000D01*
X235470000Y-97610000D02*
X236850000Y-97610000D01*
X236850000Y-94230000D02*
X236850000Y-94850000D01*
X236850000Y-94230000D02*
X243350000Y-94230000D01*
X236850000Y-97610000D02*
X236850000Y-98230000D01*
X243350000Y-94230000D02*
X243350000Y-94850000D01*
X243350000Y-97610000D02*
X243350000Y-98230000D01*
X243350000Y-98230000D02*
X236850000Y-98230000D01*
X243350000Y-94850000D02*
G75*
G02*
X243350000Y-97610000I0J-1380000D01*
G01*
X171910000Y-95020000D02*
G75*
G02*
X167010000Y-95020000I-2450000J0D01*
G01*
X167010000Y-95020000D02*
G75*
G02*
X171910000Y-95020000I2450000J0D01*
G01*
X248170000Y-94850000D02*
X249550000Y-94850000D01*
X248170000Y-97610000D02*
X248170000Y-94850000D01*
X248170000Y-97610000D02*
X249550000Y-97610000D01*
X249550000Y-94230000D02*
X249550000Y-94850000D01*
X249550000Y-94230000D02*
X256050000Y-94230000D01*
X249550000Y-97610000D02*
X249550000Y-98230000D01*
X256050000Y-94230000D02*
X256050000Y-94850000D01*
X256050000Y-97610000D02*
X256050000Y-98230000D01*
X256050000Y-98230000D02*
X249550000Y-98230000D01*
X256050000Y-94850000D02*
G75*
G02*
X256050000Y-97610000I0J-1380000D01*
G01*
X152780000Y-130000000D02*
X165980000Y-130000000D01*
X152780000Y-143200000D02*
X152780000Y-130000000D01*
X165980000Y-130000000D02*
X165980000Y-143200000D01*
X165980000Y-143200000D02*
X152780000Y-143200000D01*
X171830000Y-130000000D02*
X185030000Y-130000000D01*
X171830000Y-143200000D02*
X171830000Y-130000000D01*
X185030000Y-130000000D02*
X185030000Y-143200000D01*
X185030000Y-143200000D02*
X171830000Y-143200000D01*
X131812500Y-79590000D02*
X142092500Y-79590000D01*
X142092500Y-84930000D01*
X131812500Y-84930000D01*
X131812500Y-79590000D01*
X171910000Y-87040000D02*
G75*
G02*
X167010000Y-87040000I-2450000J0D01*
G01*
X167010000Y-87040000D02*
G75*
G02*
X171910000Y-87040000I2450000J0D01*
G01*
X190880000Y-149050000D02*
X204080000Y-149050000D01*
X190880000Y-162250000D02*
X190880000Y-149050000D01*
X204080000Y-149050000D02*
X204080000Y-162250000D01*
X204080000Y-162250000D02*
X190880000Y-162250000D01*
X208890000Y-87030000D02*
G75*
G02*
X203990000Y-87030000I-2450000J0D01*
G01*
X203990000Y-87030000D02*
G75*
G02*
X208890000Y-87030000I2450000J0D01*
G01*
X204881754Y-79855076D02*
G75*
G02*
X199381754Y-79855076I-2750000J0D01*
G01*
X199381754Y-79855076D02*
G75*
G02*
X204881754Y-79855076I2750000J0D01*
G01*
X228780000Y-121285534D02*
X244280000Y-121285534D01*
X244280000Y-135785534D01*
X228780000Y-135785534D01*
X228780000Y-121285534D01*
X190880000Y-110950000D02*
X204080000Y-110950000D01*
X190880000Y-124150000D02*
X190880000Y-110950000D01*
X204080000Y-110950000D02*
X204080000Y-124150000D01*
X204080000Y-124150000D02*
X190880000Y-124150000D01*
X144920000Y-135990000D02*
G75*
G02*
X140420000Y-135990000I-2250000J0D01*
G01*
X140420000Y-135990000D02*
G75*
G02*
X144920000Y-135990000I2250000J0D01*
G01*
X209930000Y-149050000D02*
X223130000Y-149050000D01*
X209930000Y-162250000D02*
X209930000Y-149050000D01*
X223130000Y-149050000D02*
X223130000Y-162250000D01*
X223130000Y-162250000D02*
X209930000Y-162250000D01*
X161830000Y-98030000D02*
G75*
G02*
X155930000Y-98030000I-2950000J0D01*
G01*
X155930000Y-98030000D02*
G75*
G02*
X161830000Y-98030000I2950000J0D01*
G01*
X171830000Y-110950000D02*
X185030000Y-110950000D01*
X171830000Y-124150000D02*
X171830000Y-110950000D01*
X185030000Y-110950000D02*
X185030000Y-124150000D01*
X185030000Y-124150000D02*
X171830000Y-124150000D01*
X152780000Y-110950000D02*
X165980000Y-110950000D01*
X152780000Y-124150000D02*
X152780000Y-110950000D01*
X165980000Y-110950000D02*
X165980000Y-124150000D01*
X165980000Y-124150000D02*
X152780000Y-124150000D01*
X161830000Y-75030000D02*
G75*
G02*
X155930000Y-75030000I-2950000J0D01*
G01*
X155930000Y-75030000D02*
G75*
G02*
X161830000Y-75030000I2950000J0D01*
G01*
X204890302Y-106307132D02*
G75*
G02*
X199390302Y-106307132I-2750000J0D01*
G01*
X199390302Y-106307132D02*
G75*
G02*
X204890302Y-106307132I2750000J0D01*
G01*
X260291068Y-121285534D02*
X275791068Y-121285534D01*
X275791068Y-135785534D01*
X260291068Y-135785534D01*
X260291068Y-121285534D01*
X124910000Y-136980000D02*
G75*
G02*
X120410000Y-136980000I-2250000J0D01*
G01*
X120410000Y-136980000D02*
G75*
G02*
X124910000Y-136980000I2250000J0D01*
G01*
X209930000Y-130000000D02*
X223130000Y-130000000D01*
X209930000Y-143200000D02*
X209930000Y-130000000D01*
X223130000Y-130000000D02*
X223130000Y-143200000D01*
X223130000Y-143200000D02*
X209930000Y-143200000D01*
X178429698Y-79863624D02*
G75*
G02*
X172929698Y-79863624I-2750000J0D01*
G01*
X172929698Y-79863624D02*
G75*
G02*
X178429698Y-79863624I2750000J0D01*
G01*
X208890000Y-95010000D02*
G75*
G02*
X203990000Y-95010000I-2450000J0D01*
G01*
X203990000Y-95010000D02*
G75*
G02*
X208890000Y-95010000I2450000J0D01*
G01*
X190880000Y-130000000D02*
X204080000Y-130000000D01*
X190880000Y-143200000D02*
X190880000Y-130000000D01*
X204080000Y-130000000D02*
X204080000Y-143200000D01*
X204080000Y-143200000D02*
X190880000Y-143200000D01*
X219830000Y-98030000D02*
G75*
G02*
X213930000Y-98030000I-2950000J0D01*
G01*
X213930000Y-98030000D02*
G75*
G02*
X219830000Y-98030000I2950000J0D01*
G01*
X260870000Y-94850000D02*
X262250000Y-94850000D01*
X260870000Y-97610000D02*
X260870000Y-94850000D01*
X260870000Y-97610000D02*
X262250000Y-97610000D01*
X262250000Y-94230000D02*
X262250000Y-94850000D01*
X262250000Y-94230000D02*
X268750000Y-94230000D01*
X262250000Y-97610000D02*
X262250000Y-98230000D01*
X268750000Y-94230000D02*
X268750000Y-94850000D01*
X268750000Y-97610000D02*
X268750000Y-98230000D01*
X268750000Y-98230000D02*
X262250000Y-98230000D01*
X268750000Y-94850000D02*
G75*
G02*
X268750000Y-97610000I0J-1380000D01*
G01*
X178438246Y-106315680D02*
G75*
G02*
X172938246Y-106315680I-2750000J0D01*
G01*
X172938246Y-106315680D02*
G75*
G02*
X178438246Y-106315680I2750000J0D01*
G01*
X152780000Y-149050000D02*
X165980000Y-149050000D01*
X152780000Y-162250000D02*
X152780000Y-149050000D01*
X165980000Y-149050000D02*
X165980000Y-162250000D01*
X165980000Y-162250000D02*
X152780000Y-162250000D01*
X125710000Y-141260000D02*
G75*
G02*
X121210000Y-141260000I-2250000J0D01*
G01*
X121210000Y-141260000D02*
G75*
G02*
X125710000Y-141260000I2250000J0D01*
G01*
X209930000Y-110950000D02*
X223130000Y-110950000D01*
X209930000Y-124150000D02*
X209930000Y-110950000D01*
X223130000Y-110950000D02*
X223130000Y-124150000D01*
X223130000Y-124150000D02*
X209930000Y-124150000D01*
X244535534Y-137041068D02*
X260035534Y-137041068D01*
X260035534Y-151541068D01*
X244535534Y-151541068D01*
X244535534Y-137041068D01*
X171830000Y-149050000D02*
X185030000Y-149050000D01*
X171830000Y-162250000D02*
X171830000Y-149050000D01*
X185030000Y-149050000D02*
X185030000Y-162250000D01*
X185030000Y-162250000D02*
X171830000Y-162250000D01*
X125710000Y-159770000D02*
G75*
G02*
X121210000Y-159770000I-2250000J0D01*
G01*
X121210000Y-159770000D02*
G75*
G02*
X125710000Y-159770000I2250000J0D01*
G01*
M02*
