G04 #@! TF.GenerationSoftware,KiCad,Pcbnew,10.0.1*
G04 #@! TF.CreationDate,2026-05-29T00:18:22+02:00*
G04 #@! TF.ProjectId,MiniPC,4d696e69-5043-42e6-9b69-6361645f7063,rev?*
G04 #@! TF.SameCoordinates,Original*
G04 #@! TF.FileFunction,Legend,Bot*
G04 #@! TF.FilePolarity,Positive*
%FSLAX46Y46*%
G04 Gerber Fmt 4.6, Leading zero omitted, Abs format (unit mm)*
G04 Created by KiCad (PCBNEW 10.0.1) date 2026-05-29 00:18:22*
%MOMM*%
%LPD*%
G01*
G04 APERTURE LIST*
%ADD10C,0.150000*%
%ADD11C,0.100000*%
%ADD12C,0.120000*%
G04 APERTURE END LIST*
D10*
X160434819Y-74696666D02*
X161149104Y-74696666D01*
X161149104Y-74696666D02*
X161291961Y-74649047D01*
X161291961Y-74649047D02*
X161387200Y-74553809D01*
X161387200Y-74553809D02*
X161434819Y-74410952D01*
X161434819Y-74410952D02*
X161434819Y-74315714D01*
X161434819Y-75696666D02*
X161434819Y-75125238D01*
X161434819Y-75410952D02*
X160434819Y-75410952D01*
X160434819Y-75410952D02*
X160577676Y-75315714D01*
X160577676Y-75315714D02*
X160672914Y-75220476D01*
X160672914Y-75220476D02*
X160720533Y-75125238D01*
X146634819Y-109438095D02*
X147444342Y-109438095D01*
X147444342Y-109438095D02*
X147539580Y-109485714D01*
X147539580Y-109485714D02*
X147587200Y-109533333D01*
X147587200Y-109533333D02*
X147634819Y-109628571D01*
X147634819Y-109628571D02*
X147634819Y-109819047D01*
X147634819Y-109819047D02*
X147587200Y-109914285D01*
X147587200Y-109914285D02*
X147539580Y-109961904D01*
X147539580Y-109961904D02*
X147444342Y-110009523D01*
X147444342Y-110009523D02*
X146634819Y-110009523D01*
X146634819Y-110961904D02*
X146634819Y-110485714D01*
X146634819Y-110485714D02*
X147111009Y-110438095D01*
X147111009Y-110438095D02*
X147063390Y-110485714D01*
X147063390Y-110485714D02*
X147015771Y-110580952D01*
X147015771Y-110580952D02*
X147015771Y-110819047D01*
X147015771Y-110819047D02*
X147063390Y-110914285D01*
X147063390Y-110914285D02*
X147111009Y-110961904D01*
X147111009Y-110961904D02*
X147206247Y-111009523D01*
X147206247Y-111009523D02*
X147444342Y-111009523D01*
X147444342Y-111009523D02*
X147539580Y-110961904D01*
X147539580Y-110961904D02*
X147587200Y-110914285D01*
X147587200Y-110914285D02*
X147634819Y-110819047D01*
X147634819Y-110819047D02*
X147634819Y-110580952D01*
X147634819Y-110580952D02*
X147587200Y-110485714D01*
X147587200Y-110485714D02*
X147539580Y-110438095D01*
X206334819Y-132321905D02*
X205334819Y-132321905D01*
X205334819Y-132321905D02*
X205334819Y-132560000D01*
X205334819Y-132560000D02*
X205382438Y-132702857D01*
X205382438Y-132702857D02*
X205477676Y-132798095D01*
X205477676Y-132798095D02*
X205572914Y-132845714D01*
X205572914Y-132845714D02*
X205763390Y-132893333D01*
X205763390Y-132893333D02*
X205906247Y-132893333D01*
X205906247Y-132893333D02*
X206096723Y-132845714D01*
X206096723Y-132845714D02*
X206191961Y-132798095D01*
X206191961Y-132798095D02*
X206287200Y-132702857D01*
X206287200Y-132702857D02*
X206334819Y-132560000D01*
X206334819Y-132560000D02*
X206334819Y-132321905D01*
X205334819Y-133750476D02*
X205334819Y-133560000D01*
X205334819Y-133560000D02*
X205382438Y-133464762D01*
X205382438Y-133464762D02*
X205430057Y-133417143D01*
X205430057Y-133417143D02*
X205572914Y-133321905D01*
X205572914Y-133321905D02*
X205763390Y-133274286D01*
X205763390Y-133274286D02*
X206144342Y-133274286D01*
X206144342Y-133274286D02*
X206239580Y-133321905D01*
X206239580Y-133321905D02*
X206287200Y-133369524D01*
X206287200Y-133369524D02*
X206334819Y-133464762D01*
X206334819Y-133464762D02*
X206334819Y-133655238D01*
X206334819Y-133655238D02*
X206287200Y-133750476D01*
X206287200Y-133750476D02*
X206239580Y-133798095D01*
X206239580Y-133798095D02*
X206144342Y-133845714D01*
X206144342Y-133845714D02*
X205906247Y-133845714D01*
X205906247Y-133845714D02*
X205811009Y-133798095D01*
X205811009Y-133798095D02*
X205763390Y-133750476D01*
X205763390Y-133750476D02*
X205715771Y-133655238D01*
X205715771Y-133655238D02*
X205715771Y-133464762D01*
X205715771Y-133464762D02*
X205763390Y-133369524D01*
X205763390Y-133369524D02*
X205811009Y-133321905D01*
X205811009Y-133321905D02*
X205906247Y-133274286D01*
X206704819Y-128988095D02*
X205704819Y-128988095D01*
X206704819Y-129559523D02*
X206133390Y-129130952D01*
X205704819Y-129559523D02*
X206276247Y-128988095D01*
D11*
X130248095Y-95997779D02*
X130248095Y-95188256D01*
X130248095Y-95188256D02*
X130295714Y-95093018D01*
X130295714Y-95093018D02*
X130343333Y-95045399D01*
X130343333Y-95045399D02*
X130438571Y-94997779D01*
X130438571Y-94997779D02*
X130629047Y-94997779D01*
X130629047Y-94997779D02*
X130724285Y-95045399D01*
X130724285Y-95045399D02*
X130771904Y-95093018D01*
X130771904Y-95093018D02*
X130819523Y-95188256D01*
X130819523Y-95188256D02*
X130819523Y-95997779D01*
X131200476Y-95997779D02*
X131867142Y-95997779D01*
X131867142Y-95997779D02*
X131438571Y-94997779D01*
X136554360Y-88072779D02*
X136744836Y-88072779D01*
X136744836Y-88072779D02*
X136840074Y-88025160D01*
X136840074Y-88025160D02*
X136935312Y-87929922D01*
X136935312Y-87929922D02*
X136982931Y-87739446D01*
X136982931Y-87739446D02*
X136982931Y-87406113D01*
X136982931Y-87406113D02*
X136935312Y-87215637D01*
X136935312Y-87215637D02*
X136840074Y-87120399D01*
X136840074Y-87120399D02*
X136744836Y-87072779D01*
X136744836Y-87072779D02*
X136554360Y-87072779D01*
X136554360Y-87072779D02*
X136459122Y-87120399D01*
X136459122Y-87120399D02*
X136363884Y-87215637D01*
X136363884Y-87215637D02*
X136316265Y-87406113D01*
X136316265Y-87406113D02*
X136316265Y-87739446D01*
X136316265Y-87739446D02*
X136363884Y-87929922D01*
X136363884Y-87929922D02*
X136459122Y-88025160D01*
X136459122Y-88025160D02*
X136554360Y-88072779D01*
X137411503Y-88072779D02*
X137411503Y-87263256D01*
X137411503Y-87263256D02*
X137459122Y-87168018D01*
X137459122Y-87168018D02*
X137506741Y-87120399D01*
X137506741Y-87120399D02*
X137601979Y-87072779D01*
X137601979Y-87072779D02*
X137792455Y-87072779D01*
X137792455Y-87072779D02*
X137887693Y-87120399D01*
X137887693Y-87120399D02*
X137935312Y-87168018D01*
X137935312Y-87168018D02*
X137982931Y-87263256D01*
X137982931Y-87263256D02*
X137982931Y-88072779D01*
X138316265Y-88072779D02*
X138887693Y-88072779D01*
X138601979Y-87072779D02*
X138601979Y-88072779D01*
X139221027Y-87453732D02*
X139982932Y-87453732D01*
X136697217Y-90136589D02*
X136840074Y-90088970D01*
X136840074Y-90088970D02*
X136887693Y-90041351D01*
X136887693Y-90041351D02*
X136935312Y-89946113D01*
X136935312Y-89946113D02*
X136935312Y-89803256D01*
X136935312Y-89803256D02*
X136887693Y-89708018D01*
X136887693Y-89708018D02*
X136840074Y-89660399D01*
X136840074Y-89660399D02*
X136744836Y-89612779D01*
X136744836Y-89612779D02*
X136363884Y-89612779D01*
X136363884Y-89612779D02*
X136363884Y-90612779D01*
X136363884Y-90612779D02*
X136697217Y-90612779D01*
X136697217Y-90612779D02*
X136792455Y-90565160D01*
X136792455Y-90565160D02*
X136840074Y-90517541D01*
X136840074Y-90517541D02*
X136887693Y-90422303D01*
X136887693Y-90422303D02*
X136887693Y-90327065D01*
X136887693Y-90327065D02*
X136840074Y-90231827D01*
X136840074Y-90231827D02*
X136792455Y-90184208D01*
X136792455Y-90184208D02*
X136697217Y-90136589D01*
X136697217Y-90136589D02*
X136363884Y-90136589D01*
X137316265Y-89898494D02*
X137792455Y-89898494D01*
X137221027Y-89612779D02*
X137554360Y-90612779D01*
X137554360Y-90612779D02*
X137887693Y-89612779D01*
X138078170Y-90612779D02*
X138649598Y-90612779D01*
X138363884Y-89612779D02*
X138363884Y-90612779D01*
X138982932Y-89993732D02*
X139744837Y-89993732D01*
X136697217Y-99026589D02*
X136840074Y-98978970D01*
X136840074Y-98978970D02*
X136887693Y-98931351D01*
X136887693Y-98931351D02*
X136935312Y-98836113D01*
X136935312Y-98836113D02*
X136935312Y-98693256D01*
X136935312Y-98693256D02*
X136887693Y-98598018D01*
X136887693Y-98598018D02*
X136840074Y-98550399D01*
X136840074Y-98550399D02*
X136744836Y-98502779D01*
X136744836Y-98502779D02*
X136363884Y-98502779D01*
X136363884Y-98502779D02*
X136363884Y-99502779D01*
X136363884Y-99502779D02*
X136697217Y-99502779D01*
X136697217Y-99502779D02*
X136792455Y-99455160D01*
X136792455Y-99455160D02*
X136840074Y-99407541D01*
X136840074Y-99407541D02*
X136887693Y-99312303D01*
X136887693Y-99312303D02*
X136887693Y-99217065D01*
X136887693Y-99217065D02*
X136840074Y-99121827D01*
X136840074Y-99121827D02*
X136792455Y-99074208D01*
X136792455Y-99074208D02*
X136697217Y-99026589D01*
X136697217Y-99026589D02*
X136363884Y-99026589D01*
X137316265Y-98788494D02*
X137792455Y-98788494D01*
X137221027Y-98502779D02*
X137554360Y-99502779D01*
X137554360Y-99502779D02*
X137887693Y-98502779D01*
X138078170Y-99502779D02*
X138649598Y-99502779D01*
X138363884Y-98502779D02*
X138363884Y-99502779D01*
X138982932Y-98883732D02*
X139744837Y-98883732D01*
X139363884Y-98502779D02*
X139363884Y-99264684D01*
X136554360Y-102042779D02*
X136744836Y-102042779D01*
X136744836Y-102042779D02*
X136840074Y-101995160D01*
X136840074Y-101995160D02*
X136935312Y-101899922D01*
X136935312Y-101899922D02*
X136982931Y-101709446D01*
X136982931Y-101709446D02*
X136982931Y-101376113D01*
X136982931Y-101376113D02*
X136935312Y-101185637D01*
X136935312Y-101185637D02*
X136840074Y-101090399D01*
X136840074Y-101090399D02*
X136744836Y-101042779D01*
X136744836Y-101042779D02*
X136554360Y-101042779D01*
X136554360Y-101042779D02*
X136459122Y-101090399D01*
X136459122Y-101090399D02*
X136363884Y-101185637D01*
X136363884Y-101185637D02*
X136316265Y-101376113D01*
X136316265Y-101376113D02*
X136316265Y-101709446D01*
X136316265Y-101709446D02*
X136363884Y-101899922D01*
X136363884Y-101899922D02*
X136459122Y-101995160D01*
X136459122Y-101995160D02*
X136554360Y-102042779D01*
X137411503Y-102042779D02*
X137411503Y-101233256D01*
X137411503Y-101233256D02*
X137459122Y-101138018D01*
X137459122Y-101138018D02*
X137506741Y-101090399D01*
X137506741Y-101090399D02*
X137601979Y-101042779D01*
X137601979Y-101042779D02*
X137792455Y-101042779D01*
X137792455Y-101042779D02*
X137887693Y-101090399D01*
X137887693Y-101090399D02*
X137935312Y-101138018D01*
X137935312Y-101138018D02*
X137982931Y-101233256D01*
X137982931Y-101233256D02*
X137982931Y-102042779D01*
X138316265Y-102042779D02*
X138887693Y-102042779D01*
X138601979Y-101042779D02*
X138601979Y-102042779D01*
X139221027Y-101423732D02*
X139982932Y-101423732D01*
X139601979Y-101042779D02*
X139601979Y-101804684D01*
D10*
X276565509Y-72950476D02*
X276613128Y-73093333D01*
X276613128Y-73093333D02*
X276613128Y-73331428D01*
X276613128Y-73331428D02*
X276565509Y-73426666D01*
X276565509Y-73426666D02*
X276517889Y-73474285D01*
X276517889Y-73474285D02*
X276422651Y-73521904D01*
X276422651Y-73521904D02*
X276327413Y-73521904D01*
X276327413Y-73521904D02*
X276232175Y-73474285D01*
X276232175Y-73474285D02*
X276184556Y-73426666D01*
X276184556Y-73426666D02*
X276136937Y-73331428D01*
X276136937Y-73331428D02*
X276089318Y-73140952D01*
X276089318Y-73140952D02*
X276041699Y-73045714D01*
X276041699Y-73045714D02*
X275994080Y-72998095D01*
X275994080Y-72998095D02*
X275898842Y-72950476D01*
X275898842Y-72950476D02*
X275803604Y-72950476D01*
X275803604Y-72950476D02*
X275708366Y-72998095D01*
X275708366Y-72998095D02*
X275660747Y-73045714D01*
X275660747Y-73045714D02*
X275613128Y-73140952D01*
X275613128Y-73140952D02*
X275613128Y-73379047D01*
X275613128Y-73379047D02*
X275660747Y-73521904D01*
X275613128Y-73855238D02*
X276613128Y-74093333D01*
X276613128Y-74093333D02*
X275898842Y-74283809D01*
X275898842Y-74283809D02*
X276613128Y-74474285D01*
X276613128Y-74474285D02*
X275613128Y-74712381D01*
X276613128Y-75617142D02*
X276613128Y-75045714D01*
X276613128Y-75331428D02*
X275613128Y-75331428D01*
X275613128Y-75331428D02*
X275755985Y-75236190D01*
X275755985Y-75236190D02*
X275851223Y-75140952D01*
X275851223Y-75140952D02*
X275898842Y-75045714D01*
X275613128Y-75950476D02*
X275613128Y-76569523D01*
X275613128Y-76569523D02*
X275994080Y-76236190D01*
X275994080Y-76236190D02*
X275994080Y-76379047D01*
X275994080Y-76379047D02*
X276041699Y-76474285D01*
X276041699Y-76474285D02*
X276089318Y-76521904D01*
X276089318Y-76521904D02*
X276184556Y-76569523D01*
X276184556Y-76569523D02*
X276422651Y-76569523D01*
X276422651Y-76569523D02*
X276517889Y-76521904D01*
X276517889Y-76521904D02*
X276565509Y-76474285D01*
X276565509Y-76474285D02*
X276613128Y-76379047D01*
X276613128Y-76379047D02*
X276613128Y-76093333D01*
X276613128Y-76093333D02*
X276565509Y-75998095D01*
X276565509Y-75998095D02*
X276517889Y-75950476D01*
X118147200Y-72821117D02*
X118194819Y-72963974D01*
X118194819Y-72963974D02*
X118194819Y-73202069D01*
X118194819Y-73202069D02*
X118147200Y-73297307D01*
X118147200Y-73297307D02*
X118099580Y-73344926D01*
X118099580Y-73344926D02*
X118004342Y-73392545D01*
X118004342Y-73392545D02*
X117909104Y-73392545D01*
X117909104Y-73392545D02*
X117813866Y-73344926D01*
X117813866Y-73344926D02*
X117766247Y-73297307D01*
X117766247Y-73297307D02*
X117718628Y-73202069D01*
X117718628Y-73202069D02*
X117671009Y-73011593D01*
X117671009Y-73011593D02*
X117623390Y-72916355D01*
X117623390Y-72916355D02*
X117575771Y-72868736D01*
X117575771Y-72868736D02*
X117480533Y-72821117D01*
X117480533Y-72821117D02*
X117385295Y-72821117D01*
X117385295Y-72821117D02*
X117290057Y-72868736D01*
X117290057Y-72868736D02*
X117242438Y-72916355D01*
X117242438Y-72916355D02*
X117194819Y-73011593D01*
X117194819Y-73011593D02*
X117194819Y-73249688D01*
X117194819Y-73249688D02*
X117242438Y-73392545D01*
X117194819Y-73725879D02*
X118194819Y-73963974D01*
X118194819Y-73963974D02*
X117480533Y-74154450D01*
X117480533Y-74154450D02*
X118194819Y-74344926D01*
X118194819Y-74344926D02*
X117194819Y-74583022D01*
X118194819Y-75487783D02*
X118194819Y-74916355D01*
X118194819Y-75202069D02*
X117194819Y-75202069D01*
X117194819Y-75202069D02*
X117337676Y-75106831D01*
X117337676Y-75106831D02*
X117432914Y-75011593D01*
X117432914Y-75011593D02*
X117480533Y-74916355D01*
X117194819Y-76106831D02*
X117194819Y-76202069D01*
X117194819Y-76202069D02*
X117242438Y-76297307D01*
X117242438Y-76297307D02*
X117290057Y-76344926D01*
X117290057Y-76344926D02*
X117385295Y-76392545D01*
X117385295Y-76392545D02*
X117575771Y-76440164D01*
X117575771Y-76440164D02*
X117813866Y-76440164D01*
X117813866Y-76440164D02*
X118004342Y-76392545D01*
X118004342Y-76392545D02*
X118099580Y-76344926D01*
X118099580Y-76344926D02*
X118147200Y-76297307D01*
X118147200Y-76297307D02*
X118194819Y-76202069D01*
X118194819Y-76202069D02*
X118194819Y-76106831D01*
X118194819Y-76106831D02*
X118147200Y-76011593D01*
X118147200Y-76011593D02*
X118099580Y-75963974D01*
X118099580Y-75963974D02*
X118004342Y-75916355D01*
X118004342Y-75916355D02*
X117813866Y-75868736D01*
X117813866Y-75868736D02*
X117575771Y-75868736D01*
X117575771Y-75868736D02*
X117385295Y-75916355D01*
X117385295Y-75916355D02*
X117290057Y-75963974D01*
X117290057Y-75963974D02*
X117242438Y-76011593D01*
X117242438Y-76011593D02*
X117194819Y-76106831D01*
X229884285Y-160114819D02*
X229884285Y-159114819D01*
X229884285Y-159114819D02*
X229646190Y-159114819D01*
X229646190Y-159114819D02*
X229503333Y-159162438D01*
X229503333Y-159162438D02*
X229408095Y-159257676D01*
X229408095Y-159257676D02*
X229360476Y-159352914D01*
X229360476Y-159352914D02*
X229312857Y-159543390D01*
X229312857Y-159543390D02*
X229312857Y-159686247D01*
X229312857Y-159686247D02*
X229360476Y-159876723D01*
X229360476Y-159876723D02*
X229408095Y-159971961D01*
X229408095Y-159971961D02*
X229503333Y-160067200D01*
X229503333Y-160067200D02*
X229646190Y-160114819D01*
X229646190Y-160114819D02*
X229884285Y-160114819D01*
X228360476Y-160114819D02*
X228931904Y-160114819D01*
X228646190Y-160114819D02*
X228646190Y-159114819D01*
X228646190Y-159114819D02*
X228741428Y-159257676D01*
X228741428Y-159257676D02*
X228836666Y-159352914D01*
X228836666Y-159352914D02*
X228931904Y-159400533D01*
X227979523Y-159210057D02*
X227931904Y-159162438D01*
X227931904Y-159162438D02*
X227836666Y-159114819D01*
X227836666Y-159114819D02*
X227598571Y-159114819D01*
X227598571Y-159114819D02*
X227503333Y-159162438D01*
X227503333Y-159162438D02*
X227455714Y-159210057D01*
X227455714Y-159210057D02*
X227408095Y-159305295D01*
X227408095Y-159305295D02*
X227408095Y-159400533D01*
X227408095Y-159400533D02*
X227455714Y-159543390D01*
X227455714Y-159543390D02*
X228027142Y-160114819D01*
X228027142Y-160114819D02*
X227408095Y-160114819D01*
X225121904Y-159744819D02*
X225121904Y-158744819D01*
X224550476Y-159744819D02*
X224979047Y-159173390D01*
X224550476Y-158744819D02*
X225121904Y-159316247D01*
X206334819Y-113271905D02*
X205334819Y-113271905D01*
X205334819Y-113271905D02*
X205334819Y-113510000D01*
X205334819Y-113510000D02*
X205382438Y-113652857D01*
X205382438Y-113652857D02*
X205477676Y-113748095D01*
X205477676Y-113748095D02*
X205572914Y-113795714D01*
X205572914Y-113795714D02*
X205763390Y-113843333D01*
X205763390Y-113843333D02*
X205906247Y-113843333D01*
X205906247Y-113843333D02*
X206096723Y-113795714D01*
X206096723Y-113795714D02*
X206191961Y-113748095D01*
X206191961Y-113748095D02*
X206287200Y-113652857D01*
X206287200Y-113652857D02*
X206334819Y-113510000D01*
X206334819Y-113510000D02*
X206334819Y-113271905D01*
X205334819Y-114176667D02*
X205334819Y-114795714D01*
X205334819Y-114795714D02*
X205715771Y-114462381D01*
X205715771Y-114462381D02*
X205715771Y-114605238D01*
X205715771Y-114605238D02*
X205763390Y-114700476D01*
X205763390Y-114700476D02*
X205811009Y-114748095D01*
X205811009Y-114748095D02*
X205906247Y-114795714D01*
X205906247Y-114795714D02*
X206144342Y-114795714D01*
X206144342Y-114795714D02*
X206239580Y-114748095D01*
X206239580Y-114748095D02*
X206287200Y-114700476D01*
X206287200Y-114700476D02*
X206334819Y-114605238D01*
X206334819Y-114605238D02*
X206334819Y-114319524D01*
X206334819Y-114319524D02*
X206287200Y-114224286D01*
X206287200Y-114224286D02*
X206239580Y-114176667D01*
X206704819Y-109938095D02*
X205704819Y-109938095D01*
X206704819Y-110509523D02*
X206133390Y-110080952D01*
X205704819Y-110509523D02*
X206276247Y-109938095D01*
X149184819Y-131845714D02*
X148184819Y-131845714D01*
X148184819Y-131845714D02*
X148184819Y-132083809D01*
X148184819Y-132083809D02*
X148232438Y-132226666D01*
X148232438Y-132226666D02*
X148327676Y-132321904D01*
X148327676Y-132321904D02*
X148422914Y-132369523D01*
X148422914Y-132369523D02*
X148613390Y-132417142D01*
X148613390Y-132417142D02*
X148756247Y-132417142D01*
X148756247Y-132417142D02*
X148946723Y-132369523D01*
X148946723Y-132369523D02*
X149041961Y-132321904D01*
X149041961Y-132321904D02*
X149137200Y-132226666D01*
X149137200Y-132226666D02*
X149184819Y-132083809D01*
X149184819Y-132083809D02*
X149184819Y-131845714D01*
X148280057Y-132798095D02*
X148232438Y-132845714D01*
X148232438Y-132845714D02*
X148184819Y-132940952D01*
X148184819Y-132940952D02*
X148184819Y-133179047D01*
X148184819Y-133179047D02*
X148232438Y-133274285D01*
X148232438Y-133274285D02*
X148280057Y-133321904D01*
X148280057Y-133321904D02*
X148375295Y-133369523D01*
X148375295Y-133369523D02*
X148470533Y-133369523D01*
X148470533Y-133369523D02*
X148613390Y-133321904D01*
X148613390Y-133321904D02*
X149184819Y-132750476D01*
X149184819Y-132750476D02*
X149184819Y-133369523D01*
X148184819Y-133988571D02*
X148184819Y-134083809D01*
X148184819Y-134083809D02*
X148232438Y-134179047D01*
X148232438Y-134179047D02*
X148280057Y-134226666D01*
X148280057Y-134226666D02*
X148375295Y-134274285D01*
X148375295Y-134274285D02*
X148565771Y-134321904D01*
X148565771Y-134321904D02*
X148803866Y-134321904D01*
X148803866Y-134321904D02*
X148994342Y-134274285D01*
X148994342Y-134274285D02*
X149089580Y-134226666D01*
X149089580Y-134226666D02*
X149137200Y-134179047D01*
X149137200Y-134179047D02*
X149184819Y-134083809D01*
X149184819Y-134083809D02*
X149184819Y-133988571D01*
X149184819Y-133988571D02*
X149137200Y-133893333D01*
X149137200Y-133893333D02*
X149089580Y-133845714D01*
X149089580Y-133845714D02*
X148994342Y-133798095D01*
X148994342Y-133798095D02*
X148803866Y-133750476D01*
X148803866Y-133750476D02*
X148565771Y-133750476D01*
X148565771Y-133750476D02*
X148375295Y-133798095D01*
X148375295Y-133798095D02*
X148280057Y-133845714D01*
X148280057Y-133845714D02*
X148232438Y-133893333D01*
X148232438Y-133893333D02*
X148184819Y-133988571D01*
X149554819Y-128988095D02*
X148554819Y-128988095D01*
X149554819Y-129559523D02*
X148983390Y-129130952D01*
X148554819Y-129559523D02*
X149126247Y-128988095D01*
X268934285Y-161874819D02*
X268934285Y-160874819D01*
X268934285Y-160874819D02*
X268696190Y-160874819D01*
X268696190Y-160874819D02*
X268553333Y-160922438D01*
X268553333Y-160922438D02*
X268458095Y-161017676D01*
X268458095Y-161017676D02*
X268410476Y-161112914D01*
X268410476Y-161112914D02*
X268362857Y-161303390D01*
X268362857Y-161303390D02*
X268362857Y-161446247D01*
X268362857Y-161446247D02*
X268410476Y-161636723D01*
X268410476Y-161636723D02*
X268458095Y-161731961D01*
X268458095Y-161731961D02*
X268553333Y-161827200D01*
X268553333Y-161827200D02*
X268696190Y-161874819D01*
X268696190Y-161874819D02*
X268934285Y-161874819D01*
X267981904Y-160970057D02*
X267934285Y-160922438D01*
X267934285Y-160922438D02*
X267839047Y-160874819D01*
X267839047Y-160874819D02*
X267600952Y-160874819D01*
X267600952Y-160874819D02*
X267505714Y-160922438D01*
X267505714Y-160922438D02*
X267458095Y-160970057D01*
X267458095Y-160970057D02*
X267410476Y-161065295D01*
X267410476Y-161065295D02*
X267410476Y-161160533D01*
X267410476Y-161160533D02*
X267458095Y-161303390D01*
X267458095Y-161303390D02*
X268029523Y-161874819D01*
X268029523Y-161874819D02*
X267410476Y-161874819D01*
X267029523Y-160970057D02*
X266981904Y-160922438D01*
X266981904Y-160922438D02*
X266886666Y-160874819D01*
X266886666Y-160874819D02*
X266648571Y-160874819D01*
X266648571Y-160874819D02*
X266553333Y-160922438D01*
X266553333Y-160922438D02*
X266505714Y-160970057D01*
X266505714Y-160970057D02*
X266458095Y-161065295D01*
X266458095Y-161065295D02*
X266458095Y-161160533D01*
X266458095Y-161160533D02*
X266505714Y-161303390D01*
X266505714Y-161303390D02*
X267077142Y-161874819D01*
X267077142Y-161874819D02*
X266458095Y-161874819D01*
X271791904Y-162194819D02*
X271791904Y-161194819D01*
X271220476Y-162194819D02*
X271649047Y-161623390D01*
X271220476Y-161194819D02*
X271791904Y-161766247D01*
X187284819Y-113271905D02*
X186284819Y-113271905D01*
X186284819Y-113271905D02*
X186284819Y-113510000D01*
X186284819Y-113510000D02*
X186332438Y-113652857D01*
X186332438Y-113652857D02*
X186427676Y-113748095D01*
X186427676Y-113748095D02*
X186522914Y-113795714D01*
X186522914Y-113795714D02*
X186713390Y-113843333D01*
X186713390Y-113843333D02*
X186856247Y-113843333D01*
X186856247Y-113843333D02*
X187046723Y-113795714D01*
X187046723Y-113795714D02*
X187141961Y-113748095D01*
X187141961Y-113748095D02*
X187237200Y-113652857D01*
X187237200Y-113652857D02*
X187284819Y-113510000D01*
X187284819Y-113510000D02*
X187284819Y-113271905D01*
X186380057Y-114224286D02*
X186332438Y-114271905D01*
X186332438Y-114271905D02*
X186284819Y-114367143D01*
X186284819Y-114367143D02*
X186284819Y-114605238D01*
X186284819Y-114605238D02*
X186332438Y-114700476D01*
X186332438Y-114700476D02*
X186380057Y-114748095D01*
X186380057Y-114748095D02*
X186475295Y-114795714D01*
X186475295Y-114795714D02*
X186570533Y-114795714D01*
X186570533Y-114795714D02*
X186713390Y-114748095D01*
X186713390Y-114748095D02*
X187284819Y-114176667D01*
X187284819Y-114176667D02*
X187284819Y-114795714D01*
X187654819Y-109938095D02*
X186654819Y-109938095D01*
X187654819Y-110509523D02*
X187083390Y-110080952D01*
X186654819Y-110509523D02*
X187226247Y-109938095D01*
X206334819Y-151371905D02*
X205334819Y-151371905D01*
X205334819Y-151371905D02*
X205334819Y-151610000D01*
X205334819Y-151610000D02*
X205382438Y-151752857D01*
X205382438Y-151752857D02*
X205477676Y-151848095D01*
X205477676Y-151848095D02*
X205572914Y-151895714D01*
X205572914Y-151895714D02*
X205763390Y-151943333D01*
X205763390Y-151943333D02*
X205906247Y-151943333D01*
X205906247Y-151943333D02*
X206096723Y-151895714D01*
X206096723Y-151895714D02*
X206191961Y-151848095D01*
X206191961Y-151848095D02*
X206287200Y-151752857D01*
X206287200Y-151752857D02*
X206334819Y-151610000D01*
X206334819Y-151610000D02*
X206334819Y-151371905D01*
X206334819Y-152419524D02*
X206334819Y-152610000D01*
X206334819Y-152610000D02*
X206287200Y-152705238D01*
X206287200Y-152705238D02*
X206239580Y-152752857D01*
X206239580Y-152752857D02*
X206096723Y-152848095D01*
X206096723Y-152848095D02*
X205906247Y-152895714D01*
X205906247Y-152895714D02*
X205525295Y-152895714D01*
X205525295Y-152895714D02*
X205430057Y-152848095D01*
X205430057Y-152848095D02*
X205382438Y-152800476D01*
X205382438Y-152800476D02*
X205334819Y-152705238D01*
X205334819Y-152705238D02*
X205334819Y-152514762D01*
X205334819Y-152514762D02*
X205382438Y-152419524D01*
X205382438Y-152419524D02*
X205430057Y-152371905D01*
X205430057Y-152371905D02*
X205525295Y-152324286D01*
X205525295Y-152324286D02*
X205763390Y-152324286D01*
X205763390Y-152324286D02*
X205858628Y-152371905D01*
X205858628Y-152371905D02*
X205906247Y-152419524D01*
X205906247Y-152419524D02*
X205953866Y-152514762D01*
X205953866Y-152514762D02*
X205953866Y-152705238D01*
X205953866Y-152705238D02*
X205906247Y-152800476D01*
X205906247Y-152800476D02*
X205858628Y-152848095D01*
X205858628Y-152848095D02*
X205763390Y-152895714D01*
X206704819Y-148038095D02*
X205704819Y-148038095D01*
X206704819Y-148609523D02*
X206133390Y-148180952D01*
X205704819Y-148609523D02*
X206276247Y-148038095D01*
X151499580Y-82243333D02*
X151547200Y-82195714D01*
X151547200Y-82195714D02*
X151594819Y-82052857D01*
X151594819Y-82052857D02*
X151594819Y-81957619D01*
X151594819Y-81957619D02*
X151547200Y-81814762D01*
X151547200Y-81814762D02*
X151451961Y-81719524D01*
X151451961Y-81719524D02*
X151356723Y-81671905D01*
X151356723Y-81671905D02*
X151166247Y-81624286D01*
X151166247Y-81624286D02*
X151023390Y-81624286D01*
X151023390Y-81624286D02*
X150832914Y-81671905D01*
X150832914Y-81671905D02*
X150737676Y-81719524D01*
X150737676Y-81719524D02*
X150642438Y-81814762D01*
X150642438Y-81814762D02*
X150594819Y-81957619D01*
X150594819Y-81957619D02*
X150594819Y-82052857D01*
X150594819Y-82052857D02*
X150642438Y-82195714D01*
X150642438Y-82195714D02*
X150690057Y-82243333D01*
X150690057Y-82624286D02*
X150642438Y-82671905D01*
X150642438Y-82671905D02*
X150594819Y-82767143D01*
X150594819Y-82767143D02*
X150594819Y-83005238D01*
X150594819Y-83005238D02*
X150642438Y-83100476D01*
X150642438Y-83100476D02*
X150690057Y-83148095D01*
X150690057Y-83148095D02*
X150785295Y-83195714D01*
X150785295Y-83195714D02*
X150880533Y-83195714D01*
X150880533Y-83195714D02*
X151023390Y-83148095D01*
X151023390Y-83148095D02*
X151594819Y-82576667D01*
X151594819Y-82576667D02*
X151594819Y-83195714D01*
X167579580Y-91083333D02*
X167627200Y-91035714D01*
X167627200Y-91035714D02*
X167674819Y-90892857D01*
X167674819Y-90892857D02*
X167674819Y-90797619D01*
X167674819Y-90797619D02*
X167627200Y-90654762D01*
X167627200Y-90654762D02*
X167531961Y-90559524D01*
X167531961Y-90559524D02*
X167436723Y-90511905D01*
X167436723Y-90511905D02*
X167246247Y-90464286D01*
X167246247Y-90464286D02*
X167103390Y-90464286D01*
X167103390Y-90464286D02*
X166912914Y-90511905D01*
X166912914Y-90511905D02*
X166817676Y-90559524D01*
X166817676Y-90559524D02*
X166722438Y-90654762D01*
X166722438Y-90654762D02*
X166674819Y-90797619D01*
X166674819Y-90797619D02*
X166674819Y-90892857D01*
X166674819Y-90892857D02*
X166722438Y-91035714D01*
X166722438Y-91035714D02*
X166770057Y-91083333D01*
X166674819Y-91416667D02*
X166674819Y-92035714D01*
X166674819Y-92035714D02*
X167055771Y-91702381D01*
X167055771Y-91702381D02*
X167055771Y-91845238D01*
X167055771Y-91845238D02*
X167103390Y-91940476D01*
X167103390Y-91940476D02*
X167151009Y-91988095D01*
X167151009Y-91988095D02*
X167246247Y-92035714D01*
X167246247Y-92035714D02*
X167484342Y-92035714D01*
X167484342Y-92035714D02*
X167579580Y-91988095D01*
X167579580Y-91988095D02*
X167627200Y-91940476D01*
X167627200Y-91940476D02*
X167674819Y-91845238D01*
X167674819Y-91845238D02*
X167674819Y-91559524D01*
X167674819Y-91559524D02*
X167627200Y-91464286D01*
X167627200Y-91464286D02*
X167579580Y-91416667D01*
X128244819Y-166926666D02*
X128959104Y-166926666D01*
X128959104Y-166926666D02*
X129101961Y-166879047D01*
X129101961Y-166879047D02*
X129197200Y-166783809D01*
X129197200Y-166783809D02*
X129244819Y-166640952D01*
X129244819Y-166640952D02*
X129244819Y-166545714D01*
X128578152Y-167831428D02*
X129244819Y-167831428D01*
X128197200Y-167593333D02*
X128911485Y-167355238D01*
X128911485Y-167355238D02*
X128911485Y-167974285D01*
X149184819Y-150895714D02*
X148184819Y-150895714D01*
X148184819Y-150895714D02*
X148184819Y-151133809D01*
X148184819Y-151133809D02*
X148232438Y-151276666D01*
X148232438Y-151276666D02*
X148327676Y-151371904D01*
X148327676Y-151371904D02*
X148422914Y-151419523D01*
X148422914Y-151419523D02*
X148613390Y-151467142D01*
X148613390Y-151467142D02*
X148756247Y-151467142D01*
X148756247Y-151467142D02*
X148946723Y-151419523D01*
X148946723Y-151419523D02*
X149041961Y-151371904D01*
X149041961Y-151371904D02*
X149137200Y-151276666D01*
X149137200Y-151276666D02*
X149184819Y-151133809D01*
X149184819Y-151133809D02*
X149184819Y-150895714D01*
X148280057Y-151848095D02*
X148232438Y-151895714D01*
X148232438Y-151895714D02*
X148184819Y-151990952D01*
X148184819Y-151990952D02*
X148184819Y-152229047D01*
X148184819Y-152229047D02*
X148232438Y-152324285D01*
X148232438Y-152324285D02*
X148280057Y-152371904D01*
X148280057Y-152371904D02*
X148375295Y-152419523D01*
X148375295Y-152419523D02*
X148470533Y-152419523D01*
X148470533Y-152419523D02*
X148613390Y-152371904D01*
X148613390Y-152371904D02*
X149184819Y-151800476D01*
X149184819Y-151800476D02*
X149184819Y-152419523D01*
X149184819Y-153371904D02*
X149184819Y-152800476D01*
X149184819Y-153086190D02*
X148184819Y-153086190D01*
X148184819Y-153086190D02*
X148327676Y-152990952D01*
X148327676Y-152990952D02*
X148422914Y-152895714D01*
X148422914Y-152895714D02*
X148470533Y-152800476D01*
X149554819Y-148038095D02*
X148554819Y-148038095D01*
X149554819Y-148609523D02*
X148983390Y-148180952D01*
X148554819Y-148609523D02*
X149126247Y-148038095D01*
X117984819Y-110033333D02*
X117508628Y-109700000D01*
X117984819Y-109461905D02*
X116984819Y-109461905D01*
X116984819Y-109461905D02*
X116984819Y-109842857D01*
X116984819Y-109842857D02*
X117032438Y-109938095D01*
X117032438Y-109938095D02*
X117080057Y-109985714D01*
X117080057Y-109985714D02*
X117175295Y-110033333D01*
X117175295Y-110033333D02*
X117318152Y-110033333D01*
X117318152Y-110033333D02*
X117413390Y-109985714D01*
X117413390Y-109985714D02*
X117461009Y-109938095D01*
X117461009Y-109938095D02*
X117508628Y-109842857D01*
X117508628Y-109842857D02*
X117508628Y-109461905D01*
X117984819Y-110985714D02*
X117984819Y-110414286D01*
X117984819Y-110700000D02*
X116984819Y-110700000D01*
X116984819Y-110700000D02*
X117127676Y-110604762D01*
X117127676Y-110604762D02*
X117222914Y-110509524D01*
X117222914Y-110509524D02*
X117270533Y-110414286D01*
X229884285Y-147414819D02*
X229884285Y-146414819D01*
X229884285Y-146414819D02*
X229646190Y-146414819D01*
X229646190Y-146414819D02*
X229503333Y-146462438D01*
X229503333Y-146462438D02*
X229408095Y-146557676D01*
X229408095Y-146557676D02*
X229360476Y-146652914D01*
X229360476Y-146652914D02*
X229312857Y-146843390D01*
X229312857Y-146843390D02*
X229312857Y-146986247D01*
X229312857Y-146986247D02*
X229360476Y-147176723D01*
X229360476Y-147176723D02*
X229408095Y-147271961D01*
X229408095Y-147271961D02*
X229503333Y-147367200D01*
X229503333Y-147367200D02*
X229646190Y-147414819D01*
X229646190Y-147414819D02*
X229884285Y-147414819D01*
X228360476Y-147414819D02*
X228931904Y-147414819D01*
X228646190Y-147414819D02*
X228646190Y-146414819D01*
X228646190Y-146414819D02*
X228741428Y-146557676D01*
X228741428Y-146557676D02*
X228836666Y-146652914D01*
X228836666Y-146652914D02*
X228931904Y-146700533D01*
X227503333Y-146748152D02*
X227503333Y-147414819D01*
X227741428Y-146367200D02*
X227979523Y-147081485D01*
X227979523Y-147081485D02*
X227360476Y-147081485D01*
X225121904Y-147044819D02*
X225121904Y-146044819D01*
X224550476Y-147044819D02*
X224979047Y-146473390D01*
X224550476Y-146044819D02*
X225121904Y-146616247D01*
X143894819Y-90336666D02*
X144609104Y-90336666D01*
X144609104Y-90336666D02*
X144751961Y-90289047D01*
X144751961Y-90289047D02*
X144847200Y-90193809D01*
X144847200Y-90193809D02*
X144894819Y-90050952D01*
X144894819Y-90050952D02*
X144894819Y-89955714D01*
X143990057Y-90765238D02*
X143942438Y-90812857D01*
X143942438Y-90812857D02*
X143894819Y-90908095D01*
X143894819Y-90908095D02*
X143894819Y-91146190D01*
X143894819Y-91146190D02*
X143942438Y-91241428D01*
X143942438Y-91241428D02*
X143990057Y-91289047D01*
X143990057Y-91289047D02*
X144085295Y-91336666D01*
X144085295Y-91336666D02*
X144180533Y-91336666D01*
X144180533Y-91336666D02*
X144323390Y-91289047D01*
X144323390Y-91289047D02*
X144894819Y-90717619D01*
X144894819Y-90717619D02*
X144894819Y-91336666D01*
X168234819Y-113271905D02*
X167234819Y-113271905D01*
X167234819Y-113271905D02*
X167234819Y-113510000D01*
X167234819Y-113510000D02*
X167282438Y-113652857D01*
X167282438Y-113652857D02*
X167377676Y-113748095D01*
X167377676Y-113748095D02*
X167472914Y-113795714D01*
X167472914Y-113795714D02*
X167663390Y-113843333D01*
X167663390Y-113843333D02*
X167806247Y-113843333D01*
X167806247Y-113843333D02*
X167996723Y-113795714D01*
X167996723Y-113795714D02*
X168091961Y-113748095D01*
X168091961Y-113748095D02*
X168187200Y-113652857D01*
X168187200Y-113652857D02*
X168234819Y-113510000D01*
X168234819Y-113510000D02*
X168234819Y-113271905D01*
X168234819Y-114795714D02*
X168234819Y-114224286D01*
X168234819Y-114510000D02*
X167234819Y-114510000D01*
X167234819Y-114510000D02*
X167377676Y-114414762D01*
X167377676Y-114414762D02*
X167472914Y-114319524D01*
X167472914Y-114319524D02*
X167520533Y-114224286D01*
X168604819Y-109938095D02*
X167604819Y-109938095D01*
X168604819Y-110509523D02*
X168033390Y-110080952D01*
X167604819Y-110509523D02*
X168176247Y-109938095D01*
X151386666Y-106259580D02*
X151434285Y-106307200D01*
X151434285Y-106307200D02*
X151577142Y-106354819D01*
X151577142Y-106354819D02*
X151672380Y-106354819D01*
X151672380Y-106354819D02*
X151815237Y-106307200D01*
X151815237Y-106307200D02*
X151910475Y-106211961D01*
X151910475Y-106211961D02*
X151958094Y-106116723D01*
X151958094Y-106116723D02*
X152005713Y-105926247D01*
X152005713Y-105926247D02*
X152005713Y-105783390D01*
X152005713Y-105783390D02*
X151958094Y-105592914D01*
X151958094Y-105592914D02*
X151910475Y-105497676D01*
X151910475Y-105497676D02*
X151815237Y-105402438D01*
X151815237Y-105402438D02*
X151672380Y-105354819D01*
X151672380Y-105354819D02*
X151577142Y-105354819D01*
X151577142Y-105354819D02*
X151434285Y-105402438D01*
X151434285Y-105402438D02*
X151386666Y-105450057D01*
X150481904Y-105354819D02*
X150958094Y-105354819D01*
X150958094Y-105354819D02*
X151005713Y-105831009D01*
X151005713Y-105831009D02*
X150958094Y-105783390D01*
X150958094Y-105783390D02*
X150862856Y-105735771D01*
X150862856Y-105735771D02*
X150624761Y-105735771D01*
X150624761Y-105735771D02*
X150529523Y-105783390D01*
X150529523Y-105783390D02*
X150481904Y-105831009D01*
X150481904Y-105831009D02*
X150434285Y-105926247D01*
X150434285Y-105926247D02*
X150434285Y-106164342D01*
X150434285Y-106164342D02*
X150481904Y-106259580D01*
X150481904Y-106259580D02*
X150529523Y-106307200D01*
X150529523Y-106307200D02*
X150624761Y-106354819D01*
X150624761Y-106354819D02*
X150862856Y-106354819D01*
X150862856Y-106354819D02*
X150958094Y-106307200D01*
X150958094Y-106307200D02*
X151005713Y-106259580D01*
X241314285Y-92804819D02*
X241314285Y-91804819D01*
X241314285Y-91804819D02*
X241076190Y-91804819D01*
X241076190Y-91804819D02*
X240933333Y-91852438D01*
X240933333Y-91852438D02*
X240838095Y-91947676D01*
X240838095Y-91947676D02*
X240790476Y-92042914D01*
X240790476Y-92042914D02*
X240742857Y-92233390D01*
X240742857Y-92233390D02*
X240742857Y-92376247D01*
X240742857Y-92376247D02*
X240790476Y-92566723D01*
X240790476Y-92566723D02*
X240838095Y-92661961D01*
X240838095Y-92661961D02*
X240933333Y-92757200D01*
X240933333Y-92757200D02*
X241076190Y-92804819D01*
X241076190Y-92804819D02*
X241314285Y-92804819D01*
X239790476Y-92804819D02*
X240361904Y-92804819D01*
X240076190Y-92804819D02*
X240076190Y-91804819D01*
X240076190Y-91804819D02*
X240171428Y-91947676D01*
X240171428Y-91947676D02*
X240266666Y-92042914D01*
X240266666Y-92042914D02*
X240361904Y-92090533D01*
X238933333Y-91804819D02*
X239123809Y-91804819D01*
X239123809Y-91804819D02*
X239219047Y-91852438D01*
X239219047Y-91852438D02*
X239266666Y-91900057D01*
X239266666Y-91900057D02*
X239361904Y-92042914D01*
X239361904Y-92042914D02*
X239409523Y-92233390D01*
X239409523Y-92233390D02*
X239409523Y-92614342D01*
X239409523Y-92614342D02*
X239361904Y-92709580D01*
X239361904Y-92709580D02*
X239314285Y-92757200D01*
X239314285Y-92757200D02*
X239219047Y-92804819D01*
X239219047Y-92804819D02*
X239028571Y-92804819D01*
X239028571Y-92804819D02*
X238933333Y-92757200D01*
X238933333Y-92757200D02*
X238885714Y-92709580D01*
X238885714Y-92709580D02*
X238838095Y-92614342D01*
X238838095Y-92614342D02*
X238838095Y-92376247D01*
X238838095Y-92376247D02*
X238885714Y-92281009D01*
X238885714Y-92281009D02*
X238933333Y-92233390D01*
X238933333Y-92233390D02*
X239028571Y-92185771D01*
X239028571Y-92185771D02*
X239219047Y-92185771D01*
X239219047Y-92185771D02*
X239314285Y-92233390D01*
X239314285Y-92233390D02*
X239361904Y-92281009D01*
X239361904Y-92281009D02*
X239409523Y-92376247D01*
X236551904Y-92434819D02*
X236551904Y-91434819D01*
X235980476Y-92434819D02*
X236409047Y-91863390D01*
X235980476Y-91434819D02*
X236551904Y-92006247D01*
X262904285Y-76294819D02*
X262904285Y-75294819D01*
X262904285Y-75294819D02*
X262666190Y-75294819D01*
X262666190Y-75294819D02*
X262523333Y-75342438D01*
X262523333Y-75342438D02*
X262428095Y-75437676D01*
X262428095Y-75437676D02*
X262380476Y-75532914D01*
X262380476Y-75532914D02*
X262332857Y-75723390D01*
X262332857Y-75723390D02*
X262332857Y-75866247D01*
X262332857Y-75866247D02*
X262380476Y-76056723D01*
X262380476Y-76056723D02*
X262428095Y-76151961D01*
X262428095Y-76151961D02*
X262523333Y-76247200D01*
X262523333Y-76247200D02*
X262666190Y-76294819D01*
X262666190Y-76294819D02*
X262904285Y-76294819D01*
X261380476Y-76294819D02*
X261951904Y-76294819D01*
X261666190Y-76294819D02*
X261666190Y-75294819D01*
X261666190Y-75294819D02*
X261761428Y-75437676D01*
X261761428Y-75437676D02*
X261856666Y-75532914D01*
X261856666Y-75532914D02*
X261951904Y-75580533D01*
X261047142Y-75294819D02*
X260428095Y-75294819D01*
X260428095Y-75294819D02*
X260761428Y-75675771D01*
X260761428Y-75675771D02*
X260618571Y-75675771D01*
X260618571Y-75675771D02*
X260523333Y-75723390D01*
X260523333Y-75723390D02*
X260475714Y-75771009D01*
X260475714Y-75771009D02*
X260428095Y-75866247D01*
X260428095Y-75866247D02*
X260428095Y-76104342D01*
X260428095Y-76104342D02*
X260475714Y-76199580D01*
X260475714Y-76199580D02*
X260523333Y-76247200D01*
X260523333Y-76247200D02*
X260618571Y-76294819D01*
X260618571Y-76294819D02*
X260904285Y-76294819D01*
X260904285Y-76294819D02*
X260999523Y-76247200D01*
X260999523Y-76247200D02*
X261047142Y-76199580D01*
X258141904Y-75924819D02*
X258141904Y-74924819D01*
X257570476Y-75924819D02*
X257999047Y-75353390D01*
X257570476Y-74924819D02*
X258141904Y-75496247D01*
X149184819Y-112795714D02*
X148184819Y-112795714D01*
X148184819Y-112795714D02*
X148184819Y-113033809D01*
X148184819Y-113033809D02*
X148232438Y-113176666D01*
X148232438Y-113176666D02*
X148327676Y-113271904D01*
X148327676Y-113271904D02*
X148422914Y-113319523D01*
X148422914Y-113319523D02*
X148613390Y-113367142D01*
X148613390Y-113367142D02*
X148756247Y-113367142D01*
X148756247Y-113367142D02*
X148946723Y-113319523D01*
X148946723Y-113319523D02*
X149041961Y-113271904D01*
X149041961Y-113271904D02*
X149137200Y-113176666D01*
X149137200Y-113176666D02*
X149184819Y-113033809D01*
X149184819Y-113033809D02*
X149184819Y-112795714D01*
X149184819Y-114319523D02*
X149184819Y-113748095D01*
X149184819Y-114033809D02*
X148184819Y-114033809D01*
X148184819Y-114033809D02*
X148327676Y-113938571D01*
X148327676Y-113938571D02*
X148422914Y-113843333D01*
X148422914Y-113843333D02*
X148470533Y-113748095D01*
X149184819Y-114795714D02*
X149184819Y-114986190D01*
X149184819Y-114986190D02*
X149137200Y-115081428D01*
X149137200Y-115081428D02*
X149089580Y-115129047D01*
X149089580Y-115129047D02*
X148946723Y-115224285D01*
X148946723Y-115224285D02*
X148756247Y-115271904D01*
X148756247Y-115271904D02*
X148375295Y-115271904D01*
X148375295Y-115271904D02*
X148280057Y-115224285D01*
X148280057Y-115224285D02*
X148232438Y-115176666D01*
X148232438Y-115176666D02*
X148184819Y-115081428D01*
X148184819Y-115081428D02*
X148184819Y-114890952D01*
X148184819Y-114890952D02*
X148232438Y-114795714D01*
X148232438Y-114795714D02*
X148280057Y-114748095D01*
X148280057Y-114748095D02*
X148375295Y-114700476D01*
X148375295Y-114700476D02*
X148613390Y-114700476D01*
X148613390Y-114700476D02*
X148708628Y-114748095D01*
X148708628Y-114748095D02*
X148756247Y-114795714D01*
X148756247Y-114795714D02*
X148803866Y-114890952D01*
X148803866Y-114890952D02*
X148803866Y-115081428D01*
X148803866Y-115081428D02*
X148756247Y-115176666D01*
X148756247Y-115176666D02*
X148708628Y-115224285D01*
X148708628Y-115224285D02*
X148613390Y-115271904D01*
X149554819Y-109938095D02*
X148554819Y-109938095D01*
X149554819Y-110509523D02*
X148983390Y-110080952D01*
X148554819Y-110509523D02*
X149126247Y-109938095D01*
X267906666Y-166929580D02*
X267954285Y-166977200D01*
X267954285Y-166977200D02*
X268097142Y-167024819D01*
X268097142Y-167024819D02*
X268192380Y-167024819D01*
X268192380Y-167024819D02*
X268335237Y-166977200D01*
X268335237Y-166977200D02*
X268430475Y-166881961D01*
X268430475Y-166881961D02*
X268478094Y-166786723D01*
X268478094Y-166786723D02*
X268525713Y-166596247D01*
X268525713Y-166596247D02*
X268525713Y-166453390D01*
X268525713Y-166453390D02*
X268478094Y-166262914D01*
X268478094Y-166262914D02*
X268430475Y-166167676D01*
X268430475Y-166167676D02*
X268335237Y-166072438D01*
X268335237Y-166072438D02*
X268192380Y-166024819D01*
X268192380Y-166024819D02*
X268097142Y-166024819D01*
X268097142Y-166024819D02*
X267954285Y-166072438D01*
X267954285Y-166072438D02*
X267906666Y-166120057D01*
X267049523Y-166024819D02*
X267239999Y-166024819D01*
X267239999Y-166024819D02*
X267335237Y-166072438D01*
X267335237Y-166072438D02*
X267382856Y-166120057D01*
X267382856Y-166120057D02*
X267478094Y-166262914D01*
X267478094Y-166262914D02*
X267525713Y-166453390D01*
X267525713Y-166453390D02*
X267525713Y-166834342D01*
X267525713Y-166834342D02*
X267478094Y-166929580D01*
X267478094Y-166929580D02*
X267430475Y-166977200D01*
X267430475Y-166977200D02*
X267335237Y-167024819D01*
X267335237Y-167024819D02*
X267144761Y-167024819D01*
X267144761Y-167024819D02*
X267049523Y-166977200D01*
X267049523Y-166977200D02*
X267001904Y-166929580D01*
X267001904Y-166929580D02*
X266954285Y-166834342D01*
X266954285Y-166834342D02*
X266954285Y-166596247D01*
X266954285Y-166596247D02*
X267001904Y-166501009D01*
X267001904Y-166501009D02*
X267049523Y-166453390D01*
X267049523Y-166453390D02*
X267144761Y-166405771D01*
X267144761Y-166405771D02*
X267335237Y-166405771D01*
X267335237Y-166405771D02*
X267430475Y-166453390D01*
X267430475Y-166453390D02*
X267478094Y-166501009D01*
X267478094Y-166501009D02*
X267525713Y-166596247D01*
X256550057Y-160904761D02*
X256502438Y-160809523D01*
X256502438Y-160809523D02*
X256407200Y-160714285D01*
X256407200Y-160714285D02*
X256264342Y-160571428D01*
X256264342Y-160571428D02*
X256216723Y-160476190D01*
X256216723Y-160476190D02*
X256216723Y-160380952D01*
X256454819Y-160428571D02*
X256407200Y-160333333D01*
X256407200Y-160333333D02*
X256311961Y-160238095D01*
X256311961Y-160238095D02*
X256121485Y-160190476D01*
X256121485Y-160190476D02*
X255788152Y-160190476D01*
X255788152Y-160190476D02*
X255597676Y-160238095D01*
X255597676Y-160238095D02*
X255502438Y-160333333D01*
X255502438Y-160333333D02*
X255454819Y-160428571D01*
X255454819Y-160428571D02*
X255454819Y-160619047D01*
X255454819Y-160619047D02*
X255502438Y-160714285D01*
X255502438Y-160714285D02*
X255597676Y-160809523D01*
X255597676Y-160809523D02*
X255788152Y-160857142D01*
X255788152Y-160857142D02*
X256121485Y-160857142D01*
X256121485Y-160857142D02*
X256311961Y-160809523D01*
X256311961Y-160809523D02*
X256407200Y-160714285D01*
X256407200Y-160714285D02*
X256454819Y-160619047D01*
X256454819Y-160619047D02*
X256454819Y-160428571D01*
X256454819Y-161809523D02*
X256454819Y-161238095D01*
X256454819Y-161523809D02*
X255454819Y-161523809D01*
X255454819Y-161523809D02*
X255597676Y-161428571D01*
X255597676Y-161428571D02*
X255692914Y-161333333D01*
X255692914Y-161333333D02*
X255740533Y-161238095D01*
X187284819Y-132321905D02*
X186284819Y-132321905D01*
X186284819Y-132321905D02*
X186284819Y-132560000D01*
X186284819Y-132560000D02*
X186332438Y-132702857D01*
X186332438Y-132702857D02*
X186427676Y-132798095D01*
X186427676Y-132798095D02*
X186522914Y-132845714D01*
X186522914Y-132845714D02*
X186713390Y-132893333D01*
X186713390Y-132893333D02*
X186856247Y-132893333D01*
X186856247Y-132893333D02*
X187046723Y-132845714D01*
X187046723Y-132845714D02*
X187141961Y-132798095D01*
X187141961Y-132798095D02*
X187237200Y-132702857D01*
X187237200Y-132702857D02*
X187284819Y-132560000D01*
X187284819Y-132560000D02*
X187284819Y-132321905D01*
X186284819Y-133798095D02*
X186284819Y-133321905D01*
X186284819Y-133321905D02*
X186761009Y-133274286D01*
X186761009Y-133274286D02*
X186713390Y-133321905D01*
X186713390Y-133321905D02*
X186665771Y-133417143D01*
X186665771Y-133417143D02*
X186665771Y-133655238D01*
X186665771Y-133655238D02*
X186713390Y-133750476D01*
X186713390Y-133750476D02*
X186761009Y-133798095D01*
X186761009Y-133798095D02*
X186856247Y-133845714D01*
X186856247Y-133845714D02*
X187094342Y-133845714D01*
X187094342Y-133845714D02*
X187189580Y-133798095D01*
X187189580Y-133798095D02*
X187237200Y-133750476D01*
X187237200Y-133750476D02*
X187284819Y-133655238D01*
X187284819Y-133655238D02*
X187284819Y-133417143D01*
X187284819Y-133417143D02*
X187237200Y-133321905D01*
X187237200Y-133321905D02*
X187189580Y-133274286D01*
X187654819Y-128988095D02*
X186654819Y-128988095D01*
X187654819Y-129559523D02*
X187083390Y-129130952D01*
X186654819Y-129559523D02*
X187226247Y-128988095D01*
X229884285Y-166464819D02*
X229884285Y-165464819D01*
X229884285Y-165464819D02*
X229646190Y-165464819D01*
X229646190Y-165464819D02*
X229503333Y-165512438D01*
X229503333Y-165512438D02*
X229408095Y-165607676D01*
X229408095Y-165607676D02*
X229360476Y-165702914D01*
X229360476Y-165702914D02*
X229312857Y-165893390D01*
X229312857Y-165893390D02*
X229312857Y-166036247D01*
X229312857Y-166036247D02*
X229360476Y-166226723D01*
X229360476Y-166226723D02*
X229408095Y-166321961D01*
X229408095Y-166321961D02*
X229503333Y-166417200D01*
X229503333Y-166417200D02*
X229646190Y-166464819D01*
X229646190Y-166464819D02*
X229884285Y-166464819D01*
X228360476Y-166464819D02*
X228931904Y-166464819D01*
X228646190Y-166464819D02*
X228646190Y-165464819D01*
X228646190Y-165464819D02*
X228741428Y-165607676D01*
X228741428Y-165607676D02*
X228836666Y-165702914D01*
X228836666Y-165702914D02*
X228931904Y-165750533D01*
X227455714Y-165464819D02*
X227931904Y-165464819D01*
X227931904Y-165464819D02*
X227979523Y-165941009D01*
X227979523Y-165941009D02*
X227931904Y-165893390D01*
X227931904Y-165893390D02*
X227836666Y-165845771D01*
X227836666Y-165845771D02*
X227598571Y-165845771D01*
X227598571Y-165845771D02*
X227503333Y-165893390D01*
X227503333Y-165893390D02*
X227455714Y-165941009D01*
X227455714Y-165941009D02*
X227408095Y-166036247D01*
X227408095Y-166036247D02*
X227408095Y-166274342D01*
X227408095Y-166274342D02*
X227455714Y-166369580D01*
X227455714Y-166369580D02*
X227503333Y-166417200D01*
X227503333Y-166417200D02*
X227598571Y-166464819D01*
X227598571Y-166464819D02*
X227836666Y-166464819D01*
X227836666Y-166464819D02*
X227931904Y-166417200D01*
X227931904Y-166417200D02*
X227979523Y-166369580D01*
X225121904Y-166094819D02*
X225121904Y-165094819D01*
X224550476Y-166094819D02*
X224979047Y-165523390D01*
X224550476Y-165094819D02*
X225121904Y-165666247D01*
X258046666Y-170994819D02*
X258379999Y-170518628D01*
X258618094Y-170994819D02*
X258618094Y-169994819D01*
X258618094Y-169994819D02*
X258237142Y-169994819D01*
X258237142Y-169994819D02*
X258141904Y-170042438D01*
X258141904Y-170042438D02*
X258094285Y-170090057D01*
X258094285Y-170090057D02*
X258046666Y-170185295D01*
X258046666Y-170185295D02*
X258046666Y-170328152D01*
X258046666Y-170328152D02*
X258094285Y-170423390D01*
X258094285Y-170423390D02*
X258141904Y-170471009D01*
X258141904Y-170471009D02*
X258237142Y-170518628D01*
X258237142Y-170518628D02*
X258618094Y-170518628D01*
X257713332Y-169994819D02*
X257094285Y-169994819D01*
X257094285Y-169994819D02*
X257427618Y-170375771D01*
X257427618Y-170375771D02*
X257284761Y-170375771D01*
X257284761Y-170375771D02*
X257189523Y-170423390D01*
X257189523Y-170423390D02*
X257141904Y-170471009D01*
X257141904Y-170471009D02*
X257094285Y-170566247D01*
X257094285Y-170566247D02*
X257094285Y-170804342D01*
X257094285Y-170804342D02*
X257141904Y-170899580D01*
X257141904Y-170899580D02*
X257189523Y-170947200D01*
X257189523Y-170947200D02*
X257284761Y-170994819D01*
X257284761Y-170994819D02*
X257570475Y-170994819D01*
X257570475Y-170994819D02*
X257665713Y-170947200D01*
X257665713Y-170947200D02*
X257713332Y-170899580D01*
X124364819Y-110033333D02*
X123888628Y-109700000D01*
X124364819Y-109461905D02*
X123364819Y-109461905D01*
X123364819Y-109461905D02*
X123364819Y-109842857D01*
X123364819Y-109842857D02*
X123412438Y-109938095D01*
X123412438Y-109938095D02*
X123460057Y-109985714D01*
X123460057Y-109985714D02*
X123555295Y-110033333D01*
X123555295Y-110033333D02*
X123698152Y-110033333D01*
X123698152Y-110033333D02*
X123793390Y-109985714D01*
X123793390Y-109985714D02*
X123841009Y-109938095D01*
X123841009Y-109938095D02*
X123888628Y-109842857D01*
X123888628Y-109842857D02*
X123888628Y-109461905D01*
X123460057Y-110414286D02*
X123412438Y-110461905D01*
X123412438Y-110461905D02*
X123364819Y-110557143D01*
X123364819Y-110557143D02*
X123364819Y-110795238D01*
X123364819Y-110795238D02*
X123412438Y-110890476D01*
X123412438Y-110890476D02*
X123460057Y-110938095D01*
X123460057Y-110938095D02*
X123555295Y-110985714D01*
X123555295Y-110985714D02*
X123650533Y-110985714D01*
X123650533Y-110985714D02*
X123793390Y-110938095D01*
X123793390Y-110938095D02*
X124364819Y-110366667D01*
X124364819Y-110366667D02*
X124364819Y-110985714D01*
X168234819Y-132321905D02*
X167234819Y-132321905D01*
X167234819Y-132321905D02*
X167234819Y-132560000D01*
X167234819Y-132560000D02*
X167282438Y-132702857D01*
X167282438Y-132702857D02*
X167377676Y-132798095D01*
X167377676Y-132798095D02*
X167472914Y-132845714D01*
X167472914Y-132845714D02*
X167663390Y-132893333D01*
X167663390Y-132893333D02*
X167806247Y-132893333D01*
X167806247Y-132893333D02*
X167996723Y-132845714D01*
X167996723Y-132845714D02*
X168091961Y-132798095D01*
X168091961Y-132798095D02*
X168187200Y-132702857D01*
X168187200Y-132702857D02*
X168234819Y-132560000D01*
X168234819Y-132560000D02*
X168234819Y-132321905D01*
X167568152Y-133750476D02*
X168234819Y-133750476D01*
X167187200Y-133512381D02*
X167901485Y-133274286D01*
X167901485Y-133274286D02*
X167901485Y-133893333D01*
X168604819Y-128988095D02*
X167604819Y-128988095D01*
X168604819Y-129559523D02*
X168033390Y-129130952D01*
X167604819Y-129559523D02*
X168176247Y-128988095D01*
X187284819Y-151371905D02*
X186284819Y-151371905D01*
X186284819Y-151371905D02*
X186284819Y-151610000D01*
X186284819Y-151610000D02*
X186332438Y-151752857D01*
X186332438Y-151752857D02*
X186427676Y-151848095D01*
X186427676Y-151848095D02*
X186522914Y-151895714D01*
X186522914Y-151895714D02*
X186713390Y-151943333D01*
X186713390Y-151943333D02*
X186856247Y-151943333D01*
X186856247Y-151943333D02*
X187046723Y-151895714D01*
X187046723Y-151895714D02*
X187141961Y-151848095D01*
X187141961Y-151848095D02*
X187237200Y-151752857D01*
X187237200Y-151752857D02*
X187284819Y-151610000D01*
X187284819Y-151610000D02*
X187284819Y-151371905D01*
X186713390Y-152514762D02*
X186665771Y-152419524D01*
X186665771Y-152419524D02*
X186618152Y-152371905D01*
X186618152Y-152371905D02*
X186522914Y-152324286D01*
X186522914Y-152324286D02*
X186475295Y-152324286D01*
X186475295Y-152324286D02*
X186380057Y-152371905D01*
X186380057Y-152371905D02*
X186332438Y-152419524D01*
X186332438Y-152419524D02*
X186284819Y-152514762D01*
X186284819Y-152514762D02*
X186284819Y-152705238D01*
X186284819Y-152705238D02*
X186332438Y-152800476D01*
X186332438Y-152800476D02*
X186380057Y-152848095D01*
X186380057Y-152848095D02*
X186475295Y-152895714D01*
X186475295Y-152895714D02*
X186522914Y-152895714D01*
X186522914Y-152895714D02*
X186618152Y-152848095D01*
X186618152Y-152848095D02*
X186665771Y-152800476D01*
X186665771Y-152800476D02*
X186713390Y-152705238D01*
X186713390Y-152705238D02*
X186713390Y-152514762D01*
X186713390Y-152514762D02*
X186761009Y-152419524D01*
X186761009Y-152419524D02*
X186808628Y-152371905D01*
X186808628Y-152371905D02*
X186903866Y-152324286D01*
X186903866Y-152324286D02*
X187094342Y-152324286D01*
X187094342Y-152324286D02*
X187189580Y-152371905D01*
X187189580Y-152371905D02*
X187237200Y-152419524D01*
X187237200Y-152419524D02*
X187284819Y-152514762D01*
X187284819Y-152514762D02*
X187284819Y-152705238D01*
X187284819Y-152705238D02*
X187237200Y-152800476D01*
X187237200Y-152800476D02*
X187189580Y-152848095D01*
X187189580Y-152848095D02*
X187094342Y-152895714D01*
X187094342Y-152895714D02*
X186903866Y-152895714D01*
X186903866Y-152895714D02*
X186808628Y-152848095D01*
X186808628Y-152848095D02*
X186761009Y-152800476D01*
X186761009Y-152800476D02*
X186713390Y-152705238D01*
X187654819Y-148038095D02*
X186654819Y-148038095D01*
X187654819Y-148609523D02*
X187083390Y-148180952D01*
X186654819Y-148609523D02*
X187226247Y-148038095D01*
X254014285Y-92804819D02*
X254014285Y-91804819D01*
X254014285Y-91804819D02*
X253776190Y-91804819D01*
X253776190Y-91804819D02*
X253633333Y-91852438D01*
X253633333Y-91852438D02*
X253538095Y-91947676D01*
X253538095Y-91947676D02*
X253490476Y-92042914D01*
X253490476Y-92042914D02*
X253442857Y-92233390D01*
X253442857Y-92233390D02*
X253442857Y-92376247D01*
X253442857Y-92376247D02*
X253490476Y-92566723D01*
X253490476Y-92566723D02*
X253538095Y-92661961D01*
X253538095Y-92661961D02*
X253633333Y-92757200D01*
X253633333Y-92757200D02*
X253776190Y-92804819D01*
X253776190Y-92804819D02*
X254014285Y-92804819D01*
X252490476Y-92804819D02*
X253061904Y-92804819D01*
X252776190Y-92804819D02*
X252776190Y-91804819D01*
X252776190Y-91804819D02*
X252871428Y-91947676D01*
X252871428Y-91947676D02*
X252966666Y-92042914D01*
X252966666Y-92042914D02*
X253061904Y-92090533D01*
X252157142Y-91804819D02*
X251490476Y-91804819D01*
X251490476Y-91804819D02*
X251919047Y-92804819D01*
X249251904Y-92434819D02*
X249251904Y-91434819D01*
X248680476Y-92434819D02*
X249109047Y-91863390D01*
X248680476Y-91434819D02*
X249251904Y-92006247D01*
X133654285Y-71354819D02*
X133654285Y-70354819D01*
X133654285Y-70354819D02*
X133416190Y-70354819D01*
X133416190Y-70354819D02*
X133273333Y-70402438D01*
X133273333Y-70402438D02*
X133178095Y-70497676D01*
X133178095Y-70497676D02*
X133130476Y-70592914D01*
X133130476Y-70592914D02*
X133082857Y-70783390D01*
X133082857Y-70783390D02*
X133082857Y-70926247D01*
X133082857Y-70926247D02*
X133130476Y-71116723D01*
X133130476Y-71116723D02*
X133178095Y-71211961D01*
X133178095Y-71211961D02*
X133273333Y-71307200D01*
X133273333Y-71307200D02*
X133416190Y-71354819D01*
X133416190Y-71354819D02*
X133654285Y-71354819D01*
X132130476Y-71354819D02*
X132701904Y-71354819D01*
X132416190Y-71354819D02*
X132416190Y-70354819D01*
X132416190Y-70354819D02*
X132511428Y-70497676D01*
X132511428Y-70497676D02*
X132606666Y-70592914D01*
X132606666Y-70592914D02*
X132701904Y-70640533D01*
X131511428Y-70354819D02*
X131416190Y-70354819D01*
X131416190Y-70354819D02*
X131320952Y-70402438D01*
X131320952Y-70402438D02*
X131273333Y-70450057D01*
X131273333Y-70450057D02*
X131225714Y-70545295D01*
X131225714Y-70545295D02*
X131178095Y-70735771D01*
X131178095Y-70735771D02*
X131178095Y-70973866D01*
X131178095Y-70973866D02*
X131225714Y-71164342D01*
X131225714Y-71164342D02*
X131273333Y-71259580D01*
X131273333Y-71259580D02*
X131320952Y-71307200D01*
X131320952Y-71307200D02*
X131416190Y-71354819D01*
X131416190Y-71354819D02*
X131511428Y-71354819D01*
X131511428Y-71354819D02*
X131606666Y-71307200D01*
X131606666Y-71307200D02*
X131654285Y-71259580D01*
X131654285Y-71259580D02*
X131701904Y-71164342D01*
X131701904Y-71164342D02*
X131749523Y-70973866D01*
X131749523Y-70973866D02*
X131749523Y-70735771D01*
X131749523Y-70735771D02*
X131701904Y-70545295D01*
X131701904Y-70545295D02*
X131654285Y-70450057D01*
X131654285Y-70450057D02*
X131606666Y-70402438D01*
X131606666Y-70402438D02*
X131511428Y-70354819D01*
X136511904Y-71724819D02*
X136511904Y-70724819D01*
X135940476Y-71724819D02*
X136369047Y-71153390D01*
X135940476Y-70724819D02*
X136511904Y-71296247D01*
X121859580Y-127833333D02*
X121907200Y-127785714D01*
X121907200Y-127785714D02*
X121954819Y-127642857D01*
X121954819Y-127642857D02*
X121954819Y-127547619D01*
X121954819Y-127547619D02*
X121907200Y-127404762D01*
X121907200Y-127404762D02*
X121811961Y-127309524D01*
X121811961Y-127309524D02*
X121716723Y-127261905D01*
X121716723Y-127261905D02*
X121526247Y-127214286D01*
X121526247Y-127214286D02*
X121383390Y-127214286D01*
X121383390Y-127214286D02*
X121192914Y-127261905D01*
X121192914Y-127261905D02*
X121097676Y-127309524D01*
X121097676Y-127309524D02*
X121002438Y-127404762D01*
X121002438Y-127404762D02*
X120954819Y-127547619D01*
X120954819Y-127547619D02*
X120954819Y-127642857D01*
X120954819Y-127642857D02*
X121002438Y-127785714D01*
X121002438Y-127785714D02*
X121050057Y-127833333D01*
X121288152Y-128690476D02*
X121954819Y-128690476D01*
X120907200Y-128452381D02*
X121621485Y-128214286D01*
X121621485Y-128214286D02*
X121621485Y-128833333D01*
X266714285Y-92804819D02*
X266714285Y-91804819D01*
X266714285Y-91804819D02*
X266476190Y-91804819D01*
X266476190Y-91804819D02*
X266333333Y-91852438D01*
X266333333Y-91852438D02*
X266238095Y-91947676D01*
X266238095Y-91947676D02*
X266190476Y-92042914D01*
X266190476Y-92042914D02*
X266142857Y-92233390D01*
X266142857Y-92233390D02*
X266142857Y-92376247D01*
X266142857Y-92376247D02*
X266190476Y-92566723D01*
X266190476Y-92566723D02*
X266238095Y-92661961D01*
X266238095Y-92661961D02*
X266333333Y-92757200D01*
X266333333Y-92757200D02*
X266476190Y-92804819D01*
X266476190Y-92804819D02*
X266714285Y-92804819D01*
X265190476Y-92804819D02*
X265761904Y-92804819D01*
X265476190Y-92804819D02*
X265476190Y-91804819D01*
X265476190Y-91804819D02*
X265571428Y-91947676D01*
X265571428Y-91947676D02*
X265666666Y-92042914D01*
X265666666Y-92042914D02*
X265761904Y-92090533D01*
X264619047Y-92233390D02*
X264714285Y-92185771D01*
X264714285Y-92185771D02*
X264761904Y-92138152D01*
X264761904Y-92138152D02*
X264809523Y-92042914D01*
X264809523Y-92042914D02*
X264809523Y-91995295D01*
X264809523Y-91995295D02*
X264761904Y-91900057D01*
X264761904Y-91900057D02*
X264714285Y-91852438D01*
X264714285Y-91852438D02*
X264619047Y-91804819D01*
X264619047Y-91804819D02*
X264428571Y-91804819D01*
X264428571Y-91804819D02*
X264333333Y-91852438D01*
X264333333Y-91852438D02*
X264285714Y-91900057D01*
X264285714Y-91900057D02*
X264238095Y-91995295D01*
X264238095Y-91995295D02*
X264238095Y-92042914D01*
X264238095Y-92042914D02*
X264285714Y-92138152D01*
X264285714Y-92138152D02*
X264333333Y-92185771D01*
X264333333Y-92185771D02*
X264428571Y-92233390D01*
X264428571Y-92233390D02*
X264619047Y-92233390D01*
X264619047Y-92233390D02*
X264714285Y-92281009D01*
X264714285Y-92281009D02*
X264761904Y-92328628D01*
X264761904Y-92328628D02*
X264809523Y-92423866D01*
X264809523Y-92423866D02*
X264809523Y-92614342D01*
X264809523Y-92614342D02*
X264761904Y-92709580D01*
X264761904Y-92709580D02*
X264714285Y-92757200D01*
X264714285Y-92757200D02*
X264619047Y-92804819D01*
X264619047Y-92804819D02*
X264428571Y-92804819D01*
X264428571Y-92804819D02*
X264333333Y-92757200D01*
X264333333Y-92757200D02*
X264285714Y-92709580D01*
X264285714Y-92709580D02*
X264238095Y-92614342D01*
X264238095Y-92614342D02*
X264238095Y-92423866D01*
X264238095Y-92423866D02*
X264285714Y-92328628D01*
X264285714Y-92328628D02*
X264333333Y-92281009D01*
X264333333Y-92281009D02*
X264428571Y-92233390D01*
X261951904Y-92434819D02*
X261951904Y-91434819D01*
X261380476Y-92434819D02*
X261809047Y-91863390D01*
X261380476Y-91434819D02*
X261951904Y-92006247D01*
X229884285Y-141064819D02*
X229884285Y-140064819D01*
X229884285Y-140064819D02*
X229646190Y-140064819D01*
X229646190Y-140064819D02*
X229503333Y-140112438D01*
X229503333Y-140112438D02*
X229408095Y-140207676D01*
X229408095Y-140207676D02*
X229360476Y-140302914D01*
X229360476Y-140302914D02*
X229312857Y-140493390D01*
X229312857Y-140493390D02*
X229312857Y-140636247D01*
X229312857Y-140636247D02*
X229360476Y-140826723D01*
X229360476Y-140826723D02*
X229408095Y-140921961D01*
X229408095Y-140921961D02*
X229503333Y-141017200D01*
X229503333Y-141017200D02*
X229646190Y-141064819D01*
X229646190Y-141064819D02*
X229884285Y-141064819D01*
X228360476Y-141064819D02*
X228931904Y-141064819D01*
X228646190Y-141064819D02*
X228646190Y-140064819D01*
X228646190Y-140064819D02*
X228741428Y-140207676D01*
X228741428Y-140207676D02*
X228836666Y-140302914D01*
X228836666Y-140302914D02*
X228931904Y-140350533D01*
X227408095Y-141064819D02*
X227979523Y-141064819D01*
X227693809Y-141064819D02*
X227693809Y-140064819D01*
X227693809Y-140064819D02*
X227789047Y-140207676D01*
X227789047Y-140207676D02*
X227884285Y-140302914D01*
X227884285Y-140302914D02*
X227979523Y-140350533D01*
X225121904Y-140694819D02*
X225121904Y-139694819D01*
X224550476Y-140694819D02*
X224979047Y-140123390D01*
X224550476Y-139694819D02*
X225121904Y-140266247D01*
X168234819Y-151371905D02*
X167234819Y-151371905D01*
X167234819Y-151371905D02*
X167234819Y-151610000D01*
X167234819Y-151610000D02*
X167282438Y-151752857D01*
X167282438Y-151752857D02*
X167377676Y-151848095D01*
X167377676Y-151848095D02*
X167472914Y-151895714D01*
X167472914Y-151895714D02*
X167663390Y-151943333D01*
X167663390Y-151943333D02*
X167806247Y-151943333D01*
X167806247Y-151943333D02*
X167996723Y-151895714D01*
X167996723Y-151895714D02*
X168091961Y-151848095D01*
X168091961Y-151848095D02*
X168187200Y-151752857D01*
X168187200Y-151752857D02*
X168234819Y-151610000D01*
X168234819Y-151610000D02*
X168234819Y-151371905D01*
X167234819Y-152276667D02*
X167234819Y-152943333D01*
X167234819Y-152943333D02*
X168234819Y-152514762D01*
X168604819Y-148038095D02*
X167604819Y-148038095D01*
X168604819Y-148609523D02*
X168033390Y-148180952D01*
X167604819Y-148609523D02*
X168176247Y-148038095D01*
X263134819Y-158126666D02*
X263849104Y-158126666D01*
X263849104Y-158126666D02*
X263991961Y-158079047D01*
X263991961Y-158079047D02*
X264087200Y-157983809D01*
X264087200Y-157983809D02*
X264134819Y-157840952D01*
X264134819Y-157840952D02*
X264134819Y-157745714D01*
X263134819Y-158507619D02*
X263134819Y-159126666D01*
X263134819Y-159126666D02*
X263515771Y-158793333D01*
X263515771Y-158793333D02*
X263515771Y-158936190D01*
X263515771Y-158936190D02*
X263563390Y-159031428D01*
X263563390Y-159031428D02*
X263611009Y-159079047D01*
X263611009Y-159079047D02*
X263706247Y-159126666D01*
X263706247Y-159126666D02*
X263944342Y-159126666D01*
X263944342Y-159126666D02*
X264039580Y-159079047D01*
X264039580Y-159079047D02*
X264087200Y-159031428D01*
X264087200Y-159031428D02*
X264134819Y-158936190D01*
X264134819Y-158936190D02*
X264134819Y-158650476D01*
X264134819Y-158650476D02*
X264087200Y-158555238D01*
X264087200Y-158555238D02*
X264039580Y-158507619D01*
D11*
X134802580Y-151227173D02*
X133993057Y-151227173D01*
X133993057Y-151227173D02*
X133897819Y-151179554D01*
X133897819Y-151179554D02*
X133850200Y-151131935D01*
X133850200Y-151131935D02*
X133802580Y-151036697D01*
X133802580Y-151036697D02*
X133802580Y-150846221D01*
X133802580Y-150846221D02*
X133850200Y-150750983D01*
X133850200Y-150750983D02*
X133897819Y-150703364D01*
X133897819Y-150703364D02*
X133993057Y-150655745D01*
X133993057Y-150655745D02*
X134802580Y-150655745D01*
X134802580Y-150274792D02*
X134802580Y-149655745D01*
X134802580Y-149655745D02*
X134421628Y-149989078D01*
X134421628Y-149989078D02*
X134421628Y-149846221D01*
X134421628Y-149846221D02*
X134374009Y-149750983D01*
X134374009Y-149750983D02*
X134326390Y-149703364D01*
X134326390Y-149703364D02*
X134231152Y-149655745D01*
X134231152Y-149655745D02*
X133993057Y-149655745D01*
X133993057Y-149655745D02*
X133897819Y-149703364D01*
X133897819Y-149703364D02*
X133850200Y-149750983D01*
X133850200Y-149750983D02*
X133802580Y-149846221D01*
X133802580Y-149846221D02*
X133802580Y-150131935D01*
X133802580Y-150131935D02*
X133850200Y-150227173D01*
X133850200Y-150227173D02*
X133897819Y-150274792D01*
X123801027Y-146112849D02*
X124134360Y-145112849D01*
X124134360Y-145112849D02*
X124467693Y-146112849D01*
X124991503Y-146112849D02*
X125181979Y-146112849D01*
X125181979Y-146112849D02*
X125277217Y-146065230D01*
X125277217Y-146065230D02*
X125372455Y-145969992D01*
X125372455Y-145969992D02*
X125420074Y-145779516D01*
X125420074Y-145779516D02*
X125420074Y-145446183D01*
X125420074Y-145446183D02*
X125372455Y-145255707D01*
X125372455Y-145255707D02*
X125277217Y-145160469D01*
X125277217Y-145160469D02*
X125181979Y-145112849D01*
X125181979Y-145112849D02*
X124991503Y-145112849D01*
X124991503Y-145112849D02*
X124896265Y-145160469D01*
X124896265Y-145160469D02*
X124801027Y-145255707D01*
X124801027Y-145255707D02*
X124753408Y-145446183D01*
X124753408Y-145446183D02*
X124753408Y-145779516D01*
X124753408Y-145779516D02*
X124801027Y-145969992D01*
X124801027Y-145969992D02*
X124896265Y-146065230D01*
X124896265Y-146065230D02*
X124991503Y-146112849D01*
X125848646Y-146112849D02*
X125848646Y-145303326D01*
X125848646Y-145303326D02*
X125896265Y-145208088D01*
X125896265Y-145208088D02*
X125943884Y-145160469D01*
X125943884Y-145160469D02*
X126039122Y-145112849D01*
X126039122Y-145112849D02*
X126229598Y-145112849D01*
X126229598Y-145112849D02*
X126324836Y-145160469D01*
X126324836Y-145160469D02*
X126372455Y-145208088D01*
X126372455Y-145208088D02*
X126420074Y-145303326D01*
X126420074Y-145303326D02*
X126420074Y-146112849D01*
X126753408Y-146112849D02*
X127324836Y-146112849D01*
X127039122Y-145112849D02*
X127039122Y-146112849D01*
X124467693Y-148605230D02*
X124372455Y-148652849D01*
X124372455Y-148652849D02*
X124229598Y-148652849D01*
X124229598Y-148652849D02*
X124086741Y-148605230D01*
X124086741Y-148605230D02*
X123991503Y-148509992D01*
X123991503Y-148509992D02*
X123943884Y-148414754D01*
X123943884Y-148414754D02*
X123896265Y-148224278D01*
X123896265Y-148224278D02*
X123896265Y-148081421D01*
X123896265Y-148081421D02*
X123943884Y-147890945D01*
X123943884Y-147890945D02*
X123991503Y-147795707D01*
X123991503Y-147795707D02*
X124086741Y-147700469D01*
X124086741Y-147700469D02*
X124229598Y-147652849D01*
X124229598Y-147652849D02*
X124324836Y-147652849D01*
X124324836Y-147652849D02*
X124467693Y-147700469D01*
X124467693Y-147700469D02*
X124515312Y-147748088D01*
X124515312Y-147748088D02*
X124515312Y-148081421D01*
X124515312Y-148081421D02*
X124324836Y-148081421D01*
X124943884Y-147652849D02*
X124943884Y-148652849D01*
X124943884Y-148652849D02*
X125515312Y-147652849D01*
X125515312Y-147652849D02*
X125515312Y-148652849D01*
X125991503Y-147652849D02*
X125991503Y-148652849D01*
X125991503Y-148652849D02*
X126229598Y-148652849D01*
X126229598Y-148652849D02*
X126372455Y-148605230D01*
X126372455Y-148605230D02*
X126467693Y-148509992D01*
X126467693Y-148509992D02*
X126515312Y-148414754D01*
X126515312Y-148414754D02*
X126562931Y-148224278D01*
X126562931Y-148224278D02*
X126562931Y-148081421D01*
X126562931Y-148081421D02*
X126515312Y-147890945D01*
X126515312Y-147890945D02*
X126467693Y-147795707D01*
X126467693Y-147795707D02*
X126372455Y-147700469D01*
X126372455Y-147700469D02*
X126229598Y-147652849D01*
X126229598Y-147652849D02*
X125991503Y-147652849D01*
X124467693Y-151145230D02*
X124372455Y-151192849D01*
X124372455Y-151192849D02*
X124229598Y-151192849D01*
X124229598Y-151192849D02*
X124086741Y-151145230D01*
X124086741Y-151145230D02*
X123991503Y-151049992D01*
X123991503Y-151049992D02*
X123943884Y-150954754D01*
X123943884Y-150954754D02*
X123896265Y-150764278D01*
X123896265Y-150764278D02*
X123896265Y-150621421D01*
X123896265Y-150621421D02*
X123943884Y-150430945D01*
X123943884Y-150430945D02*
X123991503Y-150335707D01*
X123991503Y-150335707D02*
X124086741Y-150240469D01*
X124086741Y-150240469D02*
X124229598Y-150192849D01*
X124229598Y-150192849D02*
X124324836Y-150192849D01*
X124324836Y-150192849D02*
X124467693Y-150240469D01*
X124467693Y-150240469D02*
X124515312Y-150288088D01*
X124515312Y-150288088D02*
X124515312Y-150621421D01*
X124515312Y-150621421D02*
X124324836Y-150621421D01*
X124943884Y-150192849D02*
X124943884Y-151192849D01*
X124943884Y-151192849D02*
X125515312Y-150192849D01*
X125515312Y-150192849D02*
X125515312Y-151192849D01*
X125991503Y-150192849D02*
X125991503Y-151192849D01*
X125991503Y-151192849D02*
X126229598Y-151192849D01*
X126229598Y-151192849D02*
X126372455Y-151145230D01*
X126372455Y-151145230D02*
X126467693Y-151049992D01*
X126467693Y-151049992D02*
X126515312Y-150954754D01*
X126515312Y-150954754D02*
X126562931Y-150764278D01*
X126562931Y-150764278D02*
X126562931Y-150621421D01*
X126562931Y-150621421D02*
X126515312Y-150430945D01*
X126515312Y-150430945D02*
X126467693Y-150335707D01*
X126467693Y-150335707D02*
X126372455Y-150240469D01*
X126372455Y-150240469D02*
X126229598Y-150192849D01*
X126229598Y-150192849D02*
X125991503Y-150192849D01*
X123801027Y-153732849D02*
X124134360Y-152732849D01*
X124134360Y-152732849D02*
X124467693Y-153732849D01*
X124801027Y-152732849D02*
X124801027Y-153732849D01*
X125277217Y-152732849D02*
X125277217Y-153732849D01*
X125277217Y-153732849D02*
X125848645Y-152732849D01*
X125848645Y-152732849D02*
X125848645Y-153732849D01*
X123943884Y-155796659D02*
X124277217Y-155796659D01*
X124420074Y-155272849D02*
X123943884Y-155272849D01*
X123943884Y-155272849D02*
X123943884Y-156272849D01*
X123943884Y-156272849D02*
X124420074Y-156272849D01*
X124848646Y-155272849D02*
X124848646Y-156272849D01*
X124848646Y-156272849D02*
X125420074Y-155272849D01*
X125420074Y-155272849D02*
X125420074Y-156272849D01*
D12*
X162420000Y-72430000D02*
X162420000Y-75030000D01*
X162420000Y-72430000D02*
X213340000Y-72430000D01*
X162420000Y-75030000D02*
X165020000Y-75030000D01*
X162420000Y-76300000D02*
X162420000Y-77630000D01*
X162420000Y-77630000D02*
X163750000Y-77630000D01*
X165020000Y-75030000D02*
X165020000Y-77630000D01*
X165020000Y-77630000D02*
X213340000Y-77630000D01*
X213340000Y-72430000D02*
X213340000Y-77630000D01*
X125740000Y-107550000D02*
X146180000Y-107550000D01*
X125740000Y-112850000D02*
X125740000Y-107550000D01*
X146180000Y-107550000D02*
X146180000Y-109200000D01*
X146180000Y-111200000D02*
X146180000Y-112850000D01*
X146180000Y-112850000D02*
X125740000Y-112850000D01*
X146180000Y-111200000D02*
G75*
G02*
X146180000Y-109200000I0J1000000D01*
G01*
X206880000Y-130340000D02*
X206880000Y-135780000D01*
X206880000Y-131120000D02*
X209820000Y-131120000D01*
X206880000Y-131240000D02*
X209820000Y-131240000D01*
X206880000Y-131360000D02*
X209820000Y-131360000D01*
X206880000Y-135780000D02*
X207010000Y-135780000D01*
X207010000Y-130340000D02*
X206880000Y-130340000D01*
X209690000Y-130340000D02*
X209820000Y-130340000D01*
X209820000Y-130340000D02*
X209820000Y-135780000D01*
X209820000Y-135780000D02*
X209690000Y-135780000D01*
D11*
X117010000Y-86264801D02*
X117010000Y-103464801D01*
X117010000Y-103464801D02*
X144010000Y-103464801D01*
X144010000Y-86264801D02*
X117010000Y-86264801D01*
X144010000Y-103464801D02*
X144010000Y-86264801D01*
D12*
X268658309Y-77010000D02*
X268658309Y-72510000D01*
X271158309Y-71260000D02*
X272658309Y-71260000D01*
X272658309Y-78260000D02*
X271158309Y-78260000D01*
X275158309Y-72510000D02*
X275158309Y-77010000D01*
X118740000Y-76880641D02*
X118740000Y-72380641D01*
X121240000Y-71130641D02*
X122740000Y-71130641D01*
X122740000Y-78130641D02*
X121240000Y-78130641D01*
X125240000Y-72380641D02*
X125240000Y-76880641D01*
X225950000Y-155720000D02*
X231390000Y-155720000D01*
X225950000Y-155850000D02*
X225950000Y-155720000D01*
X225950000Y-158530000D02*
X225950000Y-158660000D01*
X225950000Y-158660000D02*
X231390000Y-158660000D01*
X226730000Y-158660000D02*
X226730000Y-155720000D01*
X226850000Y-158660000D02*
X226850000Y-155720000D01*
X226970000Y-158660000D02*
X226970000Y-155720000D01*
X231390000Y-155720000D02*
X231390000Y-155850000D01*
X231390000Y-158660000D02*
X231390000Y-158530000D01*
X206880000Y-111290000D02*
X206880000Y-116730000D01*
X206880000Y-112070000D02*
X209820000Y-112070000D01*
X206880000Y-112190000D02*
X209820000Y-112190000D01*
X206880000Y-112310000D02*
X209820000Y-112310000D01*
X206880000Y-116730000D02*
X207010000Y-116730000D01*
X207010000Y-111290000D02*
X206880000Y-111290000D01*
X209690000Y-111290000D02*
X209820000Y-111290000D01*
X209820000Y-111290000D02*
X209820000Y-116730000D01*
X209820000Y-116730000D02*
X209690000Y-116730000D01*
X149730000Y-130340000D02*
X149730000Y-135780000D01*
X149730000Y-131120000D02*
X152670000Y-131120000D01*
X149730000Y-131240000D02*
X152670000Y-131240000D01*
X149730000Y-131360000D02*
X152670000Y-131360000D01*
X149730000Y-135780000D02*
X149860000Y-135780000D01*
X149860000Y-130340000D02*
X149730000Y-130340000D01*
X152540000Y-130340000D02*
X152670000Y-130340000D01*
X152670000Y-130340000D02*
X152670000Y-135780000D01*
X152670000Y-135780000D02*
X152540000Y-135780000D01*
X264950000Y-163540000D02*
X265600000Y-163540000D01*
X269000000Y-162420000D02*
X269000000Y-164660000D01*
X269120000Y-162420000D02*
X269120000Y-164660000D01*
X269240000Y-162420000D02*
X269240000Y-164660000D01*
X270490000Y-163540000D02*
X269840000Y-163540000D01*
X265600000Y-162420000D02*
X269840000Y-162420000D01*
X269840000Y-164660000D01*
X265600000Y-164660000D01*
X265600000Y-162420000D01*
X187830000Y-111290000D02*
X187830000Y-116730000D01*
X187830000Y-112070000D02*
X190770000Y-112070000D01*
X187830000Y-112190000D02*
X190770000Y-112190000D01*
X187830000Y-112310000D02*
X190770000Y-112310000D01*
X187830000Y-116730000D02*
X187960000Y-116730000D01*
X187960000Y-111290000D02*
X187830000Y-111290000D01*
X190640000Y-111290000D02*
X190770000Y-111290000D01*
X190770000Y-111290000D02*
X190770000Y-116730000D01*
X190770000Y-116730000D02*
X190640000Y-116730000D01*
X206880000Y-149390000D02*
X206880000Y-154830000D01*
X206880000Y-150170000D02*
X209820000Y-150170000D01*
X206880000Y-150290000D02*
X209820000Y-150290000D01*
X206880000Y-150410000D02*
X209820000Y-150410000D01*
X206880000Y-154830000D02*
X207010000Y-154830000D01*
X207010000Y-149390000D02*
X206880000Y-149390000D01*
X209690000Y-149390000D02*
X209820000Y-149390000D01*
X209820000Y-149390000D02*
X209820000Y-154830000D01*
X209820000Y-154830000D02*
X209690000Y-154830000D01*
X146350000Y-80410000D02*
X145738000Y-80410000D01*
X146350000Y-80450000D02*
X145691000Y-80450000D01*
X146350000Y-80490000D02*
X145647000Y-80490000D01*
X146350000Y-80530000D02*
X145605000Y-80530000D01*
X146350000Y-80570000D02*
X145565000Y-80570000D01*
X146350000Y-80610000D02*
X145526000Y-80610000D01*
X146350000Y-80650000D02*
X145489000Y-80650000D01*
X146350000Y-80690000D02*
X145454000Y-80690000D01*
X146350000Y-80730000D02*
X145420000Y-80730000D01*
X146350000Y-80770000D02*
X145387000Y-80770000D01*
X146350000Y-80810000D02*
X145355000Y-80810000D01*
X146350000Y-80850000D02*
X145325000Y-80850000D01*
X146350000Y-80890000D02*
X145296000Y-80890000D01*
X146350000Y-80930000D02*
X145268000Y-80930000D01*
X146350000Y-80970000D02*
X145241000Y-80970000D01*
X146350000Y-81010000D02*
X145215000Y-81010000D01*
X146350000Y-81050000D02*
X145191000Y-81050000D01*
X146350000Y-81090000D02*
X145167000Y-81090000D01*
X146350000Y-81130000D02*
X145144000Y-81130000D01*
X146350000Y-81170000D02*
X145122000Y-81170000D01*
X146350000Y-81210000D02*
X145101000Y-81210000D01*
X146350000Y-81250000D02*
X145081000Y-81250000D01*
X146350000Y-81290000D02*
X145061000Y-81290000D01*
X146350000Y-81330000D02*
X145043000Y-81330000D01*
X146350000Y-81370000D02*
X145025000Y-81370000D01*
X146350000Y-81410000D02*
X145008000Y-81410000D01*
X146350000Y-81450000D02*
X144992000Y-81450000D01*
X146350000Y-81490000D02*
X144977000Y-81490000D01*
X146350000Y-81530000D02*
X144962000Y-81530000D01*
X146350000Y-81570000D02*
X144948000Y-81570000D01*
X146350000Y-81610000D02*
X144935000Y-81610000D01*
X146350000Y-81650000D02*
X144923000Y-81650000D01*
X146350000Y-81690000D02*
X144911000Y-81690000D01*
X146350000Y-81730000D02*
X144900000Y-81730000D01*
X146350000Y-81770000D02*
X144889000Y-81770000D01*
X146350000Y-81810000D02*
X144880000Y-81810000D01*
X146350000Y-81850000D02*
X144871000Y-81850000D01*
X146350000Y-81890000D02*
X144862000Y-81890000D01*
X146350000Y-81930000D02*
X144854000Y-81930000D01*
X146350000Y-81970000D02*
X144847000Y-81970000D01*
X146350000Y-82010000D02*
X144841000Y-82010000D01*
X146350000Y-82050000D02*
X144835000Y-82050000D01*
X146350000Y-82090000D02*
X144830000Y-82090000D01*
X146350000Y-82130000D02*
X144825000Y-82130000D01*
X146350000Y-82170000D02*
X144821000Y-82170000D01*
X146350000Y-82210000D02*
X144818000Y-82210000D01*
X146350000Y-82250000D02*
X144815000Y-82250000D01*
X146350000Y-82290000D02*
X144813000Y-82290000D01*
X146350000Y-82330000D02*
X144811000Y-82330000D01*
X146350000Y-82370000D02*
X144810000Y-82370000D01*
X146350000Y-82410000D02*
X144810000Y-82410000D01*
X147673000Y-79810000D02*
X147107000Y-79810000D01*
X147907000Y-79850000D02*
X146873000Y-79850000D01*
X148067000Y-79890000D02*
X146713000Y-79890000D01*
X148195000Y-79930000D02*
X146585000Y-79930000D01*
X148304000Y-79970000D02*
X146476000Y-79970000D01*
X148401000Y-80010000D02*
X146379000Y-80010000D01*
X148488000Y-80050000D02*
X146292000Y-80050000D01*
X148567000Y-80090000D02*
X146213000Y-80090000D01*
X148641000Y-80130000D02*
X146139000Y-80130000D01*
X148709000Y-80170000D02*
X146071000Y-80170000D01*
X148773000Y-80210000D02*
X146007000Y-80210000D01*
X148833000Y-80250000D02*
X145947000Y-80250000D01*
X148865000Y-85214775D02*
X148865000Y-84714775D01*
X148889000Y-80290000D02*
X145891000Y-80290000D01*
X148943000Y-80330000D02*
X145837000Y-80330000D01*
X148994000Y-80370000D02*
X145786000Y-80370000D01*
X149042000Y-80410000D02*
X148430000Y-80410000D01*
X149089000Y-80450000D02*
X148430000Y-80450000D01*
X149115000Y-84964775D02*
X148615000Y-84964775D01*
X149133000Y-80490000D02*
X148430000Y-80490000D01*
X149175000Y-80530000D02*
X148430000Y-80530000D01*
X149215000Y-80570000D02*
X148430000Y-80570000D01*
X149254000Y-80610000D02*
X148430000Y-80610000D01*
X149291000Y-80650000D02*
X148430000Y-80650000D01*
X149326000Y-80690000D02*
X148430000Y-80690000D01*
X149360000Y-80730000D02*
X148430000Y-80730000D01*
X149393000Y-80770000D02*
X148430000Y-80770000D01*
X149425000Y-80810000D02*
X148430000Y-80810000D01*
X149455000Y-80850000D02*
X148430000Y-80850000D01*
X149484000Y-80890000D02*
X148430000Y-80890000D01*
X149512000Y-80930000D02*
X148430000Y-80930000D01*
X149539000Y-80970000D02*
X148430000Y-80970000D01*
X149565000Y-81010000D02*
X148430000Y-81010000D01*
X149589000Y-81050000D02*
X148430000Y-81050000D01*
X149613000Y-81090000D02*
X148430000Y-81090000D01*
X149636000Y-81130000D02*
X148430000Y-81130000D01*
X149658000Y-81170000D02*
X148430000Y-81170000D01*
X149679000Y-81210000D02*
X148430000Y-81210000D01*
X149699000Y-81250000D02*
X148430000Y-81250000D01*
X149719000Y-81290000D02*
X148430000Y-81290000D01*
X149737000Y-81330000D02*
X148430000Y-81330000D01*
X149755000Y-81370000D02*
X148430000Y-81370000D01*
X149772000Y-81410000D02*
X148430000Y-81410000D01*
X149788000Y-81450000D02*
X148430000Y-81450000D01*
X149803000Y-81490000D02*
X148430000Y-81490000D01*
X149818000Y-81530000D02*
X148430000Y-81530000D01*
X149832000Y-81570000D02*
X148430000Y-81570000D01*
X149845000Y-81610000D02*
X148430000Y-81610000D01*
X149857000Y-81650000D02*
X148430000Y-81650000D01*
X149869000Y-81690000D02*
X148430000Y-81690000D01*
X149880000Y-81730000D02*
X148430000Y-81730000D01*
X149891000Y-81770000D02*
X148430000Y-81770000D01*
X149900000Y-81810000D02*
X148430000Y-81810000D01*
X149909000Y-81850000D02*
X148430000Y-81850000D01*
X149918000Y-81890000D02*
X148430000Y-81890000D01*
X149926000Y-81930000D02*
X148430000Y-81930000D01*
X149933000Y-81970000D02*
X148430000Y-81970000D01*
X149939000Y-82010000D02*
X148430000Y-82010000D01*
X149945000Y-82050000D02*
X148430000Y-82050000D01*
X149950000Y-82090000D02*
X148430000Y-82090000D01*
X149955000Y-82130000D02*
X148430000Y-82130000D01*
X149959000Y-82170000D02*
X148430000Y-82170000D01*
X149962000Y-82210000D02*
X148430000Y-82210000D01*
X149965000Y-82250000D02*
X148430000Y-82250000D01*
X149967000Y-82290000D02*
X148430000Y-82290000D01*
X149969000Y-82330000D02*
X148430000Y-82330000D01*
X149970000Y-82370000D02*
X148430000Y-82370000D01*
X149970000Y-82410000D02*
X148430000Y-82410000D01*
X150010000Y-82410000D02*
G75*
G02*
X144770000Y-82410000I-2620000J0D01*
G01*
X144770000Y-82410000D02*
G75*
G02*
X150010000Y-82410000I2620000J0D01*
G01*
X164250000Y-90485000D02*
X164250000Y-92015000D01*
X166090000Y-92015000D02*
X166090000Y-90485000D01*
X129790000Y-163640000D02*
X129790000Y-170880000D01*
X129790000Y-170880000D02*
X137630000Y-170880000D01*
X136010000Y-163640000D02*
X136010000Y-170880000D01*
X137110000Y-163640000D02*
X137110000Y-170880000D01*
X137630000Y-163640000D02*
X129790000Y-163640000D01*
X137630000Y-165210000D02*
X137630000Y-163640000D01*
X137630000Y-170880000D02*
X137630000Y-165810000D01*
X138240000Y-165950000D02*
X137630000Y-165510000D01*
X138240000Y-165070000D01*
X138240000Y-165950000D01*
G36*
X138240000Y-165950000D02*
G01*
X137630000Y-165510000D01*
X138240000Y-165070000D01*
X138240000Y-165950000D01*
G37*
X149730000Y-149390000D02*
X149730000Y-154830000D01*
X149730000Y-150170000D02*
X152670000Y-150170000D01*
X149730000Y-150290000D02*
X152670000Y-150290000D01*
X149730000Y-150410000D02*
X152670000Y-150410000D01*
X149730000Y-154830000D02*
X149860000Y-154830000D01*
X149860000Y-149390000D02*
X149730000Y-149390000D01*
X152540000Y-149390000D02*
X152670000Y-149390000D01*
X152670000Y-149390000D02*
X152670000Y-154830000D01*
X152670000Y-154830000D02*
X152540000Y-154830000D01*
X118530000Y-108280000D02*
X118530000Y-112120000D01*
X120370000Y-108280000D02*
X120370000Y-112120000D01*
X225950000Y-143020000D02*
X231390000Y-143020000D01*
X225950000Y-143150000D02*
X225950000Y-143020000D01*
X225950000Y-145830000D02*
X225950000Y-145960000D01*
X225950000Y-145960000D02*
X231390000Y-145960000D01*
X226730000Y-145960000D02*
X226730000Y-143020000D01*
X226850000Y-145960000D02*
X226850000Y-143020000D01*
X226970000Y-145960000D02*
X226970000Y-143020000D01*
X231390000Y-143020000D02*
X231390000Y-143150000D01*
X231390000Y-145960000D02*
X231390000Y-145830000D01*
X145440000Y-87050000D02*
X145440000Y-94290000D01*
X145440000Y-94290000D02*
X153280000Y-94290000D01*
X151660000Y-87050000D02*
X151660000Y-94290000D01*
X152760000Y-87050000D02*
X152760000Y-94290000D01*
X153280000Y-87050000D02*
X145440000Y-87050000D01*
X153280000Y-88620000D02*
X153280000Y-87050000D01*
X153280000Y-94290000D02*
X153280000Y-89220000D01*
X153890000Y-89360000D02*
X153280000Y-88920000D01*
X153890000Y-88480000D01*
X153890000Y-89360000D01*
G36*
X153890000Y-89360000D02*
G01*
X153280000Y-88920000D01*
X153890000Y-88480000D01*
X153890000Y-89360000D01*
G37*
X168780000Y-111290000D02*
X168780000Y-116730000D01*
X168780000Y-112070000D02*
X171720000Y-112070000D01*
X168780000Y-112190000D02*
X171720000Y-112190000D01*
X168780000Y-112310000D02*
X171720000Y-112310000D01*
X168780000Y-116730000D02*
X168910000Y-116730000D01*
X168910000Y-111290000D02*
X168780000Y-111290000D01*
X171590000Y-111290000D02*
X171720000Y-111290000D01*
X171720000Y-111290000D02*
X171720000Y-116730000D01*
X171720000Y-116730000D02*
X171590000Y-116730000D01*
X150455000Y-104770000D02*
X151985000Y-104770000D01*
X151985000Y-102930000D02*
X150455000Y-102930000D01*
X237380000Y-88410000D02*
X242820000Y-88410000D01*
X237380000Y-88540000D02*
X237380000Y-88410000D01*
X237380000Y-91220000D02*
X237380000Y-91350000D01*
X237380000Y-91350000D02*
X242820000Y-91350000D01*
X238160000Y-91350000D02*
X238160000Y-88410000D01*
X238280000Y-91350000D02*
X238280000Y-88410000D01*
X238400000Y-91350000D02*
X238400000Y-88410000D01*
X242820000Y-88410000D02*
X242820000Y-88540000D01*
X242820000Y-91350000D02*
X242820000Y-91220000D01*
X258970000Y-71900000D02*
X264410000Y-71900000D01*
X258970000Y-72030000D02*
X258970000Y-71900000D01*
X258970000Y-74710000D02*
X258970000Y-74840000D01*
X258970000Y-74840000D02*
X264410000Y-74840000D01*
X259750000Y-74840000D02*
X259750000Y-71900000D01*
X259870000Y-74840000D02*
X259870000Y-71900000D01*
X259990000Y-74840000D02*
X259990000Y-71900000D01*
X264410000Y-71900000D02*
X264410000Y-72030000D01*
X264410000Y-74840000D02*
X264410000Y-74710000D01*
X149730000Y-111290000D02*
X149730000Y-116730000D01*
X149730000Y-112070000D02*
X152670000Y-112070000D01*
X149730000Y-112190000D02*
X152670000Y-112190000D01*
X149730000Y-112310000D02*
X152670000Y-112310000D01*
X149730000Y-116730000D02*
X149860000Y-116730000D01*
X149860000Y-111290000D02*
X149730000Y-111290000D01*
X152540000Y-111290000D02*
X152670000Y-111290000D01*
X152670000Y-111290000D02*
X152670000Y-116730000D01*
X152670000Y-116730000D02*
X152540000Y-116730000D01*
X266975000Y-169540000D02*
X268505000Y-169540000D01*
X268505000Y-167700000D02*
X266975000Y-167700000D01*
X256840000Y-155890000D02*
X256840000Y-166110000D01*
X256840000Y-159150000D02*
X258220000Y-159150000D01*
X256840000Y-162850000D02*
X258220000Y-162850000D01*
X256840000Y-166110000D02*
X261460000Y-166110000D01*
X258220000Y-155890000D02*
X258220000Y-166110000D01*
X261460000Y-155890000D02*
X256840000Y-155890000D01*
X261460000Y-166110000D02*
X261460000Y-155890000D01*
X187830000Y-130340000D02*
X187830000Y-135780000D01*
X187830000Y-131120000D02*
X190770000Y-131120000D01*
X187830000Y-131240000D02*
X190770000Y-131240000D01*
X187830000Y-131360000D02*
X190770000Y-131360000D01*
X187830000Y-135780000D02*
X187960000Y-135780000D01*
X187960000Y-130340000D02*
X187830000Y-130340000D01*
X190640000Y-130340000D02*
X190770000Y-130340000D01*
X190770000Y-130340000D02*
X190770000Y-135780000D01*
X190770000Y-135780000D02*
X190640000Y-135780000D01*
X225950000Y-162070000D02*
X231390000Y-162070000D01*
X225950000Y-162200000D02*
X225950000Y-162070000D01*
X225950000Y-164880000D02*
X225950000Y-165010000D01*
X225950000Y-165010000D02*
X231390000Y-165010000D01*
X226730000Y-165010000D02*
X226730000Y-162070000D01*
X226850000Y-165010000D02*
X226850000Y-162070000D01*
X226970000Y-165010000D02*
X226970000Y-162070000D01*
X231390000Y-162070000D02*
X231390000Y-162200000D01*
X231390000Y-165010000D02*
X231390000Y-164880000D01*
X255960000Y-167700000D02*
X259800000Y-167700000D01*
X255960000Y-169540000D02*
X259800000Y-169540000D01*
X121070000Y-112120000D02*
X121070000Y-108280000D01*
X122910000Y-112120000D02*
X122910000Y-108280000D01*
X168780000Y-130340000D02*
X168780000Y-135780000D01*
X168780000Y-131120000D02*
X171720000Y-131120000D01*
X168780000Y-131240000D02*
X171720000Y-131240000D01*
X168780000Y-131360000D02*
X171720000Y-131360000D01*
X168780000Y-135780000D02*
X168910000Y-135780000D01*
X168910000Y-130340000D02*
X168780000Y-130340000D01*
X171590000Y-130340000D02*
X171720000Y-130340000D01*
X171720000Y-130340000D02*
X171720000Y-135780000D01*
X171720000Y-135780000D02*
X171590000Y-135780000D01*
X187830000Y-149390000D02*
X187830000Y-154830000D01*
X187830000Y-150170000D02*
X190770000Y-150170000D01*
X187830000Y-150290000D02*
X190770000Y-150290000D01*
X187830000Y-150410000D02*
X190770000Y-150410000D01*
X187830000Y-154830000D02*
X187960000Y-154830000D01*
X187960000Y-149390000D02*
X187830000Y-149390000D01*
X190640000Y-149390000D02*
X190770000Y-149390000D01*
X190770000Y-149390000D02*
X190770000Y-154830000D01*
X190770000Y-154830000D02*
X190640000Y-154830000D01*
X250080000Y-88410000D02*
X255520000Y-88410000D01*
X250080000Y-88540000D02*
X250080000Y-88410000D01*
X250080000Y-91220000D02*
X250080000Y-91350000D01*
X250080000Y-91350000D02*
X255520000Y-91350000D01*
X250860000Y-91350000D02*
X250860000Y-88410000D01*
X250980000Y-91350000D02*
X250980000Y-88410000D01*
X251100000Y-91350000D02*
X251100000Y-88410000D01*
X255520000Y-88410000D02*
X255520000Y-88540000D01*
X255520000Y-91350000D02*
X255520000Y-91220000D01*
X129720000Y-71900000D02*
X129720000Y-72030000D01*
X129720000Y-74840000D02*
X129720000Y-74710000D01*
X134140000Y-71900000D02*
X134140000Y-74840000D01*
X134260000Y-71900000D02*
X134260000Y-74840000D01*
X134380000Y-71900000D02*
X134380000Y-74840000D01*
X135160000Y-71900000D02*
X129720000Y-71900000D01*
X135160000Y-72030000D02*
X135160000Y-71900000D01*
X135160000Y-74710000D02*
X135160000Y-74840000D01*
X135160000Y-74840000D02*
X129720000Y-74840000D01*
X118530000Y-127235000D02*
X118530000Y-128765000D01*
X120370000Y-128765000D02*
X120370000Y-127235000D01*
X262780000Y-88410000D02*
X268220000Y-88410000D01*
X262780000Y-88540000D02*
X262780000Y-88410000D01*
X262780000Y-91220000D02*
X262780000Y-91350000D01*
X262780000Y-91350000D02*
X268220000Y-91350000D01*
X263560000Y-91350000D02*
X263560000Y-88410000D01*
X263680000Y-91350000D02*
X263680000Y-88410000D01*
X263800000Y-91350000D02*
X263800000Y-88410000D01*
X268220000Y-88410000D02*
X268220000Y-88540000D01*
X268220000Y-91350000D02*
X268220000Y-91220000D01*
X225950000Y-136670000D02*
X231390000Y-136670000D01*
X225950000Y-136800000D02*
X225950000Y-136670000D01*
X225950000Y-139480000D02*
X225950000Y-139610000D01*
X225950000Y-139610000D02*
X231390000Y-139610000D01*
X226730000Y-139610000D02*
X226730000Y-136670000D01*
X226850000Y-139610000D02*
X226850000Y-136670000D01*
X226970000Y-139610000D02*
X226970000Y-136670000D01*
X231390000Y-136670000D02*
X231390000Y-136800000D01*
X231390000Y-139610000D02*
X231390000Y-139480000D01*
X168780000Y-149390000D02*
X168780000Y-154830000D01*
X168780000Y-150170000D02*
X171720000Y-150170000D01*
X168780000Y-150290000D02*
X171720000Y-150290000D01*
X168780000Y-150410000D02*
X171720000Y-150410000D01*
X168780000Y-154830000D02*
X168910000Y-154830000D01*
X168910000Y-149390000D02*
X168780000Y-149390000D01*
X171590000Y-149390000D02*
X171720000Y-149390000D01*
X171720000Y-149390000D02*
X171720000Y-154830000D01*
X171720000Y-154830000D02*
X171590000Y-154830000D01*
X265120000Y-158460000D02*
X265120000Y-159790000D01*
X265120000Y-159790000D02*
X266450000Y-159790000D01*
X267720000Y-157130000D02*
X267720000Y-159790000D01*
X267720000Y-157130000D02*
X270320000Y-157130000D01*
X267720000Y-159790000D02*
X270320000Y-159790000D01*
X270320000Y-157130000D02*
X270320000Y-159790000D01*
D11*
X121260000Y-139060000D02*
X144160000Y-139060000D01*
X121260000Y-161960000D02*
X121260000Y-139060000D01*
X144160000Y-139060000D02*
X144160000Y-161960000D01*
X144160000Y-161960000D02*
X121260000Y-161960000D01*
X124550000Y-141265269D02*
G75*
G02*
X122370000Y-141265269I-1090000J0D01*
G01*
X122370000Y-141265269D02*
G75*
G02*
X124550000Y-141265269I1090000J0D01*
G01*
X124550000Y-159765269D02*
G75*
G02*
X122370000Y-159765269I-1090000J0D01*
G01*
X122370000Y-159765269D02*
G75*
G02*
X124550000Y-159765269I1090000J0D01*
G01*
M02*
